{"glyphs":{"0":{"ha":1181,"x_min":125,"x_max":1056,"o":"m 1056 360 q 927 81 1056 175 q 590 -14 799 -14 q 253 81 381 -14 q 125 363 125 175 l 125 610 q 188 819 125 735 q 355 945 250 904 q 590 986 460 986 q 826 945 721 986 q 993 820 931 904 q 1056 613 1056 736 l 1056 360 m 500 349 q 526 284 500 310 q 590 258 553 258 q 654 285 628 258 q 681 349 681 311 l 681 626 q 655 691 681 665 q 590 717 629 717 q 526 690 551 717 q 500 626 500 664 l 500 349 z "},"1":{"ha":1181,"x_min":147,"x_max":1076,"o":"m 1039 285 q 1065 274 1054 285 q 1076 247 1076 263 l 1076 38 q 1065 11 1076 22 q 1039 0 1054 0 l 200 0 q 174 11 185 0 q 163 38 163 22 l 163 247 q 174 274 163 263 q 200 285 185 285 l 457 285 l 457 618 l 317 525 q 296 518 306 518 q 264 536 278 518 l 151 711 q 147 731 147 719 q 164 765 147 753 l 472 967 q 494 972 482 972 l 781 972 q 807 961 796 972 q 818 935 818 950 l 818 285 l 1039 285 z "},"2":{"ha":1181,"x_min":143,"x_max":1056,"o":"m 1018 285 q 1044 274 1033 285 q 1056 247 1056 263 l 1056 38 q 1044 11 1056 22 q 1018 0 1033 0 l 181 0 q 154 11 165 0 q 143 38 143 22 l 143 208 q 149 249 143 229 q 179 283 154 268 q 533 521 415 432 q 650 658 650 610 q 640 699 650 685 q 597 714 631 714 q 543 694 558 714 q 523 654 528 675 q 515 626 518 633 q 503 613 511 615 q 488 611 496 611 q 476 611 479 611 l 194 611 q 170 622 181 611 q 160 646 160 632 q 215 826 160 749 q 371 944 269 903 q 608 986 472 986 q 915 906 811 986 q 1019 676 1019 825 q 976 546 1019 607 q 866 433 932 485 q 686 307 800 382 l 653 285 l 1018 285 z "},"3":{"ha":1181,"x_min":115,"x_max":1076,"o":"m 811 592 q 1076 304 1076 529 q 1015 138 1076 210 q 843 26 953 65 q 594 -14 733 -14 q 322 33 429 -14 q 165 146 214 79 q 115 275 115 213 q 124 297 115 289 q 146 306 133 306 l 450 306 q 482 289 465 306 q 521 263 501 271 q 596 256 540 256 q 675 276 649 256 q 701 329 701 297 q 594 390 701 390 l 410 390 q 383 401 394 390 q 372 428 372 413 l 372 540 q 381 574 372 560 q 401 596 389 589 l 606 701 l 217 701 q 190 713 201 701 q 179 739 179 724 l 179 935 q 190 961 179 950 q 217 972 201 972 l 975 972 q 1001 961 990 972 q 1013 935 1013 950 l 1013 758 q 983 703 1013 726 l 811 592 z "},"4":{"ha":1181,"x_min":92,"x_max":1093,"o":"m 1054 438 q 1082 426 1071 438 q 1093 400 1093 415 l 1093 193 q 1082 167 1093 178 q 1056 156 1071 156 l 933 156 l 933 38 q 922 11 933 22 q 896 0 911 0 l 617 0 q 590 11 601 0 q 579 38 579 22 l 579 156 l 129 156 q 103 167 114 156 q 92 193 92 178 l 92 399 q 107 442 92 422 l 528 949 q 579 972 547 972 l 896 972 q 922 961 911 972 q 933 935 933 950 l 933 438 l 1054 438 m 589 422 l 589 618 l 429 422 l 589 422 z "},"5":{"ha":1181,"x_min":121,"x_max":1060,"o":"m 482 306 q 525 269 501 281 q 582 257 549 257 q 659 280 631 257 q 688 343 688 303 q 658 406 688 383 q 582 428 629 428 q 539 422 556 428 q 506 406 522 415 q 479 394 490 394 l 203 394 q 181 403 190 394 q 172 425 172 413 q 172 432 172 432 l 226 914 q 247 956 229 940 q 292 972 265 972 l 951 972 q 978 961 967 972 q 989 935 989 950 l 989 739 q 978 713 989 724 q 951 701 967 701 l 511 701 l 500 606 q 586 642 542 632 q 707 653 631 653 q 880 611 799 653 q 1010 497 961 569 q 1060 333 1060 424 q 1001 156 1060 235 q 833 31 942 76 q 581 -14 725 -14 q 335 28 439 -14 q 176 142 231 71 q 121 297 121 213 q 130 319 121 310 q 151 328 139 328 l 432 328 q 482 306 464 328 z "},"6":{"ha":1181,"x_min":135,"x_max":1067,"o":"m 692 688 q 860 660 774 692 q 1007 552 947 629 q 1067 353 1067 475 q 1006 163 1067 246 q 841 33 946 79 q 607 -14 736 -14 q 367 28 475 -14 q 197 151 260 71 q 135 339 135 231 q 272 651 135 479 l 504 944 q 558 972 524 972 l 838 972 q 859 963 850 972 q 868 942 868 954 q 863 924 868 932 l 692 688 m 719 347 q 685 414 719 390 q 603 438 651 438 q 520 414 554 438 q 486 347 486 390 q 520 281 486 304 q 603 257 554 257 q 685 281 651 257 q 719 347 719 304 z "},"7":{"ha":1181,"x_min":165,"x_max":1042,"o":"m 1004 972 q 1031 961 1021 972 q 1042 935 1042 950 l 1042 731 q 1038 692 1042 707 q 1024 660 1033 676 l 686 32 q 629 0 668 0 l 317 0 q 295 9 304 0 q 286 31 286 18 q 289 43 286 38 l 647 688 l 203 688 q 176 699 188 688 q 165 725 165 710 l 165 935 q 176 961 165 950 q 203 972 188 972 l 1004 972 z "},"8":{"ha":1181,"x_min":113,"x_max":1071,"o":"m 590 986 q 835 946 735 986 q 985 840 935 906 q 1035 697 1035 774 q 938 514 1035 583 q 1037 424 1003 479 q 1071 300 1071 369 q 1017 147 1071 218 q 853 31 963 75 q 590 -14 744 -14 q 327 31 435 -14 q 166 148 219 75 q 113 303 113 221 q 144 426 113 371 q 236 514 176 481 q 142 694 142 585 q 192 838 142 771 q 343 945 242 904 q 590 986 444 986 m 693 675 q 663 729 693 708 q 590 750 632 750 q 519 730 549 750 q 489 675 489 710 q 519 622 489 642 q 590 601 549 601 q 663 622 632 601 q 693 675 693 642 m 701 294 q 668 354 700 332 q 590 376 636 376 q 513 354 546 376 q 479 294 479 332 q 512 239 479 258 q 590 219 544 219 q 669 238 636 219 q 701 294 701 257 z "},"9":{"ha":1181,"x_min":121,"x_max":1053,"o":"m 496 285 q 327 312 414 281 q 181 420 240 343 q 121 619 121 497 q 181 810 121 726 q 347 940 242 893 q 581 986 451 986 q 820 944 713 986 q 990 822 928 901 q 1053 633 1053 742 q 1026 492 1053 564 q 917 325 999 421 l 663 28 q 640 8 653 15 q 608 0 628 0 l 317 0 q 295 9 304 0 q 286 31 286 18 q 292 49 286 40 l 496 285 m 701 626 q 667 693 701 669 q 585 717 633 717 q 502 693 536 717 q 468 626 468 669 q 502 560 468 583 q 585 536 536 536 q 667 560 633 536 q 701 626 701 583 z "},"\u0000":{"ha":0,"x_min":0,"x_max":0,"o":""},"\r":{"ha":1181,"x_min":0,"x_max":0,"o":""}," ":{"ha":1181,"x_min":0,"x_max":0,"o":""},"A":{"ha":1181,"x_min":35,"x_max":1154,"o":"m 390 47 q 328 0 372 0 l 65 0 q 44 9 53 0 q 35 31 35 18 l 36 39 l 339 926 q 360 958 344 944 q 401 972 375 972 l 788 972 q 829 958 814 972 q 850 926 844 944 l 1153 39 l 1154 31 q 1145 9 1154 18 q 1124 0 1136 0 l 861 0 q 799 47 817 0 l 764 144 l 425 144 l 390 47 m 594 704 l 496 415 l 693 415 l 594 704 z "},"Á":{"ha":1181,"x_min":35,"x_max":1154,"o":"m 565 1154 q 589 1175 579 1171 q 617 1181 599 1179 l 836 1181 q 856 1173 849 1181 q 863 1153 863 1165 q 856 1136 863 1143 l 724 1025 q 685 1015 711 1015 l 668 1015 l 500 1015 q 478 1038 478 1015 q 485 1056 478 1049 l 565 1154 m 799 47 q 861 0 817 0 l 1124 0 q 1145 9 1136 0 q 1154 31 1154 18 l 1153 39 l 850 926 q 829 958 844 944 q 788 972 814 972 l 401 972 q 360 958 375 972 q 339 926 344 944 l 36 39 l 35 31 q 44 9 35 18 q 65 0 53 0 l 328 0 q 390 47 372 0 l 425 144 l 764 144 l 799 47 m 693 415 l 496 415 l 594 704 l 693 415 z "},"Ă":{"ha":1181,"x_min":35,"x_max":1154,"o":"m 651 1169 q 678 1188 661 1188 l 815 1188 q 835 1182 828 1188 q 842 1169 842 1176 q 778 1059 842 1104 q 594 1014 714 1014 q 413 1059 476 1014 q 349 1169 349 1104 q 356 1182 349 1176 q 375 1188 363 1188 l 513 1188 q 539 1169 533 1188 q 554 1146 542 1157 q 594 1135 567 1135 q 633 1144 622 1135 q 651 1169 644 1154 m 390 47 q 328 0 372 0 l 65 0 q 44 9 53 0 q 35 31 35 18 l 36 39 l 339 926 q 360 958 344 944 q 401 972 375 972 l 788 972 q 829 958 814 972 q 850 926 844 944 l 1153 39 l 1154 31 q 1145 9 1154 18 q 1124 0 1136 0 l 861 0 q 799 47 817 0 l 764 144 l 425 144 l 390 47 m 594 704 l 496 415 l 693 415 l 594 704 z "},"Â":{"ha":1181,"x_min":35,"x_max":1154,"o":"m 514 1025 q 458 1015 483 1015 l 346 1015 q 330 1022 336 1015 q 324 1038 324 1028 q 335 1057 324 1050 l 450 1154 q 485 1175 471 1169 q 515 1181 500 1181 l 671 1181 q 701 1175 686 1181 q 736 1154 715 1169 l 851 1057 q 863 1038 863 1050 q 856 1022 863 1028 q 840 1015 850 1015 l 728 1015 q 672 1025 703 1015 l 593 1056 l 514 1025 m 799 47 q 861 0 817 0 l 1124 0 q 1145 9 1136 0 q 1154 31 1154 18 l 1153 39 l 850 926 q 829 958 844 944 q 788 972 814 972 l 401 972 q 360 958 375 972 q 339 926 344 944 l 36 39 l 35 31 q 44 9 35 18 q 65 0 53 0 l 328 0 q 390 47 372 0 l 425 144 l 764 144 l 799 47 m 693 415 l 496 415 l 594 704 l 693 415 z "},"Ä":{"ha":1181,"x_min":35,"x_max":1154,"o":"m 699 1056 q 706 1038 706 1049 q 683 1015 706 1015 l 515 1015 l 499 1015 q 460 1025 472 1015 l 328 1136 q 321 1153 321 1143 q 328 1173 321 1165 q 347 1181 335 1181 l 567 1181 q 594 1175 585 1179 q 618 1154 604 1171 l 699 1056 m 390 47 q 328 0 372 0 l 65 0 q 44 9 53 0 q 35 31 35 18 l 36 39 l 339 926 q 360 958 344 944 q 401 972 375 972 l 788 972 q 829 958 814 972 q 850 926 844 944 l 1153 39 l 1154 31 q 1145 9 1154 18 q 1124 0 1136 0 l 861 0 q 799 47 817 0 l 764 144 l 425 144 l 390 47 m 594 704 l 496 415 l 693 415 l 594 704 z "},"À":{"ha":1181,"x_min":35,"x_max":1154,"o":"m 501 1181 q 524 1172 515 1181 q 533 1149 533 1163 l 533 1047 q 524 1024 533 1033 q 501 1015 515 1015 l 340 1015 q 317 1024 326 1015 q 308 1047 308 1033 l 308 1149 q 317 1172 308 1163 q 340 1181 326 1181 l 501 1181 m 850 1181 q 873 1172 864 1181 q 882 1149 882 1163 l 882 1047 q 873 1024 882 1033 q 850 1015 864 1015 l 689 1015 q 666 1024 675 1015 q 657 1047 657 1033 l 657 1149 q 666 1172 657 1163 q 689 1181 675 1181 l 850 1181 m 799 47 q 861 0 817 0 l 1124 0 q 1145 9 1136 0 q 1154 31 1154 18 l 1153 39 l 850 926 q 829 958 844 944 q 788 972 814 972 l 401 972 q 360 958 375 972 q 339 926 344 944 l 36 39 l 35 31 q 44 9 35 18 q 65 0 53 0 l 328 0 q 390 47 372 0 l 425 144 l 764 144 l 799 47 m 693 415 l 496 415 l 594 704 l 693 415 z "},"Ā":{"ha":1181,"x_min":35,"x_max":1154,"o":"m 846 1181 q 869 1172 860 1181 q 878 1149 878 1163 l 878 1047 q 869 1024 878 1033 q 846 1015 860 1015 l 336 1015 q 313 1024 322 1015 q 304 1047 304 1033 l 304 1149 q 313 1172 304 1163 q 336 1181 322 1181 l 846 1181 m 799 47 q 861 0 817 0 l 1124 0 q 1145 9 1136 0 q 1154 31 1154 18 l 1153 39 l 850 926 q 829 958 844 944 q 788 972 814 972 l 401 972 q 360 958 375 972 q 339 926 344 944 l 36 39 l 35 31 q 44 9 35 18 q 65 0 53 0 l 328 0 q 390 47 372 0 l 425 144 l 764 144 l 799 47 m 693 415 l 496 415 l 594 704 l 693 415 z "},"Ą":{"ha":1181,"x_min":35,"x_max":1161,"o":"m 390 47 q 328 0 372 0 l 65 0 q 44 9 53 0 q 35 31 35 18 l 36 39 l 339 926 q 360 958 344 944 q 401 972 375 972 l 788 972 q 829 958 814 972 q 850 926 844 944 l 1153 39 l 1154 31 q 1145 9 1154 18 q 1124 0 1136 0 l 1104 0 q 1054 -36 1054 -1 q 1114 -72 1054 -72 l 1124 -72 q 1151 -81 1140 -72 q 1161 -107 1161 -90 l 1161 -164 q 1151 -188 1161 -179 q 1124 -197 1140 -197 l 1104 -197 q 943 -156 993 -197 q 893 -36 893 -115 q 896 0 893 -11 l 861 0 q 799 47 817 0 l 764 144 l 425 144 l 390 47 m 594 704 l 496 415 l 693 415 l 594 704 z "},"Å":{"ha":1181,"x_min":35,"x_max":1154,"o":"m 449 1093 q 489 1162 449 1136 q 589 1188 529 1188 q 689 1162 649 1188 q 729 1093 729 1136 q 689 1024 729 1050 q 589 999 649 999 q 489 1024 529 999 q 449 1093 449 1050 m 546 1093 q 558 1073 546 1081 q 589 1065 571 1065 q 619 1073 607 1065 q 631 1093 631 1081 q 619 1113 631 1106 q 589 1121 607 1121 q 558 1113 571 1121 q 546 1093 546 1106 m 799 47 q 861 0 817 0 l 1124 0 q 1145 9 1136 0 q 1154 31 1154 18 l 1153 39 l 850 926 q 829 958 844 944 q 788 972 814 972 l 401 972 q 360 958 375 972 q 339 926 344 944 l 36 39 l 35 31 q 44 9 35 18 q 65 0 53 0 l 328 0 q 390 47 372 0 l 425 144 l 764 144 l 799 47 m 693 415 l 496 415 l 594 704 l 693 415 z "},"Ã":{"ha":1181,"x_min":35,"x_max":1154,"o":"m 676 1014 q 583 1033 633 1014 q 563 1041 581 1035 q 526 1047 544 1047 q 486 1033 503 1047 q 457 1021 474 1021 l 340 1021 q 322 1028 329 1021 q 314 1046 314 1036 q 331 1103 314 1069 q 391 1162 349 1136 q 503 1188 433 1188 q 596 1168 546 1188 q 617 1160 599 1167 q 653 1154 635 1154 q 692 1168 675 1154 q 706 1178 700 1175 q 722 1181 713 1181 l 839 1181 q 858 1173 851 1181 q 865 1154 865 1165 q 848 1098 865 1131 q 788 1040 831 1065 q 676 1014 746 1014 m 799 47 q 861 0 817 0 l 1124 0 q 1145 9 1136 0 q 1154 31 1154 18 l 1153 39 l 850 926 q 829 958 844 944 q 788 972 814 972 l 401 972 q 360 958 375 972 q 339 926 344 944 l 36 39 l 35 31 q 44 9 35 18 q 65 0 53 0 l 328 0 q 390 47 372 0 l 425 144 l 764 144 l 799 47 m 693 415 l 496 415 l 594 704 l 693 415 z "},"Æ":{"ha":1181,"x_min":13,"x_max":1168,"o":"m 354 47 q 292 0 336 0 l 43 0 q 22 9 31 0 q 13 31 13 18 l 14 39 l 331 926 q 353 959 338 946 q 393 972 368 972 l 1117 972 q 1143 961 1132 972 q 1154 935 1154 950 l 1154 739 q 1143 713 1154 724 q 1117 701 1132 701 l 933 701 l 933 614 l 1083 614 q 1110 603 1099 614 q 1121 576 1121 592 l 1121 396 q 1110 369 1121 381 q 1083 358 1099 358 l 933 358 l 933 271 l 1131 271 q 1157 260 1146 271 q 1168 233 1168 249 l 1168 38 q 1157 11 1168 22 q 1131 0 1146 0 l 624 0 q 597 11 608 0 q 586 38 586 22 l 586 144 l 389 144 l 354 47 m 586 704 l 558 704 l 460 415 l 586 415 l 586 704 z "},"Ǽ":{"ha":1181,"x_min":13,"x_max":1168,"o":"m 638 1154 q 661 1175 651 1171 q 689 1181 671 1179 l 908 1181 q 928 1173 921 1181 q 935 1153 935 1165 q 928 1136 935 1143 l 796 1025 q 757 1015 783 1015 l 740 1015 l 572 1015 q 550 1038 550 1015 q 557 1056 550 1049 l 638 1154 m 354 47 q 292 0 336 0 l 43 0 q 22 9 31 0 q 13 31 13 18 l 14 39 l 331 926 q 353 959 338 946 q 393 972 368 972 l 1117 972 q 1143 961 1132 972 q 1154 935 1154 950 l 1154 739 q 1143 713 1154 724 q 1117 701 1132 701 l 933 701 l 933 614 l 1083 614 q 1110 603 1099 614 q 1121 576 1121 592 l 1121 396 q 1110 369 1121 381 q 1083 358 1099 358 l 933 358 l 933 271 l 1131 271 q 1157 260 1146 271 q 1168 233 1168 249 l 1168 38 q 1157 11 1168 22 q 1131 0 1146 0 l 624 0 q 597 11 608 0 q 586 38 586 22 l 586 144 l 389 144 l 354 47 m 586 704 l 558 704 l 460 415 l 586 415 l 586 704 z "},"B":{"ha":1181,"x_min":118,"x_max":1119,"o":"m 988 507 q 1081 434 1042 490 q 1119 306 1119 378 q 1019 76 1119 151 q 728 0 919 0 l 156 0 q 129 11 140 0 q 118 38 118 22 l 118 935 q 129 961 118 950 q 156 972 140 972 l 714 972 q 1005 901 911 972 q 1099 685 1099 829 l 1099 681 q 1063 567 1099 614 q 988 507 1026 519 m 722 672 q 708 715 722 697 q 665 733 693 733 l 479 733 l 479 607 l 665 607 q 708 627 693 607 q 722 672 722 647 m 681 239 q 728 260 713 239 q 744 308 744 282 l 744 310 q 727 356 744 336 q 681 375 710 375 l 479 375 l 479 239 l 681 239 z "},"C":{"ha":1181,"x_min":88,"x_max":1117,"o":"m 463 375 q 501 288 463 318 q 604 257 539 257 q 690 276 663 257 q 738 335 718 296 q 786 371 756 371 l 1086 371 q 1108 362 1099 371 q 1117 340 1117 353 q 1060 174 1117 256 q 887 40 1003 93 q 604 -14 771 -14 q 340 31 456 -14 q 156 170 224 76 q 88 404 88 264 l 88 568 q 156 802 88 708 q 340 941 224 896 q 604 986 456 986 q 887 933 771 986 q 1060 798 1003 879 q 1117 632 1117 717 q 1108 610 1117 619 q 1086 601 1099 601 l 786 601 q 738 638 756 601 q 690 696 718 676 q 604 715 663 715 q 501 685 539 715 q 463 597 463 654 l 463 375 z "},"Ć":{"ha":1181,"x_min":88,"x_max":1117,"o":"m 551 1154 q 575 1175 565 1171 q 603 1181 585 1179 l 822 1181 q 842 1173 835 1181 q 849 1153 849 1165 q 842 1136 849 1143 l 710 1025 q 671 1015 697 1015 l 654 1015 l 486 1015 q 464 1038 464 1015 q 471 1056 464 1049 l 551 1154 m 463 375 q 501 288 463 318 q 604 257 539 257 q 690 276 663 257 q 738 335 718 296 q 786 371 756 371 l 1086 371 q 1108 362 1099 371 q 1117 340 1117 353 q 1060 174 1117 256 q 887 40 1003 93 q 604 -14 771 -14 q 340 31 456 -14 q 156 170 224 76 q 88 404 88 264 l 88 568 q 156 802 88 708 q 340 941 224 896 q 604 986 456 986 q 887 933 771 986 q 1060 798 1003 879 q 1117 632 1117 717 q 1108 610 1117 619 q 1086 601 1099 601 l 786 601 q 738 638 756 601 q 690 696 718 676 q 604 715 663 715 q 501 685 539 715 q 463 597 463 654 l 463 375 z "},"Č":{"ha":1181,"x_min":88,"x_max":1117,"o":"m 675 1171 q 731 1181 706 1181 l 843 1181 q 859 1174 853 1181 q 865 1158 865 1168 q 854 1139 865 1146 l 739 1042 q 703 1021 718 1026 q 674 1015 689 1015 l 518 1015 q 488 1021 503 1015 q 453 1042 474 1026 l 338 1139 q 326 1158 326 1146 q 333 1174 326 1168 q 349 1181 339 1181 l 461 1181 q 517 1171 486 1181 l 596 1140 l 675 1171 m 463 375 q 501 288 463 318 q 604 257 539 257 q 690 276 663 257 q 738 335 718 296 q 786 371 756 371 l 1086 371 q 1108 362 1099 371 q 1117 340 1117 353 q 1060 174 1117 256 q 887 40 1003 93 q 604 -14 771 -14 q 340 31 456 -14 q 156 170 224 76 q 88 404 88 264 l 88 568 q 156 802 88 708 q 340 941 224 896 q 604 986 456 986 q 887 933 771 986 q 1060 798 1003 879 q 1117 632 1117 717 q 1108 610 1117 619 q 1086 601 1099 601 l 786 601 q 738 638 756 601 q 690 696 718 676 q 604 715 663 715 q 501 685 539 715 q 463 597 463 654 l 463 375 z "},"Ç":{"ha":1181,"x_min":88,"x_max":1117,"o":"m 463 375 q 501 288 463 318 q 604 257 539 257 q 690 276 663 257 q 738 335 718 296 q 786 371 756 371 l 1086 371 q 1108 362 1099 371 q 1117 340 1117 353 q 1064 181 1117 260 q 903 47 1011 101 q 640 -12 796 -7 l 632 -36 q 683 -31 644 -31 q 774 -53 739 -31 q 810 -115 810 -75 q 760 -185 810 -162 q 649 -208 711 -208 q 526 -190 579 -208 q 474 -139 474 -172 q 492 -124 474 -124 l 576 -124 q 606 -132 592 -124 q 622 -139 613 -136 q 649 -142 632 -142 q 679 -134 669 -142 q 689 -115 689 -126 q 650 -92 689 -92 q 613 -98 629 -92 q 583 -104 596 -104 l 522 -104 q 501 -86 501 -104 q 504 -74 501 -82 l 525 -10 q 208 111 328 7 q 88 404 88 215 l 88 568 q 156 802 88 708 q 340 941 224 896 q 604 986 456 986 q 887 933 771 986 q 1060 798 1003 879 q 1117 632 1117 717 q 1108 610 1117 619 q 1086 601 1099 601 l 786 601 q 738 638 756 601 q 690 696 718 676 q 604 715 663 715 q 501 685 539 715 q 463 597 463 654 l 463 375 z "},"Ĉ":{"ha":1181,"x_min":88,"x_max":1117,"o":"m 521 1025 q 465 1015 490 1015 l 353 1015 q 337 1022 343 1015 q 331 1038 331 1028 q 342 1057 331 1050 l 457 1154 q 492 1175 478 1169 q 522 1181 507 1181 l 678 1181 q 708 1175 693 1181 q 743 1154 722 1169 l 858 1057 q 869 1038 869 1050 q 863 1022 869 1028 q 847 1015 857 1015 l 735 1015 q 679 1025 710 1015 l 600 1056 l 521 1025 m 463 375 q 501 288 463 318 q 604 257 539 257 q 690 276 663 257 q 738 335 718 296 q 786 371 756 371 l 1086 371 q 1108 362 1099 371 q 1117 340 1117 353 q 1060 174 1117 256 q 887 40 1003 93 q 604 -14 771 -14 q 340 31 456 -14 q 156 170 224 76 q 88 404 88 264 l 88 568 q 156 802 88 708 q 340 941 224 896 q 604 986 456 986 q 887 933 771 986 q 1060 798 1003 879 q 1117 632 1117 717 q 1108 610 1117 619 q 1086 601 1099 601 l 786 601 q 738 638 756 601 q 690 696 718 676 q 604 715 663 715 q 501 685 539 715 q 463 597 463 654 l 463 375 z "},"Ċ":{"ha":1181,"x_min":88,"x_max":1117,"o":"m 688 1181 q 710 1172 701 1181 q 719 1149 719 1163 l 719 1047 q 710 1024 719 1033 q 688 1015 701 1015 l 499 1015 q 476 1024 485 1015 q 467 1047 467 1033 l 467 1149 q 476 1172 467 1163 q 499 1181 485 1181 l 688 1181 m 463 375 q 501 288 463 318 q 604 257 539 257 q 690 276 663 257 q 738 335 718 296 q 786 371 756 371 l 1086 371 q 1108 362 1099 371 q 1117 340 1117 353 q 1060 174 1117 256 q 887 40 1003 93 q 604 -14 771 -14 q 340 31 456 -14 q 156 170 224 76 q 88 404 88 264 l 88 568 q 156 802 88 708 q 340 941 224 896 q 604 986 456 986 q 887 933 771 986 q 1060 798 1003 879 q 1117 632 1117 717 q 1108 610 1117 619 q 1086 601 1099 601 l 786 601 q 738 638 756 601 q 690 696 718 676 q 604 715 663 715 q 501 685 539 715 q 463 597 463 654 l 463 375 z "},"D":{"ha":1181,"x_min":106,"x_max":1103,"o":"m 586 972 q 962 871 821 972 q 1103 557 1103 769 l 1103 415 q 963 99 1103 199 q 586 0 824 0 l 143 0 q 117 11 128 0 q 106 38 106 22 l 106 935 q 117 961 106 950 q 143 972 128 972 l 586 972 m 593 271 q 697 302 658 271 q 735 390 735 333 l 735 582 q 697 670 735 639 q 593 701 658 701 l 467 701 l 467 271 l 593 271 z "},"Ð":{"ha":1181,"x_min":0,"x_max":1103,"o":"m 586 972 q 962 871 821 972 q 1103 557 1103 769 l 1103 415 q 963 99 1103 199 q 586 0 824 0 l 143 0 q 117 11 128 0 q 106 38 106 22 l 106 381 l 38 381 q 11 392 22 381 q 0 418 0 403 l 0 558 q 11 585 0 574 q 38 596 22 596 l 106 596 l 106 935 q 117 961 106 950 q 143 972 128 972 l 586 972 m 585 596 q 611 585 600 596 q 622 558 622 574 l 622 418 q 611 392 622 403 q 585 381 600 381 l 467 381 l 467 271 l 593 271 q 697 302 658 271 q 735 390 735 333 l 735 582 q 697 670 735 639 q 593 701 658 701 l 467 701 l 467 596 l 585 596 z "},"Ď":{"ha":1181,"x_min":106,"x_max":1103,"o":"m 614 1171 q 669 1181 644 1181 l 782 1181 q 798 1174 792 1181 q 804 1158 804 1168 q 793 1139 804 1146 l 678 1042 q 642 1021 657 1026 q 613 1015 628 1015 l 457 1015 q 427 1021 442 1015 q 392 1042 413 1026 l 276 1139 q 265 1158 265 1146 q 272 1174 265 1168 q 288 1181 278 1181 l 400 1181 q 456 1171 425 1181 l 535 1140 l 614 1171 m 586 972 q 962 871 821 972 q 1103 557 1103 769 l 1103 415 q 963 99 1103 199 q 586 0 824 0 l 143 0 q 117 11 128 0 q 106 38 106 22 l 106 935 q 117 961 106 950 q 143 972 128 972 l 586 972 m 593 271 q 697 302 658 271 q 735 390 735 333 l 735 582 q 697 670 735 639 q 593 701 658 701 l 467 701 l 467 271 l 593 271 z "},"Đ":{"ha":1181,"x_min":0,"x_max":1103,"o":"m 586 972 q 962 871 821 972 q 1103 557 1103 769 l 1103 415 q 963 99 1103 199 q 586 0 824 0 l 143 0 q 117 11 128 0 q 106 38 106 22 l 106 381 l 38 381 q 11 392 22 381 q 0 418 0 403 l 0 558 q 11 585 0 574 q 38 596 22 596 l 106 596 l 106 935 q 117 961 106 950 q 143 972 128 972 l 586 972 m 515 596 q 542 585 531 596 q 553 558 553 574 l 553 418 q 542 392 553 403 q 515 381 531 381 l 467 381 l 467 271 l 593 271 q 697 302 658 271 q 735 390 735 333 l 735 582 q 697 670 735 639 q 593 701 658 701 l 467 701 l 467 596 l 515 596 z "},"E":{"ha":1181,"x_min":125,"x_max":1078,"o":"m 1040 271 q 1067 260 1056 271 q 1078 233 1078 249 l 1078 38 q 1067 11 1078 22 q 1040 0 1056 0 l 163 0 q 136 11 147 0 q 125 38 125 22 l 125 935 q 136 961 125 950 q 163 972 147 972 l 1026 972 q 1053 961 1042 972 q 1064 935 1064 950 l 1064 739 q 1053 713 1064 724 q 1026 701 1042 701 l 486 701 l 486 614 l 950 614 q 976 603 965 614 q 988 576 988 592 l 988 396 q 976 369 988 381 q 950 358 965 358 l 486 358 l 486 271 l 1040 271 z "},"É":{"ha":1181,"x_min":139,"x_max":1092,"o":"m 564 1160 q 588 1181 578 1176 q 615 1186 597 1185 l 835 1186 q 854 1178 847 1186 q 861 1158 861 1171 q 854 1142 861 1149 l 722 1031 q 683 1021 710 1021 l 667 1021 l 499 1021 q 476 1043 476 1021 q 483 1061 476 1054 l 564 1160 m 1054 271 q 1081 260 1069 271 q 1092 233 1092 249 l 1092 38 q 1081 11 1092 22 q 1054 0 1069 0 l 176 0 q 150 11 161 0 q 139 38 139 22 l 139 935 q 150 961 139 950 q 176 972 161 972 l 1040 972 q 1067 961 1056 972 q 1078 935 1078 950 l 1078 739 q 1067 713 1078 724 q 1040 701 1056 701 l 500 701 l 500 614 l 964 614 q 990 603 979 614 q 1001 576 1001 592 l 1001 396 q 990 369 1001 381 q 964 358 979 358 l 500 358 l 500 271 l 1054 271 z "},"Ĕ":{"ha":1181,"x_min":125,"x_max":1078,"o":"m 660 1169 q 686 1188 669 1188 l 824 1188 q 843 1182 836 1188 q 850 1169 850 1176 q 786 1059 850 1104 q 603 1014 722 1014 q 421 1059 485 1014 q 357 1169 357 1104 q 364 1182 357 1176 q 383 1188 371 1188 l 521 1188 q 547 1169 542 1188 q 563 1146 550 1157 q 603 1135 575 1135 q 642 1144 631 1135 q 660 1169 653 1154 m 1040 271 q 1067 260 1056 271 q 1078 233 1078 249 l 1078 38 q 1067 11 1078 22 q 1040 0 1056 0 l 163 0 q 136 11 147 0 q 125 38 125 22 l 125 935 q 136 961 125 950 q 163 972 147 972 l 1026 972 q 1053 961 1042 972 q 1064 935 1064 950 l 1064 739 q 1053 713 1064 724 q 1026 701 1042 701 l 486 701 l 486 614 l 950 614 q 976 603 965 614 q 988 576 988 592 l 988 396 q 976 369 988 381 q 950 358 965 358 l 486 358 l 486 271 l 1040 271 z "},"Ě":{"ha":1181,"x_min":125,"x_max":1078,"o":"m 669 1171 q 725 1181 700 1181 l 838 1181 q 853 1174 847 1181 q 860 1158 860 1168 q 849 1139 860 1146 l 733 1042 q 698 1021 713 1026 q 668 1015 683 1015 l 513 1015 q 483 1021 497 1015 q 447 1042 468 1026 l 332 1139 q 321 1158 321 1146 q 327 1174 321 1168 q 343 1181 333 1181 l 456 1181 q 511 1171 481 1181 l 590 1140 l 669 1171 m 1040 271 q 1067 260 1056 271 q 1078 233 1078 249 l 1078 38 q 1067 11 1078 22 q 1040 0 1056 0 l 163 0 q 136 11 147 0 q 125 38 125 22 l 125 935 q 136 961 125 950 q 163 972 147 972 l 1026 972 q 1053 961 1042 972 q 1064 935 1064 950 l 1064 739 q 1053 713 1064 724 q 1026 701 1042 701 l 486 701 l 486 614 l 950 614 q 976 603 965 614 q 988 576 988 592 l 988 396 q 976 369 988 381 q 950 358 965 358 l 486 358 l 486 271 l 1040 271 z "},"Ê":{"ha":1181,"x_min":139,"x_max":1092,"o":"m 510 1025 q 454 1015 479 1015 l 342 1015 q 326 1022 332 1015 q 319 1038 319 1028 q 331 1057 319 1050 l 446 1154 q 481 1175 467 1169 q 511 1181 496 1181 l 667 1181 q 697 1175 682 1181 q 732 1154 711 1169 l 847 1057 q 858 1038 858 1050 q 852 1022 858 1028 q 836 1015 846 1015 l 724 1015 q 668 1025 699 1015 l 589 1056 l 510 1025 m 1054 271 q 1081 260 1069 271 q 1092 233 1092 249 l 1092 38 q 1081 11 1092 22 q 1054 0 1069 0 l 176 0 q 150 11 161 0 q 139 38 139 22 l 139 935 q 150 961 139 950 q 176 972 161 972 l 1040 972 q 1067 961 1056 972 q 1078 935 1078 950 l 1078 739 q 1067 713 1078 724 q 1040 701 1056 701 l 500 701 l 500 614 l 964 614 q 990 603 979 614 q 1001 576 1001 592 l 1001 396 q 990 369 1001 381 q 964 358 979 358 l 500 358 l 500 271 l 1054 271 z "},"Ë":{"ha":1181,"x_min":139,"x_max":1092,"o":"m 507 1181 q 530 1172 521 1181 q 539 1149 539 1163 l 539 1047 q 530 1024 539 1033 q 507 1015 521 1015 l 346 1015 q 323 1024 332 1015 q 314 1047 314 1033 l 314 1149 q 323 1172 314 1163 q 346 1181 332 1181 l 507 1181 m 856 1181 q 878 1172 869 1181 q 888 1149 888 1163 l 888 1047 q 878 1024 888 1033 q 856 1015 869 1015 l 694 1015 q 672 1024 681 1015 q 663 1047 663 1033 l 663 1149 q 672 1172 663 1163 q 694 1181 681 1181 l 856 1181 m 1054 271 q 1081 260 1069 271 q 1092 233 1092 249 l 1092 38 q 1081 11 1092 22 q 1054 0 1069 0 l 176 0 q 150 11 161 0 q 139 38 139 22 l 139 935 q 150 961 139 950 q 176 972 161 972 l 1040 972 q 1067 961 1056 972 q 1078 935 1078 950 l 1078 739 q 1067 713 1078 724 q 1040 701 1056 701 l 500 701 l 500 614 l 964 614 q 990 603 979 614 q 1001 576 1001 592 l 1001 396 q 990 369 1001 381 q 964 358 979 358 l 500 358 l 500 271 l 1054 271 z "},"Ė":{"ha":1181,"x_min":125,"x_max":1078,"o":"m 685 1181 q 708 1172 699 1181 q 717 1149 717 1163 l 717 1047 q 708 1024 717 1033 q 685 1015 699 1015 l 496 1015 q 473 1024 482 1015 q 464 1047 464 1033 l 464 1149 q 473 1172 464 1163 q 496 1181 482 1181 l 685 1181 m 1040 271 q 1067 260 1056 271 q 1078 233 1078 249 l 1078 38 q 1067 11 1078 22 q 1040 0 1056 0 l 163 0 q 136 11 147 0 q 125 38 125 22 l 125 935 q 136 961 125 950 q 163 972 147 972 l 1026 972 q 1053 961 1042 972 q 1064 935 1064 950 l 1064 739 q 1053 713 1064 724 q 1026 701 1042 701 l 486 701 l 486 614 l 950 614 q 976 603 965 614 q 988 576 988 592 l 988 396 q 976 369 988 381 q 950 358 965 358 l 486 358 l 486 271 l 1040 271 z "},"È":{"ha":1181,"x_min":139,"x_max":1092,"o":"m 758 1056 q 765 1038 765 1049 q 743 1015 765 1015 l 575 1015 l 558 1015 q 519 1025 532 1015 l 388 1136 q 381 1153 381 1143 q 388 1173 381 1165 q 407 1181 394 1181 l 626 1181 q 654 1175 644 1179 q 678 1154 664 1171 l 758 1056 m 1054 271 q 1081 260 1069 271 q 1092 233 1092 249 l 1092 38 q 1081 11 1092 22 q 1054 0 1069 0 l 176 0 q 150 11 161 0 q 139 38 139 22 l 139 935 q 150 961 139 950 q 176 972 161 972 l 1040 972 q 1067 961 1056 972 q 1078 935 1078 950 l 1078 739 q 1067 713 1078 724 q 1040 701 1056 701 l 500 701 l 500 614 l 964 614 q 990 603 979 614 q 1001 576 1001 592 l 1001 396 q 990 369 1001 381 q 964 358 979 358 l 500 358 l 500 271 l 1054 271 z "},"Ē":{"ha":1181,"x_min":125,"x_max":1078,"o":"m 832 1181 q 855 1172 846 1181 q 864 1149 864 1163 l 864 1047 q 855 1024 864 1033 q 832 1015 846 1015 l 322 1015 q 299 1024 308 1015 q 290 1047 290 1033 l 290 1149 q 299 1172 290 1163 q 322 1181 308 1181 l 832 1181 m 1040 271 q 1067 260 1056 271 q 1078 233 1078 249 l 1078 38 q 1067 11 1078 22 q 1040 0 1056 0 l 163 0 q 136 11 147 0 q 125 38 125 22 l 125 935 q 136 961 125 950 q 163 972 147 972 l 1026 972 q 1053 961 1042 972 q 1064 935 1064 950 l 1064 739 q 1053 713 1064 724 q 1026 701 1042 701 l 486 701 l 486 614 l 950 614 q 976 603 965 614 q 988 576 988 592 l 988 396 q 976 369 988 381 q 950 358 965 358 l 486 358 l 486 271 l 1040 271 z "},"Ę":{"ha":1181,"x_min":125,"x_max":1078,"o":"m 1040 271 q 1067 260 1056 271 q 1078 233 1078 249 l 1078 38 q 1067 11 1078 22 q 1040 0 1056 0 l 1031 0 q 971 -36 971 0 q 1031 -72 971 -72 l 1040 -72 q 1067 -81 1057 -72 q 1078 -107 1078 -90 l 1078 -164 q 1067 -188 1078 -179 q 1040 -197 1057 -197 l 1021 -197 q 860 -156 910 -197 q 810 -36 810 -115 q 813 0 810 -11 l 163 0 q 136 11 147 0 q 125 38 125 22 l 125 935 q 136 961 125 950 q 163 972 147 972 l 1026 972 q 1053 961 1042 972 q 1064 935 1064 950 l 1064 739 q 1053 713 1064 724 q 1026 701 1042 701 l 486 701 l 486 614 l 950 614 q 976 603 965 614 q 988 576 988 592 l 988 396 q 976 369 988 381 q 950 358 965 358 l 486 358 l 486 271 l 1040 271 z "},"F":{"ha":1181,"x_min":139,"x_max":1097,"o":"m 1060 972 q 1086 961 1075 972 q 1097 935 1097 950 l 1097 724 q 1086 697 1097 708 q 1060 686 1075 686 l 514 686 l 514 597 l 969 597 q 996 586 985 597 q 1007 560 1007 575 l 1007 350 q 996 324 1007 335 q 969 313 985 313 l 514 313 l 514 38 q 503 11 514 22 q 476 0 492 0 l 176 0 q 150 11 161 0 q 139 38 139 22 l 139 935 q 150 961 139 950 q 176 972 161 972 l 1060 972 z "},"G":{"ha":1181,"x_min":81,"x_max":1128,"o":"m 1090 586 q 1117 575 1106 586 q 1128 549 1128 564 l 1128 401 q 984 88 1128 190 q 604 -14 840 -14 q 224 88 368 -14 q 81 404 81 190 l 81 568 q 150 803 81 710 q 338 942 219 897 q 604 986 456 986 q 897 928 782 986 q 1065 796 1013 869 q 1117 676 1117 722 q 1108 655 1117 664 q 1086 646 1099 646 l 772 646 q 732 661 744 646 q 604 715 689 715 q 498 686 540 715 q 456 611 456 657 l 456 375 q 497 288 456 319 q 604 257 539 257 q 731 287 690 257 q 774 357 772 317 l 688 357 q 661 368 672 357 q 650 394 650 379 l 650 549 q 661 575 650 564 q 688 586 672 586 l 1090 586 z "},"Ğ":{"ha":1181,"x_min":81,"x_max":1128,"o":"m 646 1169 q 672 1188 656 1188 l 810 1188 q 829 1182 822 1188 q 836 1169 836 1176 q 772 1059 836 1104 q 589 1014 708 1014 q 407 1059 471 1014 q 343 1169 343 1104 q 350 1182 343 1176 q 369 1188 357 1188 l 507 1188 q 533 1169 528 1188 q 549 1146 536 1157 q 589 1135 561 1135 q 628 1144 617 1135 q 646 1169 639 1154 m 1090 586 q 1117 575 1106 586 q 1128 549 1128 564 l 1128 401 q 984 88 1128 190 q 604 -14 840 -14 q 224 88 368 -14 q 81 404 81 190 l 81 568 q 150 803 81 710 q 338 942 219 897 q 604 986 456 986 q 897 928 782 986 q 1065 796 1013 869 q 1117 676 1117 722 q 1108 655 1117 664 q 1086 646 1099 646 l 772 646 q 732 661 744 646 q 604 715 689 715 q 498 686 540 715 q 456 611 456 657 l 456 375 q 497 288 456 319 q 604 257 539 257 q 731 287 690 257 q 774 357 772 317 l 688 357 q 661 368 672 357 q 650 394 650 379 l 650 549 q 661 575 650 564 q 688 586 672 586 l 1090 586 z "},"Ĝ":{"ha":1181,"x_min":81,"x_max":1128,"o":"m 521 1025 q 465 1015 490 1015 l 353 1015 q 337 1022 343 1015 q 331 1038 331 1028 q 342 1057 331 1050 l 457 1154 q 492 1175 478 1169 q 522 1181 507 1181 l 678 1181 q 708 1175 693 1181 q 743 1154 722 1169 l 858 1057 q 869 1038 869 1050 q 863 1022 869 1028 q 847 1015 857 1015 l 735 1015 q 679 1025 710 1015 l 600 1056 l 521 1025 m 1090 586 q 1117 575 1106 586 q 1128 549 1128 564 l 1128 401 q 984 88 1128 190 q 604 -14 840 -14 q 224 88 368 -14 q 81 404 81 190 l 81 568 q 150 803 81 710 q 338 942 219 897 q 604 986 456 986 q 897 928 782 986 q 1065 796 1013 869 q 1117 676 1117 722 q 1108 655 1117 664 q 1086 646 1099 646 l 772 646 q 732 661 744 646 q 604 715 689 715 q 498 686 540 715 q 456 611 456 657 l 456 375 q 497 288 456 319 q 604 257 539 257 q 731 287 690 257 q 774 357 772 317 l 688 357 q 661 368 672 357 q 650 394 650 379 l 650 549 q 661 575 650 564 q 688 586 672 586 l 1090 586 z "},"Ģ":{"ha":1181,"x_min":81,"x_max":1128,"o":"m 1090 586 q 1117 575 1106 586 q 1128 549 1128 564 l 1128 401 q 984 88 1128 190 q 604 -14 840 -14 q 224 88 368 -14 q 81 404 81 190 l 81 568 q 150 803 81 710 q 338 942 219 897 q 604 986 456 986 q 897 928 782 986 q 1065 796 1013 869 q 1117 676 1117 722 q 1108 655 1117 664 q 1086 646 1099 646 l 772 646 q 732 661 744 646 q 604 715 689 715 q 498 686 540 715 q 456 611 456 657 l 456 375 q 497 288 456 319 q 604 257 539 257 q 731 287 690 257 q 774 357 772 317 l 688 357 q 661 368 672 357 q 650 394 650 379 l 650 549 q 661 575 650 564 q 688 586 672 586 l 1090 586 m 449 -69 q 472 -49 463 -53 q 500 -43 482 -44 l 719 -43 q 739 -51 732 -43 q 746 -71 746 -58 q 739 -87 746 -81 l 607 -199 q 568 -208 594 -208 l 551 -208 l 383 -208 q 361 -186 361 -208 q 368 -168 361 -175 l 449 -69 z "},"Ġ":{"ha":1181,"x_min":81,"x_max":1128,"o":"m 685 1181 q 708 1172 699 1181 q 717 1149 717 1163 l 717 1047 q 708 1024 717 1033 q 685 1015 699 1015 l 496 1015 q 473 1024 482 1015 q 464 1047 464 1033 l 464 1149 q 473 1172 464 1163 q 496 1181 482 1181 l 685 1181 m 1090 586 q 1117 575 1106 586 q 1128 549 1128 564 l 1128 401 q 984 88 1128 190 q 604 -14 840 -14 q 224 88 368 -14 q 81 404 81 190 l 81 568 q 150 803 81 710 q 338 942 219 897 q 604 986 456 986 q 897 928 782 986 q 1065 796 1013 869 q 1117 676 1117 722 q 1108 655 1117 664 q 1086 646 1099 646 l 772 646 q 732 661 744 646 q 604 715 689 715 q 498 686 540 715 q 456 611 456 657 l 456 375 q 497 288 456 319 q 604 257 539 257 q 731 287 690 257 q 774 357 772 317 l 688 357 q 661 368 672 357 q 650 394 650 379 l 650 549 q 661 575 650 564 q 688 586 672 586 l 1090 586 z "},"H":{"ha":1181,"x_min":90,"x_max":1090,"o":"m 1053 972 q 1079 961 1068 972 q 1090 935 1090 950 l 1090 38 q 1079 11 1090 22 q 1053 0 1068 0 l 767 0 q 740 11 751 0 q 729 38 729 22 l 729 333 l 451 333 l 451 38 q 440 11 451 22 q 414 0 429 0 l 128 0 q 101 10 113 0 q 90 38 90 21 l 90 935 q 101 961 90 950 q 128 972 113 972 l 414 972 q 440 961 429 972 q 451 935 451 950 l 451 650 l 729 650 l 729 935 q 740 961 729 950 q 767 972 751 972 l 1053 972 z "},"Ħ":{"ha":1181,"x_min":90,"x_max":1090,"o":"m 1053 972 q 1079 961 1068 972 q 1090 935 1090 950 l 1090 38 q 1079 11 1090 22 q 1053 0 1068 0 l 767 0 q 740 11 751 0 q 729 38 729 22 l 729 333 l 451 333 l 451 38 q 440 11 451 22 q 414 0 429 0 l 128 0 q 101 10 113 0 q 90 38 90 21 l 90 935 q 101 961 90 950 q 128 972 113 972 l 414 972 q 440 961 429 972 q 451 935 451 950 l 451 885 l 729 885 l 729 935 q 740 961 729 950 q 767 972 751 972 l 1053 972 m 729 650 l 729 711 l 451 711 l 451 650 l 729 650 z "},"Ĥ":{"ha":1181,"x_min":90,"x_max":1090,"o":"m 507 1025 q 451 1015 476 1015 l 339 1015 q 323 1022 329 1015 q 317 1038 317 1028 q 328 1057 317 1050 l 443 1154 q 478 1175 464 1169 q 508 1181 493 1181 l 664 1181 q 694 1175 679 1181 q 729 1154 708 1169 l 844 1057 q 856 1038 856 1050 q 849 1022 856 1028 q 833 1015 843 1015 l 721 1015 q 665 1025 696 1015 l 586 1056 l 507 1025 m 1053 972 q 1079 961 1068 972 q 1090 935 1090 950 l 1090 38 q 1079 11 1090 22 q 1053 0 1068 0 l 767 0 q 740 11 751 0 q 729 38 729 22 l 729 333 l 451 333 l 451 38 q 440 11 451 22 q 414 0 429 0 l 128 0 q 101 10 113 0 q 90 38 90 21 l 90 935 q 101 961 90 950 q 128 972 113 972 l 414 972 q 440 961 429 972 q 451 935 451 950 l 451 650 l 729 650 l 729 935 q 740 961 729 950 q 767 972 751 972 l 1053 972 z "},"I":{"ha":1181,"x_min":113,"x_max":1068,"o":"m 779 285 l 1031 285 q 1057 274 1046 285 q 1068 247 1068 263 l 1068 38 q 1057 11 1068 22 q 1031 0 1046 0 l 150 0 q 124 11 135 0 q 113 38 113 22 l 113 247 q 124 274 113 263 q 150 285 135 285 l 404 285 l 404 688 l 150 688 q 124 699 135 688 q 113 725 113 710 l 113 935 q 124 961 113 950 q 150 972 135 972 l 1031 972 q 1057 961 1046 972 q 1068 935 1068 950 l 1068 725 q 1057 699 1068 710 q 1031 688 1046 688 l 779 688 l 779 285 z "},"Í":{"ha":1181,"x_min":113,"x_max":1068,"o":"m 565 1154 q 589 1175 579 1171 q 617 1181 599 1179 l 836 1181 q 856 1173 849 1181 q 863 1153 863 1165 q 856 1136 863 1143 l 724 1025 q 685 1015 711 1015 l 668 1015 l 500 1015 q 478 1038 478 1015 q 485 1056 478 1049 l 565 1154 m 779 285 l 1031 285 q 1057 274 1046 285 q 1068 247 1068 263 l 1068 38 q 1057 11 1068 22 q 1031 0 1046 0 l 150 0 q 124 11 135 0 q 113 38 113 22 l 113 247 q 124 274 113 263 q 150 285 135 285 l 404 285 l 404 688 l 150 688 q 124 699 135 688 q 113 725 113 710 l 113 935 q 124 961 113 950 q 150 972 135 972 l 1031 972 q 1057 961 1046 972 q 1068 935 1068 950 l 1068 725 q 1057 699 1068 710 q 1031 688 1046 688 l 779 688 l 779 285 z "},"Ĭ":{"ha":1181,"x_min":113,"x_max":1068,"o":"m 647 1169 q 674 1188 657 1188 l 811 1188 q 831 1182 824 1188 q 838 1169 838 1176 q 774 1059 838 1104 q 590 1014 710 1014 q 408 1059 472 1014 q 344 1169 344 1104 q 351 1182 344 1176 q 371 1188 358 1188 l 508 1188 q 535 1169 529 1188 q 550 1146 538 1157 q 590 1135 563 1135 q 629 1144 618 1135 q 647 1169 640 1154 m 779 285 l 1031 285 q 1057 274 1046 285 q 1068 247 1068 263 l 1068 38 q 1057 11 1068 22 q 1031 0 1046 0 l 150 0 q 124 11 135 0 q 113 38 113 22 l 113 247 q 124 274 113 263 q 150 285 135 285 l 404 285 l 404 688 l 150 688 q 124 699 135 688 q 113 725 113 710 l 113 935 q 124 961 113 950 q 150 972 135 972 l 1031 972 q 1057 961 1046 972 q 1068 935 1068 950 l 1068 725 q 1057 699 1068 710 q 1031 688 1046 688 l 779 688 l 779 285 z "},"Î":{"ha":1181,"x_min":113,"x_max":1068,"o":"m 511 1025 q 456 1015 481 1015 l 343 1015 q 327 1022 333 1015 q 321 1038 321 1028 q 332 1057 321 1050 l 447 1154 q 483 1175 468 1169 q 513 1181 497 1181 l 668 1181 q 698 1175 683 1181 q 733 1154 713 1169 l 849 1057 q 860 1038 860 1050 q 853 1022 860 1028 q 838 1015 847 1015 l 725 1015 q 669 1025 700 1015 l 590 1056 l 511 1025 m 779 285 l 1031 285 q 1057 274 1046 285 q 1068 247 1068 263 l 1068 38 q 1057 11 1068 22 q 1031 0 1046 0 l 150 0 q 124 11 135 0 q 113 38 113 22 l 113 247 q 124 274 113 263 q 150 285 135 285 l 404 285 l 404 688 l 150 688 q 124 699 135 688 q 113 725 113 710 l 113 935 q 124 961 113 950 q 150 972 135 972 l 1031 972 q 1057 961 1046 972 q 1068 935 1068 950 l 1068 725 q 1057 699 1068 710 q 1031 688 1046 688 l 779 688 l 779 285 z "},"Ï":{"ha":1181,"x_min":113,"x_max":1068,"o":"m 496 1181 q 519 1172 510 1181 q 528 1149 528 1163 l 528 1047 q 519 1024 528 1033 q 496 1015 510 1015 l 335 1015 q 312 1024 321 1015 q 303 1047 303 1033 l 303 1149 q 312 1172 303 1163 q 335 1181 321 1181 l 496 1181 m 844 1181 q 867 1172 858 1181 q 876 1149 876 1163 l 876 1047 q 867 1024 876 1033 q 844 1015 858 1015 l 683 1015 q 660 1024 669 1015 q 651 1047 651 1033 l 651 1149 q 660 1172 651 1163 q 683 1181 669 1181 l 844 1181 m 779 285 l 1031 285 q 1057 274 1046 285 q 1068 247 1068 263 l 1068 38 q 1057 11 1068 22 q 1031 0 1046 0 l 150 0 q 124 11 135 0 q 113 38 113 22 l 113 247 q 124 274 113 263 q 150 285 135 285 l 404 285 l 404 688 l 150 688 q 124 699 135 688 q 113 725 113 710 l 113 935 q 124 961 113 950 q 150 972 135 972 l 1031 972 q 1057 961 1046 972 q 1068 935 1068 950 l 1068 725 q 1057 699 1068 710 q 1031 688 1046 688 l 779 688 l 779 285 z "},"İ":{"ha":1181,"x_min":113,"x_max":1068,"o":"m 685 1181 q 708 1172 699 1181 q 717 1149 717 1163 l 717 1047 q 708 1024 717 1033 q 685 1015 699 1015 l 496 1015 q 473 1024 482 1015 q 464 1047 464 1033 l 464 1149 q 473 1172 464 1163 q 496 1181 482 1181 l 685 1181 m 779 285 l 1031 285 q 1057 274 1046 285 q 1068 247 1068 263 l 1068 38 q 1057 11 1068 22 q 1031 0 1046 0 l 150 0 q 124 11 135 0 q 113 38 113 22 l 113 247 q 124 274 113 263 q 150 285 135 285 l 404 285 l 404 688 l 150 688 q 124 699 135 688 q 113 725 113 710 l 113 935 q 124 961 113 950 q 150 972 135 972 l 1031 972 q 1057 961 1046 972 q 1068 935 1068 950 l 1068 725 q 1057 699 1068 710 q 1031 688 1046 688 l 779 688 l 779 285 z "},"Ì":{"ha":1181,"x_min":113,"x_max":1068,"o":"m 739 1056 q 746 1038 746 1049 q 724 1015 746 1015 l 556 1015 l 539 1015 q 500 1025 513 1015 l 368 1136 q 361 1153 361 1143 q 368 1173 361 1165 q 388 1181 375 1181 l 607 1181 q 635 1175 625 1179 q 658 1154 644 1171 l 739 1056 m 779 285 l 1031 285 q 1057 274 1046 285 q 1068 247 1068 263 l 1068 38 q 1057 11 1068 22 q 1031 0 1046 0 l 150 0 q 124 11 135 0 q 113 38 113 22 l 113 247 q 124 274 113 263 q 150 285 135 285 l 404 285 l 404 688 l 150 688 q 124 699 135 688 q 113 725 113 710 l 113 935 q 124 961 113 950 q 150 972 135 972 l 1031 972 q 1057 961 1046 972 q 1068 935 1068 950 l 1068 725 q 1057 699 1068 710 q 1031 688 1046 688 l 779 688 l 779 285 z "},"Į":{"ha":1181,"x_min":113,"x_max":1068,"o":"m 779 285 l 1031 285 q 1057 274 1046 285 q 1068 247 1068 263 l 1068 38 q 1057 11 1068 22 q 1031 0 1046 0 l 1021 0 q 961 -36 961 0 q 1021 -72 961 -72 l 1031 -72 q 1058 -81 1047 -72 q 1068 -107 1068 -90 l 1068 -164 q 1058 -188 1068 -179 q 1031 -197 1047 -197 l 1011 -197 q 850 -156 900 -197 q 800 -36 800 -115 q 803 0 800 -11 l 150 0 q 124 11 135 0 q 113 38 113 22 l 113 247 q 124 274 113 263 q 150 285 135 285 l 404 285 l 404 688 l 150 688 q 124 699 135 688 q 113 725 113 710 l 113 935 q 124 961 113 950 q 150 972 135 972 l 1031 972 q 1057 961 1046 972 q 1068 935 1068 950 l 1068 725 q 1057 699 1068 710 q 1031 688 1046 688 l 779 688 l 779 285 z "},"Ĩ":{"ha":1181,"x_min":113,"x_max":1068,"o":"m 676 1014 q 583 1033 633 1014 q 563 1041 581 1035 q 526 1047 544 1047 q 486 1033 503 1047 q 457 1021 474 1021 l 340 1021 q 322 1028 329 1021 q 314 1046 314 1036 q 331 1103 314 1069 q 391 1162 349 1136 q 503 1188 433 1188 q 596 1168 546 1188 q 617 1160 599 1167 q 653 1154 635 1154 q 692 1168 675 1154 q 706 1178 700 1175 q 722 1181 713 1181 l 839 1181 q 858 1173 851 1181 q 865 1154 865 1165 q 848 1098 865 1131 q 788 1040 831 1065 q 676 1014 746 1014 m 779 285 l 1031 285 q 1057 274 1046 285 q 1068 247 1068 263 l 1068 38 q 1057 11 1068 22 q 1031 0 1046 0 l 150 0 q 124 11 135 0 q 113 38 113 22 l 113 247 q 124 274 113 263 q 150 285 135 285 l 404 285 l 404 688 l 150 688 q 124 699 135 688 q 113 725 113 710 l 113 935 q 124 961 113 950 q 150 972 135 972 l 1031 972 q 1057 961 1046 972 q 1068 935 1068 950 l 1068 725 q 1057 699 1068 710 q 1031 688 1046 688 l 779 688 l 779 285 z "},"J":{"ha":1181,"x_min":38,"x_max":1067,"o":"m 1067 404 q 928 90 1067 193 q 557 -14 789 -14 q 273 40 390 -14 q 97 175 156 93 q 38 340 38 257 q 47 362 38 353 q 68 371 56 371 l 382 371 q 403 363 394 371 q 417 340 413 354 q 550 257 443 257 q 653 288 615 257 q 692 375 692 318 l 692 688 l 185 688 q 158 699 169 688 q 147 725 147 710 l 147 935 q 158 961 147 950 q 185 972 169 972 l 1029 972 q 1056 961 1044 972 q 1067 935 1067 950 l 1067 404 z "},"Ĵ":{"ha":1181,"x_min":38,"x_max":1067,"o":"m 525 1025 q 469 1015 494 1015 l 357 1015 q 341 1022 347 1015 q 335 1038 335 1028 q 346 1057 335 1050 l 461 1154 q 497 1175 482 1169 q 526 1181 511 1181 l 682 1181 q 712 1175 697 1181 q 747 1154 726 1169 l 863 1057 q 874 1038 874 1050 q 867 1022 874 1028 q 851 1015 861 1015 l 739 1015 q 683 1025 714 1015 l 604 1056 l 525 1025 m 1067 404 q 928 90 1067 193 q 557 -14 789 -14 q 273 40 390 -14 q 97 175 156 93 q 38 340 38 257 q 47 362 38 353 q 68 371 56 371 l 382 371 q 403 363 394 371 q 417 340 413 354 q 550 257 443 257 q 653 288 615 257 q 692 375 692 318 l 692 688 l 185 688 q 158 699 169 688 q 147 725 147 710 l 147 935 q 158 961 147 950 q 185 972 169 972 l 1029 972 q 1056 961 1044 972 q 1067 935 1067 950 l 1067 404 z "},"K":{"ha":1181,"x_min":128,"x_max":1169,"o":"m 1164 49 q 1169 31 1169 40 q 1160 9 1169 18 q 1139 0 1151 0 l 781 0 q 731 22 749 0 l 489 321 l 489 38 q 478 11 489 22 q 451 0 467 0 l 165 0 q 139 11 150 0 q 128 38 128 22 l 128 935 q 139 961 128 950 q 165 972 150 972 l 451 972 q 478 961 467 972 q 489 935 489 950 l 489 674 l 708 949 q 760 972 729 972 l 1094 972 q 1116 963 1107 972 q 1125 942 1125 954 q 1118 922 1125 931 l 789 521 l 1164 49 z "},"Ķ":{"ha":1181,"x_min":128,"x_max":1169,"o":"m 1164 49 q 1169 31 1169 40 q 1160 9 1169 18 q 1139 0 1151 0 l 781 0 q 731 22 749 0 l 489 321 l 489 38 q 478 11 489 22 q 451 0 467 0 l 165 0 q 139 11 150 0 q 128 38 128 22 l 128 935 q 139 961 128 950 q 165 972 150 972 l 451 972 q 478 961 467 972 q 489 935 489 950 l 489 674 l 708 949 q 760 972 729 972 l 1094 972 q 1116 963 1107 972 q 1125 942 1125 954 q 1118 922 1125 931 l 789 521 l 1164 49 m 443 -69 q 467 -49 457 -53 q 494 -43 476 -44 l 714 -43 q 733 -51 726 -43 q 740 -71 740 -58 q 733 -87 740 -81 l 601 -199 q 563 -208 589 -208 l 546 -208 l 378 -208 q 356 -186 356 -208 q 363 -168 356 -175 l 443 -69 z "},"L":{"ha":1181,"x_min":194,"x_max":1081,"o":"m 1043 285 q 1069 274 1058 285 q 1081 247 1081 263 l 1081 38 q 1069 11 1081 22 q 1043 0 1058 0 l 232 0 q 206 11 217 0 q 194 38 194 22 l 194 935 q 206 961 194 950 q 232 972 217 972 l 532 972 q 558 961 547 972 q 569 935 569 950 l 569 285 l 1043 285 z "},"Ĺ":{"ha":1181,"x_min":194,"x_max":1081,"o":"m 333 1154 q 357 1175 347 1171 q 385 1181 367 1179 l 604 1181 q 624 1173 617 1181 q 631 1153 631 1165 q 624 1136 631 1143 l 492 1025 q 453 1015 479 1015 l 436 1015 l 268 1015 q 246 1038 246 1015 q 253 1056 246 1049 l 333 1154 m 1043 285 q 1069 274 1058 285 q 1081 247 1081 263 l 1081 38 q 1069 11 1081 22 q 1043 0 1058 0 l 232 0 q 206 11 217 0 q 194 38 194 22 l 194 935 q 206 961 194 950 q 232 972 217 972 l 532 972 q 558 961 547 972 q 569 935 569 950 l 569 285 l 1043 285 z "},"Ľ":{"ha":1181,"x_min":194,"x_max":1081,"o":"m 706 933 q 727 971 708 954 q 772 988 746 988 l 960 988 q 981 978 972 988 q 990 957 990 969 q 989 947 990 951 l 876 753 q 813 708 850 708 l 704 708 q 683 717 692 708 q 674 739 674 726 l 674 742 l 706 933 m 1043 285 q 1069 274 1058 285 q 1081 247 1081 263 l 1081 38 q 1069 11 1081 22 q 1043 0 1058 0 l 232 0 q 206 11 217 0 q 194 38 194 22 l 194 935 q 206 961 194 950 q 232 972 217 972 l 532 972 q 558 961 547 972 q 569 935 569 950 l 569 285 l 1043 285 z "},"Ļ":{"ha":1181,"x_min":194,"x_max":1081,"o":"m 1043 285 q 1069 274 1058 285 q 1081 247 1081 263 l 1081 38 q 1069 11 1081 22 q 1043 0 1058 0 l 232 0 q 206 11 217 0 q 194 38 194 22 l 194 935 q 206 961 194 950 q 232 972 217 972 l 532 972 q 558 961 547 972 q 569 935 569 950 l 569 285 l 1043 285 m 474 -69 q 497 -49 488 -53 q 525 -43 507 -44 l 744 -43 q 764 -51 757 -43 q 771 -71 771 -58 q 764 -87 771 -81 l 632 -199 q 593 -208 619 -208 l 576 -208 l 408 -208 q 386 -186 386 -208 q 393 -168 386 -175 l 474 -69 z "},"Ŀ":{"ha":1181,"x_min":194,"x_max":1081,"o":"m 1043 285 q 1069 274 1058 285 q 1081 247 1081 263 l 1081 38 q 1069 11 1081 22 q 1043 0 1058 0 l 232 0 q 206 11 217 0 q 194 38 194 22 l 194 935 q 206 961 194 950 q 232 972 217 972 l 532 972 q 558 961 547 972 q 569 935 569 950 l 569 285 l 1043 285 m 894 689 q 917 680 908 689 q 926 657 926 671 l 926 468 q 917 445 926 454 q 894 436 908 436 l 706 436 q 683 445 692 436 q 674 468 674 454 l 674 657 q 683 680 674 671 q 706 689 692 689 l 894 689 z "},"Ł":{"ha":1181,"x_min":118,"x_max":1081,"o":"m 1043 285 q 1069 274 1058 285 q 1081 247 1081 263 l 1081 38 q 1069 11 1081 22 q 1043 0 1058 0 l 232 0 q 206 11 217 0 q 194 38 194 22 l 194 301 l 163 289 q 147 285 153 285 q 126 293 135 285 q 118 314 118 301 l 118 464 q 125 494 118 483 q 149 510 132 504 l 194 528 l 194 935 q 206 961 194 950 q 232 972 217 972 l 532 972 q 558 961 547 972 q 569 935 569 950 l 569 676 l 811 774 q 826 778 822 778 q 847 769 839 778 q 856 749 856 761 l 856 599 q 849 570 856 581 q 825 553 842 560 l 569 450 l 569 285 l 1043 285 z "},"M":{"ha":1181,"x_min":57,"x_max":1124,"o":"m 772 935 q 832 972 793 972 l 1086 972 q 1113 961 1101 972 q 1124 935 1124 950 l 1124 38 q 1113 11 1124 22 q 1086 0 1101 0 l 835 0 q 808 11 819 0 q 797 38 797 22 l 797 468 l 696 268 q 676 246 692 258 q 638 233 661 233 l 543 233 q 504 246 519 233 q 485 268 489 258 l 383 468 l 383 38 q 372 11 383 22 q 346 0 361 0 l 94 0 q 68 11 79 0 q 57 38 57 22 l 57 935 q 68 961 57 950 q 94 972 79 972 l 349 972 q 408 935 388 972 l 590 601 l 772 935 z "},"N":{"ha":1181,"x_min":110,"x_max":1063,"o":"m 1025 972 q 1051 961 1040 972 q 1063 935 1063 950 l 1063 38 q 1051 11 1063 22 q 1025 0 1040 0 l 801 0 q 746 29 768 0 l 443 415 l 443 38 q 432 11 443 22 q 406 0 421 0 l 147 0 q 121 11 132 0 q 110 38 110 22 l 110 935 q 121 961 110 950 q 147 972 132 972 l 372 972 q 426 944 406 972 l 729 526 l 729 935 q 740 961 729 950 q 767 972 751 972 l 1025 972 z "},"Ń":{"ha":1181,"x_min":110,"x_max":1063,"o":"m 540 1154 q 564 1175 554 1171 q 592 1181 574 1179 l 811 1181 q 831 1173 824 1181 q 838 1153 838 1165 q 831 1136 838 1143 l 699 1025 q 660 1015 686 1015 l 643 1015 l 475 1015 q 453 1038 453 1015 q 460 1056 453 1049 l 540 1154 m 1025 972 q 1051 961 1040 972 q 1063 935 1063 950 l 1063 38 q 1051 11 1063 22 q 1025 0 1040 0 l 801 0 q 746 29 768 0 l 443 415 l 443 38 q 432 11 443 22 q 406 0 421 0 l 147 0 q 121 11 132 0 q 110 38 110 22 l 110 935 q 121 961 110 950 q 147 972 132 972 l 372 972 q 426 944 406 972 l 729 526 l 729 935 q 740 961 729 950 q 767 972 751 972 l 1025 972 z "},"Ň":{"ha":1181,"x_min":110,"x_max":1063,"o":"m 669 1171 q 725 1181 700 1181 l 838 1181 q 853 1174 847 1181 q 860 1158 860 1168 q 849 1139 860 1146 l 733 1042 q 698 1021 713 1026 q 668 1015 683 1015 l 513 1015 q 483 1021 497 1015 q 447 1042 468 1026 l 332 1139 q 321 1158 321 1146 q 327 1174 321 1168 q 343 1181 333 1181 l 456 1181 q 511 1171 481 1181 l 590 1140 l 669 1171 m 1025 972 q 1051 961 1040 972 q 1063 935 1063 950 l 1063 38 q 1051 11 1063 22 q 1025 0 1040 0 l 801 0 q 746 29 768 0 l 443 415 l 443 38 q 432 11 443 22 q 406 0 421 0 l 147 0 q 121 11 132 0 q 110 38 110 22 l 110 935 q 121 961 110 950 q 147 972 132 972 l 372 972 q 426 944 406 972 l 729 526 l 729 935 q 740 961 729 950 q 767 972 751 972 l 1025 972 z "},"Ņ":{"ha":1181,"x_min":110,"x_max":1063,"o":"m 1025 972 q 1051 961 1040 972 q 1063 935 1063 950 l 1063 38 q 1051 11 1063 22 q 1025 0 1040 0 l 801 0 q 746 29 768 0 l 443 415 l 443 38 q 432 11 443 22 q 406 0 421 0 l 147 0 q 121 11 132 0 q 110 38 110 22 l 110 935 q 121 961 110 950 q 147 972 132 972 l 372 972 q 426 944 406 972 l 729 526 l 729 935 q 740 961 729 950 q 767 972 751 972 l 1025 972 m 443 -69 q 467 -49 457 -53 q 494 -43 476 -44 l 714 -43 q 733 -51 726 -43 q 740 -71 740 -58 q 733 -87 740 -81 l 601 -199 q 563 -208 589 -208 l 546 -208 l 378 -208 q 356 -186 356 -208 q 363 -168 356 -175 l 443 -69 z "},"Ŋ":{"ha":1181,"x_min":110,"x_max":1063,"o":"m 618 -54 q 696 -21 667 -47 q 728 50 725 6 l 443 415 l 443 38 q 432 11 443 22 q 406 0 421 0 l 147 0 q 121 11 132 0 q 110 38 110 22 l 110 935 q 121 961 110 950 q 147 972 132 972 l 372 972 q 426 944 406 972 l 729 526 l 729 935 q 740 961 729 950 q 767 972 751 972 l 1025 972 q 1051 961 1040 972 q 1063 935 1063 950 l 1063 150 q 961 -131 1063 -53 q 685 -208 860 -208 l 588 -208 q 561 -197 572 -208 q 550 -171 550 -186 l 550 -93 q 561 -67 550 -78 q 588 -56 572 -56 l 618 -54 z "},"Ñ":{"ha":1181,"x_min":110,"x_max":1063,"o":"m 681 1018 q 588 1038 638 1018 q 567 1045 585 1039 q 531 1051 549 1051 q 482 1035 494 1051 q 461 1022 475 1022 l 344 1022 q 326 1030 333 1022 q 318 1047 318 1038 q 335 1105 318 1071 q 395 1165 353 1139 q 507 1192 438 1192 q 600 1172 550 1192 q 621 1165 603 1171 q 657 1158 639 1158 q 706 1175 694 1158 q 726 1188 713 1188 l 843 1188 q 863 1180 856 1188 q 869 1161 869 1172 q 852 1104 869 1138 q 792 1044 835 1071 q 681 1018 750 1018 m 1025 972 q 1051 961 1040 972 q 1063 935 1063 950 l 1063 38 q 1051 11 1063 22 q 1025 0 1040 0 l 801 0 q 746 29 768 0 l 443 415 l 443 38 q 432 11 443 22 q 406 0 421 0 l 147 0 q 121 11 132 0 q 110 38 110 22 l 110 935 q 121 961 110 950 q 147 972 132 972 l 372 972 q 426 944 406 972 l 729 526 l 729 935 q 740 961 729 950 q 767 972 751 972 l 1025 972 z "},"O":{"ha":1181,"x_min":74,"x_max":1107,"o":"m 1107 401 q 966 88 1107 189 q 590 -14 825 -14 q 215 88 356 -14 q 74 404 74 189 l 74 568 q 141 803 74 710 q 325 942 208 897 q 590 986 442 986 q 855 942 739 986 q 1039 804 971 897 q 1107 571 1107 711 l 1107 401 m 449 375 q 487 288 449 318 q 590 257 525 257 q 694 288 656 257 q 732 376 732 319 l 732 596 q 694 684 732 653 q 590 715 656 715 q 487 685 525 715 q 449 597 449 654 l 449 375 z "},"Ó":{"ha":1181,"x_min":74,"x_max":1107,"o":"m 538 1154 q 561 1175 551 1171 q 589 1181 571 1179 l 808 1181 q 828 1173 821 1181 q 835 1153 835 1165 q 828 1136 835 1143 l 696 1025 q 657 1015 683 1015 l 640 1015 l 472 1015 q 450 1038 450 1015 q 457 1056 450 1049 l 538 1154 m 1107 401 q 966 88 1107 189 q 590 -14 825 -14 q 215 88 356 -14 q 74 404 74 189 l 74 568 q 141 803 74 710 q 325 942 208 897 q 590 986 442 986 q 855 942 739 986 q 1039 804 971 897 q 1107 571 1107 711 l 1107 401 m 449 375 q 487 288 449 318 q 590 257 525 257 q 694 288 656 257 q 732 376 732 319 l 732 596 q 694 684 732 653 q 590 715 656 715 q 487 685 525 715 q 449 597 449 654 l 449 375 z "},"Ŏ":{"ha":1181,"x_min":74,"x_max":1107,"o":"m 644 1169 q 671 1188 654 1188 l 808 1188 q 828 1182 821 1188 q 835 1169 835 1176 q 771 1059 835 1104 q 588 1014 707 1014 q 406 1059 469 1014 q 342 1169 342 1104 q 349 1182 342 1176 q 368 1188 356 1188 l 506 1188 q 532 1169 526 1188 q 547 1146 535 1157 q 588 1135 560 1135 q 626 1144 615 1135 q 644 1169 638 1154 m 1107 401 q 966 88 1107 189 q 590 -14 825 -14 q 215 88 356 -14 q 74 404 74 189 l 74 568 q 141 803 74 710 q 325 942 208 897 q 590 986 442 986 q 855 942 739 986 q 1039 804 971 897 q 1107 571 1107 711 l 1107 401 m 449 375 q 487 288 449 318 q 590 257 525 257 q 694 288 656 257 q 732 376 732 319 l 732 596 q 694 684 732 653 q 590 715 656 715 q 487 685 525 715 q 449 597 449 654 l 449 375 z "},"Ô":{"ha":1181,"x_min":74,"x_max":1107,"o":"m 513 1025 q 457 1015 482 1015 l 344 1015 q 328 1022 335 1015 q 322 1038 322 1028 q 333 1057 322 1050 l 449 1154 q 484 1175 469 1169 q 514 1181 499 1181 l 669 1181 q 699 1175 685 1181 q 735 1154 714 1169 l 850 1057 q 861 1038 861 1050 q 855 1022 861 1028 q 839 1015 849 1015 l 726 1015 q 671 1025 701 1015 l 592 1056 l 513 1025 m 1107 401 q 966 88 1107 189 q 590 -14 825 -14 q 215 88 356 -14 q 74 404 74 189 l 74 568 q 141 803 74 710 q 325 942 208 897 q 590 986 442 986 q 855 942 739 986 q 1039 804 971 897 q 1107 571 1107 711 l 1107 401 m 449 375 q 487 288 449 318 q 590 257 525 257 q 694 288 656 257 q 732 376 732 319 l 732 596 q 694 684 732 653 q 590 715 656 715 q 487 685 525 715 q 449 597 449 654 l 449 375 z "},"Ö":{"ha":1181,"x_min":74,"x_max":1107,"o":"m 497 1186 q 520 1177 511 1186 q 529 1154 529 1168 l 529 1053 q 520 1030 529 1039 q 497 1021 511 1021 l 336 1021 q 313 1030 322 1021 q 304 1053 304 1039 l 304 1154 q 313 1177 304 1168 q 336 1186 322 1186 l 497 1186 m 846 1186 q 869 1177 860 1186 q 878 1154 878 1168 l 878 1053 q 869 1030 878 1039 q 846 1021 860 1021 l 685 1021 q 662 1030 671 1021 q 653 1053 653 1039 l 653 1154 q 662 1177 653 1168 q 685 1186 671 1186 l 846 1186 m 1107 401 q 966 88 1107 189 q 590 -14 825 -14 q 215 88 356 -14 q 74 404 74 189 l 74 568 q 141 803 74 710 q 325 942 208 897 q 590 986 442 986 q 855 942 739 986 q 1039 804 971 897 q 1107 571 1107 711 l 1107 401 m 449 375 q 487 288 449 318 q 590 257 525 257 q 694 288 656 257 q 732 376 732 319 l 732 596 q 694 684 732 653 q 590 715 656 715 q 487 685 525 715 q 449 597 449 654 l 449 375 z "},"Ò":{"ha":1181,"x_min":74,"x_max":1107,"o":"m 718 1056 q 725 1038 725 1049 q 703 1015 725 1015 l 535 1015 l 518 1015 q 479 1025 492 1015 l 347 1136 q 340 1153 340 1143 q 347 1173 340 1165 q 367 1181 354 1181 l 586 1181 q 614 1175 604 1179 q 638 1154 624 1171 l 718 1056 m 1107 401 q 966 88 1107 189 q 590 -14 825 -14 q 215 88 356 -14 q 74 404 74 189 l 74 568 q 141 803 74 710 q 325 942 208 897 q 590 986 442 986 q 855 942 739 986 q 1039 804 971 897 q 1107 571 1107 711 l 1107 401 m 449 375 q 487 288 449 318 q 590 257 525 257 q 694 288 656 257 q 732 376 732 319 l 732 596 q 694 684 732 653 q 590 715 656 715 q 487 685 525 715 q 449 597 449 654 l 449 375 z "},"Ő":{"ha":1181,"x_min":74,"x_max":1107,"o":"m 401 1154 q 425 1175 415 1171 q 453 1181 435 1179 l 644 1181 q 664 1173 657 1181 q 671 1153 671 1165 q 664 1136 671 1143 l 560 1025 q 521 1015 547 1015 l 504 1015 l 364 1015 q 342 1038 342 1015 q 349 1056 342 1042 l 401 1154 m 725 1154 q 749 1175 739 1171 q 776 1181 758 1179 l 968 1181 q 988 1173 981 1181 q 994 1153 994 1165 q 988 1136 994 1143 l 883 1025 q 844 1015 871 1015 l 828 1015 l 688 1015 q 665 1038 665 1015 q 672 1056 665 1042 l 725 1154 m 1107 401 q 966 88 1107 189 q 590 -14 825 -14 q 215 88 356 -14 q 74 404 74 189 l 74 568 q 141 803 74 710 q 325 942 208 897 q 590 986 442 986 q 855 942 739 986 q 1039 804 971 897 q 1107 571 1107 711 l 1107 401 m 449 375 q 487 288 449 318 q 590 257 525 257 q 694 288 656 257 q 732 376 732 319 l 732 596 q 694 684 732 653 q 590 715 656 715 q 487 685 525 715 q 449 597 449 654 l 449 375 z "},"Ō":{"ha":1181,"x_min":74,"x_max":1107,"o":"m 846 1181 q 869 1172 860 1181 q 878 1149 878 1163 l 878 1047 q 869 1024 878 1033 q 846 1015 860 1015 l 336 1015 q 313 1024 322 1015 q 304 1047 304 1033 l 304 1149 q 313 1172 304 1163 q 336 1181 322 1181 l 846 1181 m 1107 401 q 966 88 1107 189 q 590 -14 825 -14 q 215 88 356 -14 q 74 404 74 189 l 74 568 q 141 803 74 710 q 325 942 208 897 q 590 986 442 986 q 855 942 739 986 q 1039 804 971 897 q 1107 571 1107 711 l 1107 401 m 449 375 q 487 288 449 318 q 590 257 525 257 q 694 288 656 257 q 732 376 732 319 l 732 596 q 694 684 732 653 q 590 715 656 715 q 487 685 525 715 q 449 597 449 654 l 449 375 z "},"Ø":{"ha":1181,"x_min":0,"x_max":1181,"o":"m 1107 401 q 966 88 1107 189 q 590 -14 825 -14 q 304 36 425 -14 q 124 192 183 86 l 44 161 q 29 157 33 157 q 8 165 17 157 q 0 186 0 174 l 0 336 q 7 366 0 356 q 31 382 14 376 l 74 399 l 74 569 q 141 805 74 711 q 325 943 208 899 q 590 988 442 988 q 871 936 749 988 q 1054 782 993 885 l 1136 814 q 1151 818 1147 818 q 1172 810 1164 818 q 1181 789 1181 801 l 1181 639 q 1174 610 1181 621 q 1150 593 1167 600 l 1107 576 l 1107 401 m 719 651 q 671 700 704 683 q 590 717 638 717 q 487 686 525 717 q 449 599 449 656 l 449 544 l 719 651 m 590 257 q 694 288 656 257 q 732 376 732 319 l 732 429 l 460 322 q 508 274 474 290 q 590 257 543 257 z "},"Ǿ":{"ha":1181,"x_min":0,"x_max":1181,"o":"m 540 1154 q 564 1175 554 1171 q 592 1181 574 1179 l 811 1181 q 831 1173 824 1181 q 838 1153 838 1165 q 831 1136 838 1143 l 699 1025 q 660 1015 686 1015 l 643 1015 l 475 1015 q 453 1038 453 1015 q 460 1056 453 1049 l 540 1154 m 1107 401 q 966 88 1107 189 q 590 -14 825 -14 q 304 36 425 -14 q 124 192 183 86 l 44 161 q 29 157 33 157 q 8 165 17 157 q 0 186 0 174 l 0 336 q 7 366 0 356 q 31 382 14 376 l 74 399 l 74 569 q 141 805 74 711 q 325 943 208 899 q 590 988 442 988 q 871 936 749 988 q 1054 782 993 885 l 1136 814 q 1151 818 1147 818 q 1172 810 1164 818 q 1181 789 1181 801 l 1181 639 q 1174 610 1181 621 q 1150 593 1167 600 l 1107 576 l 1107 401 m 719 651 q 671 700 704 683 q 590 717 638 717 q 487 686 525 717 q 449 599 449 656 l 449 544 l 719 651 m 590 257 q 694 288 656 257 q 732 376 732 319 l 732 429 l 460 322 q 508 274 474 290 q 590 257 543 257 z "},"Õ":{"ha":1181,"x_min":74,"x_max":1107,"o":"m 686 1018 q 593 1038 643 1018 q 572 1045 590 1039 q 536 1051 554 1051 q 488 1035 500 1051 q 467 1022 481 1022 l 350 1022 q 331 1030 339 1022 q 324 1047 324 1038 q 341 1105 324 1071 q 401 1165 358 1139 q 513 1192 443 1192 q 606 1172 556 1192 q 626 1165 608 1171 q 663 1158 644 1158 q 711 1175 700 1158 q 732 1188 718 1188 l 849 1188 q 868 1180 861 1188 q 875 1161 875 1172 q 858 1104 875 1138 q 798 1044 840 1071 q 686 1018 756 1018 m 1107 401 q 966 88 1107 189 q 590 -14 825 -14 q 215 88 356 -14 q 74 404 74 189 l 74 568 q 141 803 74 710 q 325 942 208 897 q 590 986 442 986 q 855 942 739 986 q 1039 804 971 897 q 1107 571 1107 711 l 1107 401 m 449 375 q 487 288 449 318 q 590 257 525 257 q 694 288 656 257 q 732 376 732 319 l 732 596 q 694 684 732 653 q 590 715 656 715 q 487 685 525 715 q 449 597 449 654 l 449 375 z "},"Œ":{"ha":1181,"x_min":75,"x_max":1118,"o":"m 550 0 q 198 99 321 0 q 75 417 75 199 l 75 554 q 201 870 75 768 q 550 972 326 972 l 1067 972 q 1093 961 1082 972 q 1104 935 1104 950 l 1104 739 q 1093 713 1104 724 q 1067 701 1082 701 l 883 701 l 883 614 l 1033 614 q 1060 603 1049 614 q 1071 576 1071 592 l 1071 396 q 1060 369 1071 381 q 1033 358 1049 358 l 883 358 l 883 271 l 1081 271 q 1107 260 1096 271 q 1118 233 1118 249 l 1118 38 q 1107 11 1118 22 q 1081 0 1096 0 l 550 0 m 408 388 q 447 301 408 332 q 550 271 485 271 l 550 701 q 447 671 485 701 q 408 583 408 640 l 408 388 z "},"P":{"ha":1181,"x_min":175,"x_max":1160,"o":"m 732 972 q 960 928 863 972 q 1108 807 1057 883 q 1160 636 1160 731 q 1063 392 1160 481 q 732 304 965 304 l 549 304 l 549 38 q 538 11 549 22 q 511 0 526 0 l 213 0 q 186 11 197 0 q 175 38 175 22 l 175 935 q 186 961 175 950 q 213 972 197 972 l 732 972 m 726 561 q 779 581 760 561 q 799 635 799 601 q 779 692 799 669 q 726 714 760 714 l 550 714 l 550 561 l 726 561 z "},"Þ":{"ha":1181,"x_min":113,"x_max":1097,"o":"m 449 974 q 475 963 464 974 q 486 936 486 951 l 486 847 l 669 847 q 897 803 800 847 q 1046 682 994 758 q 1097 511 1097 606 q 1000 267 1097 356 q 669 179 903 179 l 486 179 l 486 38 q 475 11 486 22 q 449 0 464 0 l 150 0 q 124 11 135 0 q 113 38 113 22 l 113 936 q 124 963 113 951 q 150 974 135 974 l 449 974 m 664 436 q 717 456 697 436 q 736 510 736 476 q 717 567 736 544 q 664 589 697 589 l 488 589 l 488 436 l 664 436 z "},"Q":{"ha":1181,"x_min":72,"x_max":1106,"o":"m 1106 401 q 971 92 1106 197 l 1074 -47 q 1078 -60 1078 -56 l 1078 -64 q 1069 -83 1078 -75 q 1050 -90 1061 -90 l 785 -90 q 742 -78 760 -90 q 717 -56 724 -67 l 681 -10 q 589 -14 638 -14 q 213 88 354 -14 q 72 404 72 189 l 72 568 q 213 885 72 783 q 589 986 354 986 q 965 885 824 986 q 1106 571 1106 783 l 1106 401 m 447 375 q 485 288 447 318 q 589 257 524 257 q 692 288 654 257 q 731 376 731 319 l 731 596 q 692 684 731 653 q 589 715 654 715 q 485 685 524 715 q 447 597 447 654 l 447 375 z "},"R":{"ha":1181,"x_min":126,"x_max":1144,"o":"m 1142 43 q 1144 31 1144 38 q 1135 9 1144 18 q 1114 0 1126 0 l 799 0 q 763 10 779 0 q 740 35 747 19 l 618 310 l 501 310 l 501 38 q 490 11 501 22 q 464 0 479 0 l 164 0 q 138 11 149 0 q 126 38 126 22 l 126 935 q 138 961 126 950 q 164 972 149 972 l 704 972 q 923 932 829 972 q 1067 815 1017 892 q 1117 636 1117 739 q 971 363 1117 447 l 1142 43 m 675 567 q 722 587 706 567 q 739 638 739 607 q 723 691 739 668 q 675 714 707 714 l 501 714 l 501 567 l 675 567 z "},"Ŕ":{"ha":1181,"x_min":126,"x_max":1144,"o":"m 526 1154 q 550 1175 540 1171 q 578 1181 560 1179 l 797 1181 q 817 1173 810 1181 q 824 1153 824 1165 q 817 1136 824 1143 l 685 1025 q 646 1015 672 1015 l 629 1015 l 461 1015 q 439 1038 439 1015 q 446 1056 439 1049 l 526 1154 m 1142 43 q 1144 31 1144 38 q 1135 9 1144 18 q 1114 0 1126 0 l 799 0 q 763 10 779 0 q 740 35 747 19 l 618 310 l 501 310 l 501 38 q 490 11 501 22 q 464 0 479 0 l 164 0 q 138 11 149 0 q 126 38 126 22 l 126 935 q 138 961 126 950 q 164 972 149 972 l 704 972 q 923 932 829 972 q 1067 815 1017 892 q 1117 636 1117 739 q 971 363 1117 447 l 1142 43 m 675 567 q 722 587 706 567 q 739 638 739 607 q 723 691 739 668 q 675 714 707 714 l 501 714 l 501 567 l 675 567 z "},"Ř":{"ha":1181,"x_min":126,"x_max":1144,"o":"m 656 1171 q 711 1181 686 1181 l 824 1181 q 840 1174 833 1181 q 846 1158 846 1168 q 835 1139 846 1146 l 719 1042 q 684 1021 699 1026 q 654 1015 669 1015 l 499 1015 q 469 1021 483 1015 q 433 1042 454 1026 l 318 1139 q 307 1158 307 1146 q 313 1174 307 1168 q 329 1181 319 1181 l 442 1181 q 497 1171 467 1181 l 576 1140 l 656 1171 m 1142 43 q 1144 31 1144 38 q 1135 9 1144 18 q 1114 0 1126 0 l 799 0 q 763 10 779 0 q 740 35 747 19 l 618 310 l 501 310 l 501 38 q 490 11 501 22 q 464 0 479 0 l 164 0 q 138 11 149 0 q 126 38 126 22 l 126 935 q 138 961 126 950 q 164 972 149 972 l 704 972 q 923 932 829 972 q 1067 815 1017 892 q 1117 636 1117 739 q 971 363 1117 447 l 1142 43 m 675 567 q 722 587 706 567 q 739 638 739 607 q 723 691 739 668 q 675 714 707 714 l 501 714 l 501 567 l 675 567 z "},"Ŗ":{"ha":1181,"x_min":126,"x_max":1144,"o":"m 1142 43 q 1144 31 1144 38 q 1135 9 1144 18 q 1114 0 1126 0 l 799 0 q 763 10 779 0 q 740 35 747 19 l 618 310 l 501 310 l 501 38 q 490 11 501 22 q 464 0 479 0 l 164 0 q 138 11 149 0 q 126 38 126 22 l 126 935 q 138 961 126 950 q 164 972 149 972 l 704 972 q 923 932 829 972 q 1067 815 1017 892 q 1117 636 1117 739 q 971 363 1117 447 l 1142 43 m 675 567 q 722 587 706 567 q 739 638 739 607 q 723 691 739 668 q 675 714 707 714 l 501 714 l 501 567 l 675 567 m 471 -69 q 494 -49 485 -53 q 522 -43 504 -44 l 742 -43 q 761 -51 754 -43 q 768 -71 768 -58 q 761 -87 768 -81 l 629 -199 q 590 -208 617 -208 l 574 -208 l 406 -208 q 383 -186 383 -208 q 390 -168 383 -175 l 471 -69 z "},"S":{"ha":1181,"x_min":86,"x_max":1088,"o":"m 667 619 q 912 565 819 603 q 1046 467 1004 528 q 1088 314 1088 406 q 1023 140 1088 214 q 844 26 958 65 q 585 -14 731 -14 q 310 26 422 -14 q 142 134 197 67 q 86 282 86 201 q 95 304 86 296 q 118 313 104 313 l 403 313 q 450 294 432 313 q 503 265 474 272 q 585 257 532 257 q 717 297 717 257 q 699 326 717 314 q 638 347 682 338 q 510 365 594 356 q 218 460 319 388 q 117 667 117 533 q 174 833 117 761 q 335 946 231 906 q 579 986 440 986 q 832 941 724 986 q 997 829 940 896 q 1054 699 1054 763 q 1045 676 1054 685 q 1021 668 1036 668 l 722 668 q 679 685 699 668 q 643 707 664 699 q 579 715 622 715 q 486 676 486 715 q 522 644 486 656 q 667 619 558 632 z "},"Ś":{"ha":1181,"x_min":86,"x_max":1088,"o":"m 513 1154 q 536 1175 526 1171 q 564 1181 546 1179 l 783 1181 q 803 1173 796 1181 q 810 1153 810 1165 q 803 1136 810 1143 l 671 1025 q 632 1015 658 1015 l 615 1015 l 447 1015 q 425 1038 425 1015 q 432 1056 425 1049 l 513 1154 m 667 619 q 912 565 819 603 q 1046 467 1004 528 q 1088 314 1088 406 q 1023 140 1088 214 q 844 26 958 65 q 585 -14 731 -14 q 310 26 422 -14 q 142 134 197 67 q 86 282 86 201 q 95 304 86 296 q 118 313 104 313 l 403 313 q 450 294 432 313 q 503 265 474 272 q 585 257 532 257 q 717 297 717 257 q 699 326 717 314 q 638 347 682 338 q 510 365 594 356 q 218 460 319 388 q 117 667 117 533 q 174 833 117 761 q 335 946 231 906 q 579 986 440 986 q 832 941 724 986 q 997 829 940 896 q 1054 699 1054 763 q 1045 676 1054 685 q 1021 668 1036 668 l 722 668 q 679 685 699 668 q 643 707 664 699 q 579 715 622 715 q 486 676 486 715 q 522 644 486 656 q 667 619 558 632 z "},"Š":{"ha":1181,"x_min":86,"x_max":1088,"o":"m 664 1171 q 719 1181 694 1181 l 832 1181 q 848 1174 842 1181 q 854 1158 854 1168 q 843 1139 854 1146 l 728 1042 q 692 1021 707 1026 q 663 1015 678 1015 l 507 1015 q 477 1021 492 1015 q 442 1042 463 1026 l 326 1139 q 315 1158 315 1146 q 322 1174 315 1168 q 338 1181 328 1181 l 450 1181 q 506 1171 475 1181 l 585 1140 l 664 1171 m 667 619 q 912 565 819 603 q 1046 467 1004 528 q 1088 314 1088 406 q 1023 140 1088 214 q 844 26 958 65 q 585 -14 731 -14 q 310 26 422 -14 q 142 134 197 67 q 86 282 86 201 q 95 304 86 296 q 118 313 104 313 l 403 313 q 450 294 432 313 q 503 265 474 272 q 585 257 532 257 q 717 297 717 257 q 699 326 717 314 q 638 347 682 338 q 510 365 594 356 q 218 460 319 388 q 117 667 117 533 q 174 833 117 761 q 335 946 231 906 q 579 986 440 986 q 832 941 724 986 q 997 829 940 896 q 1054 699 1054 763 q 1045 676 1054 685 q 1021 668 1036 668 l 722 668 q 679 685 699 668 q 643 707 664 699 q 579 715 622 715 q 486 676 486 715 q 522 644 486 656 q 667 619 558 632 z "},"Ş":{"ha":1181,"x_min":86,"x_max":1088,"o":"m 667 619 q 912 565 819 603 q 1046 467 1004 528 q 1088 314 1088 406 q 1028 146 1088 218 q 863 33 968 74 q 619 -12 757 -7 l 611 -36 q 663 -31 624 -31 q 753 -53 718 -31 q 789 -115 789 -75 q 740 -185 789 -162 q 628 -208 690 -208 q 506 -190 558 -208 q 453 -139 453 -172 q 471 -124 453 -124 l 556 -124 q 585 -132 571 -124 q 601 -139 592 -136 q 628 -142 611 -142 q 658 -134 649 -142 q 668 -115 668 -126 q 629 -92 668 -92 q 592 -98 608 -92 q 563 -104 575 -104 l 501 -104 q 481 -86 481 -104 q 483 -74 481 -82 l 503 -11 q 273 41 367 -1 q 133 146 179 83 q 86 282 86 208 q 95 304 86 296 q 118 313 104 313 l 403 313 q 450 294 432 313 q 503 265 474 272 q 585 257 532 257 q 717 297 717 257 q 699 326 717 314 q 638 347 682 338 q 510 365 594 356 q 218 460 319 388 q 117 667 117 533 q 174 833 117 761 q 335 946 231 906 q 579 986 440 986 q 832 941 724 986 q 997 829 940 896 q 1054 699 1054 763 q 1045 676 1054 685 q 1021 668 1036 668 l 722 668 q 679 685 699 668 q 643 707 664 699 q 579 715 622 715 q 486 676 486 715 q 522 644 486 656 q 667 619 558 632 z "},"Ŝ":{"ha":1181,"x_min":86,"x_max":1088,"o":"m 506 1025 q 450 1015 475 1015 l 338 1015 q 322 1022 328 1015 q 315 1038 315 1028 q 326 1057 315 1050 l 442 1154 q 477 1175 463 1169 q 507 1181 492 1181 l 663 1181 q 692 1175 678 1181 q 728 1154 707 1169 l 843 1057 q 854 1038 854 1050 q 848 1022 854 1028 q 832 1015 842 1015 l 719 1015 q 664 1025 694 1015 l 585 1056 l 506 1025 m 667 619 q 912 565 819 603 q 1046 467 1004 528 q 1088 314 1088 406 q 1023 140 1088 214 q 844 26 958 65 q 585 -14 731 -14 q 310 26 422 -14 q 142 134 197 67 q 86 282 86 201 q 95 304 86 296 q 118 313 104 313 l 403 313 q 450 294 432 313 q 503 265 474 272 q 585 257 532 257 q 717 297 717 257 q 699 326 717 314 q 638 347 682 338 q 510 365 594 356 q 218 460 319 388 q 117 667 117 533 q 174 833 117 761 q 335 946 231 906 q 579 986 440 986 q 832 941 724 986 q 997 829 940 896 q 1054 699 1054 763 q 1045 676 1054 685 q 1021 668 1036 668 l 722 668 q 679 685 699 668 q 643 707 664 699 q 579 715 622 715 q 486 676 486 715 q 522 644 486 656 q 667 619 558 632 z "},"Ș":{"ha":1181,"x_min":86,"x_max":1088,"o":"m 667 619 q 912 565 819 603 q 1046 467 1004 528 q 1088 314 1088 406 q 1023 140 1088 214 q 844 26 958 65 q 585 -14 731 -14 q 310 26 422 -14 q 142 134 197 67 q 86 282 86 201 q 95 304 86 296 q 118 313 104 313 l 403 313 q 450 294 432 313 q 503 265 474 272 q 585 257 532 257 q 717 297 717 257 q 699 326 717 314 q 638 347 682 338 q 510 365 594 356 q 218 460 319 388 q 117 667 117 533 q 174 833 117 761 q 335 946 231 906 q 579 986 440 986 q 832 941 724 986 q 997 829 940 896 q 1054 699 1054 763 q 1045 676 1054 685 q 1021 668 1036 668 l 722 668 q 679 685 699 668 q 643 707 664 699 q 579 715 622 715 q 486 676 486 715 q 522 644 486 656 q 667 619 558 632 m 432 -69 q 456 -49 446 -53 q 483 -43 465 -44 l 703 -43 q 722 -51 715 -43 q 729 -71 729 -58 q 722 -87 729 -81 l 590 -199 q 551 -208 578 -208 l 535 -208 l 367 -208 q 344 -186 344 -208 q 351 -168 344 -175 l 432 -69 z "},"T":{"ha":1181,"x_min":74,"x_max":1107,"o":"m 1069 972 q 1096 961 1085 972 q 1107 935 1107 950 l 1107 711 q 1096 685 1107 696 q 1069 674 1085 674 l 771 674 l 771 38 q 760 11 771 22 q 733 0 749 0 l 447 0 q 421 11 432 0 q 410 38 410 22 l 410 674 l 111 674 q 85 685 96 674 q 74 711 74 696 l 74 935 q 85 961 74 950 q 111 972 96 972 l 1069 972 z "},"Ŧ":{"ha":1181,"x_min":74,"x_max":1107,"o":"m 410 674 l 111 674 q 85 685 96 674 q 74 711 74 696 l 74 935 q 85 961 74 950 q 111 972 96 972 l 1069 972 q 1096 961 1085 972 q 1107 935 1107 950 l 1107 711 q 1096 685 1107 696 q 1069 674 1085 674 l 771 674 l 771 528 l 892 528 q 918 517 907 528 q 929 490 929 506 l 929 392 q 918 365 929 376 q 892 354 907 354 l 771 354 l 771 38 q 760 11 771 22 q 733 0 749 0 l 447 0 q 421 11 432 0 q 410 38 410 22 l 410 354 l 289 354 q 263 365 274 354 q 251 392 251 376 l 251 490 q 263 517 251 506 q 289 528 274 528 l 410 528 l 410 674 z "},"Ť":{"ha":1181,"x_min":74,"x_max":1107,"o":"m 669 1171 q 725 1181 700 1181 l 838 1181 q 853 1174 847 1181 q 860 1158 860 1168 q 849 1139 860 1146 l 733 1042 q 698 1021 713 1026 q 668 1015 683 1015 l 513 1015 q 483 1021 497 1015 q 447 1042 468 1026 l 332 1139 q 321 1158 321 1146 q 327 1174 321 1168 q 343 1181 333 1181 l 456 1181 q 511 1171 481 1181 l 590 1140 l 669 1171 m 1069 972 q 1096 961 1085 972 q 1107 935 1107 950 l 1107 711 q 1096 685 1107 696 q 1069 674 1085 674 l 771 674 l 771 38 q 760 11 771 22 q 733 0 749 0 l 447 0 q 421 11 432 0 q 410 38 410 22 l 410 674 l 111 674 q 85 685 96 674 q 74 711 74 696 l 74 935 q 85 961 74 950 q 111 972 96 972 l 1069 972 z "},"Ț":{"ha":1181,"x_min":74,"x_max":1107,"o":"m 1069 972 q 1096 961 1085 972 q 1107 935 1107 950 l 1107 711 q 1096 685 1107 696 q 1069 674 1085 674 l 771 674 l 771 38 q 760 11 771 22 q 733 0 749 0 l 447 0 q 421 11 432 0 q 410 38 410 22 l 410 674 l 111 674 q 85 685 96 674 q 74 711 74 696 l 74 935 q 85 961 74 950 q 111 972 96 972 l 1069 972 m 429 -69 q 453 -49 443 -53 q 481 -43 463 -44 l 700 -43 q 719 -51 713 -43 q 726 -71 726 -58 q 719 -87 726 -81 l 588 -199 q 549 -208 575 -208 l 532 -208 l 364 -208 q 342 -186 342 -208 q 349 -168 342 -175 l 429 -69 z "},"U":{"ha":1181,"x_min":83,"x_max":1097,"o":"m 590 -14 q 220 88 357 -14 q 83 404 83 189 l 83 935 q 94 961 83 950 q 121 972 106 972 l 411 972 q 438 961 426 972 q 449 935 449 950 l 449 382 q 487 294 449 325 q 590 264 525 264 q 694 294 656 264 q 732 382 732 325 l 732 935 q 743 961 732 950 q 769 972 754 972 l 1060 972 q 1086 961 1075 972 q 1097 935 1097 950 l 1097 404 q 960 88 1097 189 q 590 -14 824 -14 z "},"Ú":{"ha":1181,"x_min":83,"x_max":1097,"o":"m 551 1154 q 575 1175 565 1171 q 603 1181 585 1179 l 822 1181 q 842 1173 835 1181 q 849 1153 849 1165 q 842 1136 849 1143 l 710 1025 q 671 1015 697 1015 l 654 1015 l 486 1015 q 464 1038 464 1015 q 471 1056 464 1049 l 551 1154 m 590 -14 q 960 88 824 -14 q 1097 404 1097 189 l 1097 935 q 1086 961 1097 950 q 1060 972 1075 972 l 769 972 q 743 961 754 972 q 732 935 732 950 l 732 382 q 694 294 732 325 q 590 264 656 264 q 487 294 525 264 q 449 382 449 325 l 449 935 q 438 961 449 950 q 411 972 426 972 l 121 972 q 94 961 106 972 q 83 935 83 950 l 83 404 q 220 88 83 189 q 590 -14 357 -14 z "},"Ŭ":{"ha":1181,"x_min":83,"x_max":1097,"o":"m 646 1169 q 672 1188 656 1188 l 810 1188 q 829 1182 822 1188 q 836 1169 836 1176 q 772 1059 836 1104 q 589 1014 708 1014 q 407 1059 471 1014 q 343 1169 343 1104 q 350 1182 343 1176 q 369 1188 357 1188 l 507 1188 q 533 1169 528 1188 q 549 1146 536 1157 q 589 1135 561 1135 q 628 1144 617 1135 q 646 1169 639 1154 m 590 -14 q 220 88 357 -14 q 83 404 83 189 l 83 935 q 94 961 83 950 q 121 972 106 972 l 411 972 q 438 961 426 972 q 449 935 449 950 l 449 382 q 487 294 449 325 q 590 264 525 264 q 694 294 656 264 q 732 382 732 325 l 732 935 q 743 961 732 950 q 769 972 754 972 l 1060 972 q 1086 961 1075 972 q 1097 935 1097 950 l 1097 404 q 960 88 1097 189 q 590 -14 824 -14 z "},"Û":{"ha":1181,"x_min":83,"x_max":1097,"o":"m 511 1025 q 456 1015 481 1015 l 343 1015 q 327 1022 333 1015 q 321 1038 321 1028 q 332 1057 321 1050 l 447 1154 q 483 1175 468 1169 q 513 1181 497 1181 l 668 1181 q 698 1175 683 1181 q 733 1154 713 1169 l 849 1057 q 860 1038 860 1050 q 853 1022 860 1028 q 838 1015 847 1015 l 725 1015 q 669 1025 700 1015 l 590 1056 l 511 1025 m 590 -14 q 960 88 824 -14 q 1097 404 1097 189 l 1097 935 q 1086 961 1097 950 q 1060 972 1075 972 l 769 972 q 743 961 754 972 q 732 935 732 950 l 732 382 q 694 294 732 325 q 590 264 656 264 q 487 294 525 264 q 449 382 449 325 l 449 935 q 438 961 449 950 q 411 972 426 972 l 121 972 q 94 961 106 972 q 83 935 83 950 l 83 404 q 220 88 83 189 q 590 -14 357 -14 z "},"Ü":{"ha":1181,"x_min":83,"x_max":1097,"o":"m 496 1186 q 519 1177 510 1186 q 528 1154 528 1168 l 528 1053 q 519 1030 528 1039 q 496 1021 510 1021 l 335 1021 q 312 1030 321 1021 q 303 1053 303 1039 l 303 1154 q 312 1177 303 1168 q 335 1186 321 1186 l 496 1186 m 844 1186 q 867 1177 858 1186 q 876 1154 876 1168 l 876 1053 q 867 1030 876 1039 q 844 1021 858 1021 l 683 1021 q 660 1030 669 1021 q 651 1053 651 1039 l 651 1154 q 660 1177 651 1168 q 683 1186 669 1186 l 844 1186 m 590 -14 q 960 88 824 -14 q 1097 404 1097 189 l 1097 935 q 1086 961 1097 950 q 1060 972 1075 972 l 769 972 q 743 961 754 972 q 732 935 732 950 l 732 382 q 694 294 732 325 q 590 264 656 264 q 487 294 525 264 q 449 382 449 325 l 449 935 q 438 961 449 950 q 411 972 426 972 l 121 972 q 94 961 106 972 q 83 935 83 950 l 83 404 q 220 88 83 189 q 590 -14 357 -14 z "},"Ù":{"ha":1181,"x_min":83,"x_max":1097,"o":"m 711 1056 q 718 1038 718 1049 q 696 1015 718 1015 l 528 1015 l 511 1015 q 472 1025 485 1015 l 340 1136 q 333 1153 333 1143 q 340 1173 333 1165 q 360 1181 347 1181 l 579 1181 q 607 1175 597 1179 q 631 1154 617 1171 l 711 1056 m 590 -14 q 220 88 357 -14 q 83 404 83 189 l 83 935 q 94 961 83 950 q 121 972 106 972 l 411 972 q 438 961 426 972 q 449 935 449 950 l 449 382 q 487 294 449 325 q 590 264 525 264 q 694 294 656 264 q 732 382 732 325 l 732 935 q 743 961 732 950 q 769 972 754 972 l 1060 972 q 1086 961 1075 972 q 1097 935 1097 950 l 1097 404 q 960 88 1097 189 q 590 -14 824 -14 z "},"Ű":{"ha":1181,"x_min":83,"x_max":1097,"o":"m 381 1154 q 404 1175 394 1171 q 432 1181 414 1179 l 624 1181 q 643 1173 636 1181 q 650 1153 650 1165 q 643 1136 650 1143 l 539 1025 q 500 1015 526 1015 l 483 1015 l 343 1015 q 321 1038 321 1015 q 328 1056 321 1042 l 381 1154 m 704 1154 q 728 1175 718 1171 q 756 1181 738 1179 l 947 1181 q 967 1173 960 1181 q 974 1153 974 1165 q 967 1136 974 1143 l 863 1025 q 824 1015 850 1015 l 807 1015 l 667 1015 q 644 1038 644 1015 q 651 1056 644 1042 l 704 1154 m 590 -14 q 960 88 824 -14 q 1097 404 1097 189 l 1097 935 q 1086 961 1097 950 q 1060 972 1075 972 l 769 972 q 743 961 754 972 q 732 935 732 950 l 732 382 q 694 294 732 325 q 590 264 656 264 q 487 294 525 264 q 449 382 449 325 l 449 935 q 438 961 449 950 q 411 972 426 972 l 121 972 q 94 961 106 972 q 83 935 83 950 l 83 404 q 220 88 83 189 q 590 -14 357 -14 z "},"Ū":{"ha":1181,"x_min":83,"x_max":1097,"o":"m 846 1181 q 869 1172 860 1181 q 878 1149 878 1163 l 878 1047 q 869 1024 878 1033 q 846 1015 860 1015 l 336 1015 q 313 1024 322 1015 q 304 1047 304 1033 l 304 1149 q 313 1172 304 1163 q 336 1181 322 1181 l 846 1181 m 590 -14 q 960 88 824 -14 q 1097 404 1097 189 l 1097 935 q 1086 961 1097 950 q 1060 972 1075 972 l 769 972 q 743 961 754 972 q 732 935 732 950 l 732 382 q 694 294 732 325 q 590 264 656 264 q 487 294 525 264 q 449 382 449 325 l 449 935 q 438 961 449 950 q 411 972 426 972 l 121 972 q 94 961 106 972 q 83 935 83 950 l 83 404 q 220 88 83 189 q 590 -14 357 -14 z "},"Ų":{"ha":1181,"x_min":83,"x_max":1097,"o":"m 694 -83 q 722 -92 711 -83 q 732 -118 732 -101 l 732 -175 q 722 -199 732 -190 q 694 -208 711 -208 l 675 -208 q 514 -167 564 -208 q 464 -47 464 -126 q 468 -6 464 -25 q 185 118 288 18 q 83 404 83 218 l 83 935 q 94 961 83 950 q 121 972 106 972 l 411 972 q 438 961 426 972 q 449 935 449 950 l 449 382 q 487 294 449 325 q 590 264 525 264 q 694 294 656 264 q 732 382 732 325 l 732 935 q 743 961 732 950 q 769 972 754 972 l 1060 972 q 1086 961 1075 972 q 1097 935 1097 950 l 1097 404 q 997 120 1097 221 q 721 -4 897 19 l 710 -7 l 685 -11 q 638 -25 650 -18 q 625 -47 625 -32 q 685 -83 625 -83 l 694 -83 z "},"Ů":{"ha":1181,"x_min":83,"x_max":1097,"o":"m 450 1093 q 490 1162 450 1136 q 590 1188 531 1188 q 690 1162 650 1188 q 731 1093 731 1136 q 690 1024 731 1050 q 590 999 650 999 q 490 1024 531 999 q 450 1093 450 1050 m 547 1093 q 560 1073 547 1081 q 590 1065 572 1065 q 620 1073 608 1065 q 632 1093 632 1081 q 620 1113 632 1106 q 590 1121 608 1121 q 560 1113 572 1121 q 547 1093 547 1106 m 590 -14 q 960 88 824 -14 q 1097 404 1097 189 l 1097 935 q 1086 961 1097 950 q 1060 972 1075 972 l 769 972 q 743 961 754 972 q 732 935 732 950 l 732 382 q 694 294 732 325 q 590 264 656 264 q 487 294 525 264 q 449 382 449 325 l 449 935 q 438 961 449 950 q 411 972 426 972 l 121 972 q 94 961 106 972 q 83 935 83 950 l 83 404 q 220 88 83 189 q 590 -14 357 -14 z "},"Ũ":{"ha":1181,"x_min":83,"x_max":1097,"o":"m 676 1014 q 583 1033 633 1014 q 563 1041 581 1035 q 526 1047 544 1047 q 486 1033 503 1047 q 457 1021 474 1021 l 340 1021 q 322 1028 329 1021 q 314 1046 314 1036 q 331 1103 314 1069 q 391 1162 349 1136 q 503 1188 433 1188 q 596 1168 546 1188 q 617 1160 599 1167 q 653 1154 635 1154 q 692 1168 675 1154 q 706 1178 700 1175 q 722 1181 713 1181 l 839 1181 q 858 1173 851 1181 q 865 1154 865 1165 q 848 1098 865 1131 q 788 1040 831 1065 q 676 1014 746 1014 m 590 -14 q 960 88 824 -14 q 1097 404 1097 189 l 1097 935 q 1086 961 1097 950 q 1060 972 1075 972 l 769 972 q 743 961 754 972 q 732 935 732 950 l 732 382 q 694 294 732 325 q 590 264 656 264 q 487 294 525 264 q 449 382 449 325 l 449 935 q 438 961 449 950 q 411 972 426 972 l 121 972 q 94 961 106 972 q 83 935 83 950 l 83 404 q 220 88 83 189 q 590 -14 357 -14 z "},"V":{"ha":1181,"x_min":44,"x_max":1136,"o":"m 1106 972 q 1127 963 1118 972 q 1136 942 1136 954 l 1135 932 l 815 46 q 793 13 808 26 q 753 0 778 0 l 429 0 q 389 13 404 0 q 368 42 374 26 l 46 932 l 44 942 q 53 963 44 954 q 75 972 63 972 l 368 972 q 409 958 393 972 q 431 926 425 943 l 590 394 l 750 926 q 771 958 756 944 q 813 972 786 972 l 1106 972 z "},"W":{"ha":1181,"x_min":28,"x_max":1164,"o":"m 468 38 q 448 13 464 25 q 407 0 432 0 l 213 0 q 169 16 186 0 q 149 53 151 32 l 28 938 l 28 942 q 37 963 28 954 q 58 972 46 972 l 297 972 q 342 956 325 972 q 363 914 360 939 l 407 489 l 488 710 q 508 737 492 724 q 549 750 524 750 l 643 750 q 684 737 668 750 q 704 710 700 724 l 785 489 l 829 914 q 849 956 832 939 q 894 972 867 972 l 1133 972 q 1155 963 1146 972 q 1164 942 1164 954 l 1164 938 l 1043 53 q 1023 16 1040 32 q 979 0 1006 0 l 785 0 q 744 13 760 0 q 724 38 728 25 l 596 331 l 468 38 z "},"Ẃ":{"ha":1181,"x_min":28,"x_max":1164,"o":"m 543 1154 q 567 1175 557 1171 q 594 1181 576 1179 l 814 1181 q 833 1173 826 1181 q 840 1153 840 1165 q 833 1136 840 1143 l 701 1025 q 663 1015 689 1015 l 646 1015 l 478 1015 q 456 1038 456 1015 q 463 1056 456 1049 l 543 1154 m 468 38 q 448 13 464 25 q 407 0 432 0 l 213 0 q 169 16 186 0 q 149 53 151 32 l 28 938 l 28 942 q 37 963 28 954 q 58 972 46 972 l 297 972 q 342 956 325 972 q 363 914 360 939 l 407 489 l 488 710 q 508 737 492 724 q 549 750 524 750 l 643 750 q 684 737 668 750 q 704 710 700 724 l 785 489 l 829 914 q 849 956 832 939 q 894 972 867 972 l 1133 972 q 1155 963 1146 972 q 1164 942 1164 954 l 1164 938 l 1043 53 q 1023 16 1040 32 q 979 0 1006 0 l 785 0 q 744 13 760 0 q 724 38 728 25 l 596 331 l 468 38 z "},"Ŵ":{"ha":1181,"x_min":28,"x_max":1164,"o":"m 514 1025 q 458 1015 483 1015 l 346 1015 q 330 1022 336 1015 q 324 1038 324 1028 q 335 1057 324 1050 l 450 1154 q 485 1175 471 1169 q 515 1181 500 1181 l 671 1181 q 701 1175 686 1181 q 736 1154 715 1169 l 851 1057 q 863 1038 863 1050 q 856 1022 863 1028 q 840 1015 850 1015 l 728 1015 q 672 1025 703 1015 l 593 1056 l 514 1025 m 468 38 q 448 13 464 25 q 407 0 432 0 l 213 0 q 169 16 186 0 q 149 53 151 32 l 28 938 l 28 942 q 37 963 28 954 q 58 972 46 972 l 297 972 q 342 956 325 972 q 363 914 360 939 l 407 489 l 488 710 q 508 737 492 724 q 549 750 524 750 l 643 750 q 684 737 668 750 q 704 710 700 724 l 785 489 l 829 914 q 849 956 832 939 q 894 972 867 972 l 1133 972 q 1155 963 1146 972 q 1164 942 1164 954 l 1164 938 l 1043 53 q 1023 16 1040 32 q 979 0 1006 0 l 785 0 q 744 13 760 0 q 724 38 728 25 l 596 331 l 468 38 z "},"Ẅ":{"ha":1181,"x_min":28,"x_max":1164,"o":"m 500 1181 q 523 1172 514 1181 q 532 1149 532 1163 l 532 1047 q 523 1024 532 1033 q 500 1015 514 1015 l 339 1015 q 316 1024 325 1015 q 307 1047 307 1033 l 307 1149 q 316 1172 307 1163 q 339 1181 325 1181 l 500 1181 m 849 1181 q 872 1172 863 1181 q 881 1149 881 1163 l 881 1047 q 872 1024 881 1033 q 849 1015 863 1015 l 688 1015 q 665 1024 674 1015 q 656 1047 656 1033 l 656 1149 q 665 1172 656 1163 q 688 1181 674 1181 l 849 1181 m 468 38 q 448 13 464 25 q 407 0 432 0 l 213 0 q 169 16 186 0 q 149 53 151 32 l 28 938 l 28 942 q 37 963 28 954 q 58 972 46 972 l 297 972 q 342 956 325 972 q 363 914 360 939 l 407 489 l 488 710 q 508 737 492 724 q 549 750 524 750 l 643 750 q 684 737 668 750 q 704 710 700 724 l 785 489 l 829 914 q 849 956 832 939 q 894 972 867 972 l 1133 972 q 1155 963 1146 972 q 1164 942 1164 954 l 1164 938 l 1043 53 q 1023 16 1040 32 q 979 0 1006 0 l 785 0 q 744 13 760 0 q 724 38 728 25 l 596 331 l 468 38 z "},"Ẁ":{"ha":1181,"x_min":28,"x_max":1164,"o":"m 707 1056 q 714 1038 714 1049 q 692 1015 714 1015 l 524 1015 l 507 1015 q 468 1025 481 1015 l 336 1136 q 329 1153 329 1143 q 336 1173 329 1165 q 356 1181 343 1181 l 575 1181 q 603 1175 593 1179 q 626 1154 613 1171 l 707 1056 m 468 38 q 448 13 464 25 q 407 0 432 0 l 213 0 q 169 16 186 0 q 149 53 151 32 l 28 938 l 28 942 q 37 963 28 954 q 58 972 46 972 l 297 972 q 342 956 325 972 q 363 914 360 939 l 407 489 l 488 710 q 508 737 492 724 q 549 750 524 750 l 643 750 q 684 737 668 750 q 704 710 700 724 l 785 489 l 829 914 q 849 956 832 939 q 894 972 867 972 l 1133 972 q 1155 963 1146 972 q 1164 942 1164 954 l 1164 938 l 1043 53 q 1023 16 1040 32 q 979 0 1006 0 l 785 0 q 744 13 760 0 q 724 38 728 25 l 596 331 l 468 38 z "},"X":{"ha":1181,"x_min":69,"x_max":1110,"o":"m 1106 46 q 1110 35 1110 42 q 1101 10 1110 21 q 1079 0 1092 0 l 781 0 q 724 32 743 0 l 589 239 l 457 32 q 400 0 436 0 l 100 0 q 78 9 88 0 q 69 31 69 18 l 69 35 q 74 46 69 42 l 381 515 l 107 926 q 103 942 103 932 q 112 963 103 954 q 133 972 121 972 l 433 972 q 492 938 469 972 l 600 760 l 717 940 q 738 963 726 953 q 774 972 750 972 l 1072 972 q 1094 963 1085 972 q 1103 942 1103 954 l 1103 938 q 1099 926 1103 931 l 808 497 l 1106 46 z "},"Y":{"ha":1181,"x_min":51,"x_max":1129,"o":"m 1099 972 q 1120 963 1111 972 q 1129 943 1129 954 q 1125 926 1129 935 l 775 347 l 775 38 q 764 11 775 22 q 738 0 753 0 l 442 0 q 415 11 426 0 q 404 38 404 22 l 404 347 l 56 926 q 51 942 51 935 q 60 963 51 954 q 82 972 69 972 l 375 972 q 432 940 414 972 l 589 665 l 750 938 q 808 972 771 972 l 1099 972 z "},"Ý":{"ha":1181,"x_min":51,"x_max":1129,"o":"m 540 1154 q 564 1175 554 1171 q 592 1181 574 1179 l 811 1181 q 831 1173 824 1181 q 838 1153 838 1165 q 831 1136 838 1143 l 699 1025 q 660 1015 686 1015 l 643 1015 l 475 1015 q 453 1038 453 1015 q 460 1056 453 1049 l 540 1154 m 1099 972 q 1120 963 1111 972 q 1129 943 1129 954 q 1125 926 1129 935 l 775 347 l 775 38 q 764 11 775 22 q 738 0 753 0 l 442 0 q 415 11 426 0 q 404 38 404 22 l 404 347 l 56 926 q 51 942 51 935 q 60 963 51 954 q 82 972 69 972 l 375 972 q 432 940 414 972 l 589 665 l 750 938 q 808 972 771 972 l 1099 972 z "},"Ŷ":{"ha":1181,"x_min":51,"x_max":1129,"o":"m 510 1025 q 454 1015 479 1015 l 342 1015 q 326 1022 332 1015 q 319 1038 319 1028 q 331 1057 319 1050 l 446 1154 q 481 1175 467 1169 q 511 1181 496 1181 l 667 1181 q 697 1175 682 1181 q 732 1154 711 1169 l 847 1057 q 858 1038 858 1050 q 852 1022 858 1028 q 836 1015 846 1015 l 724 1015 q 668 1025 699 1015 l 589 1056 l 510 1025 m 1099 972 q 1120 963 1111 972 q 1129 943 1129 954 q 1125 926 1129 935 l 775 347 l 775 38 q 764 11 775 22 q 738 0 753 0 l 442 0 q 415 11 426 0 q 404 38 404 22 l 404 347 l 56 926 q 51 942 51 935 q 60 963 51 954 q 82 972 69 972 l 375 972 q 432 940 414 972 l 589 665 l 750 938 q 808 972 771 972 l 1099 972 z "},"Ÿ":{"ha":1181,"x_min":51,"x_max":1129,"o":"m 496 1188 q 519 1178 510 1188 q 528 1156 528 1169 l 528 1054 q 519 1031 528 1040 q 496 1022 510 1022 l 335 1022 q 312 1031 321 1022 q 303 1054 303 1040 l 303 1156 q 312 1178 303 1169 q 335 1188 321 1188 l 496 1188 m 844 1188 q 867 1178 858 1188 q 876 1156 876 1169 l 876 1054 q 867 1031 876 1040 q 844 1022 858 1022 l 683 1022 q 660 1031 669 1022 q 651 1054 651 1040 l 651 1156 q 660 1178 651 1169 q 683 1188 669 1188 l 844 1188 m 1099 972 q 1120 963 1111 972 q 1129 943 1129 954 q 1125 926 1129 935 l 775 347 l 775 38 q 764 11 775 22 q 738 0 753 0 l 442 0 q 415 11 426 0 q 404 38 404 22 l 404 347 l 56 926 q 51 942 51 935 q 60 963 51 954 q 82 972 69 972 l 375 972 q 432 940 414 972 l 589 665 l 750 938 q 808 972 771 972 l 1099 972 z "},"Ỳ":{"ha":1181,"x_min":51,"x_max":1129,"o":"m 704 1056 q 711 1038 711 1049 q 689 1015 711 1015 l 521 1015 l 504 1015 q 465 1025 478 1015 l 333 1136 q 326 1153 326 1143 q 333 1173 326 1165 q 353 1181 340 1181 l 572 1181 q 600 1175 590 1179 q 624 1154 610 1171 l 704 1056 m 1099 972 q 1120 963 1111 972 q 1129 943 1129 954 q 1125 926 1129 935 l 775 347 l 775 38 q 764 11 775 22 q 738 0 753 0 l 442 0 q 415 11 426 0 q 404 38 404 22 l 404 347 l 56 926 q 51 942 51 935 q 60 963 51 954 q 82 972 69 972 l 375 972 q 432 940 414 972 l 589 665 l 750 938 q 808 972 771 972 l 1099 972 z "},"Z":{"ha":1181,"x_min":108,"x_max":1075,"o":"m 1038 285 q 1064 274 1053 285 q 1075 247 1075 263 l 1075 38 q 1064 11 1075 22 q 1038 0 1053 0 l 146 0 q 119 11 131 0 q 108 38 108 22 l 108 238 q 115 268 108 256 q 129 286 122 281 l 568 688 l 175 688 q 149 699 160 688 q 138 725 138 710 l 138 935 q 149 961 138 950 q 175 972 160 972 l 1008 972 q 1035 961 1024 972 q 1046 935 1046 950 l 1046 736 q 1028 690 1046 707 l 594 285 l 1038 285 z "},"Ź":{"ha":1181,"x_min":108,"x_max":1075,"o":"m 528 1154 q 551 1175 542 1171 q 579 1181 561 1179 l 799 1181 q 818 1173 811 1181 q 825 1153 825 1165 q 818 1136 825 1143 l 686 1025 q 647 1015 674 1015 l 631 1015 l 463 1015 q 440 1038 440 1015 q 447 1056 440 1049 l 528 1154 m 1038 285 q 1064 274 1053 285 q 1075 247 1075 263 l 1075 38 q 1064 11 1075 22 q 1038 0 1053 0 l 146 0 q 119 11 131 0 q 108 38 108 22 l 108 238 q 115 268 108 256 q 129 286 122 281 l 568 688 l 175 688 q 149 699 160 688 q 138 725 138 710 l 138 935 q 149 961 138 950 q 175 972 160 972 l 1008 972 q 1035 961 1024 972 q 1046 935 1046 950 l 1046 736 q 1028 690 1046 707 l 594 285 l 1038 285 z "},"Ž":{"ha":1181,"x_min":108,"x_max":1075,"o":"m 676 1171 q 732 1181 707 1181 l 844 1181 q 860 1174 854 1181 q 867 1158 867 1168 q 856 1139 867 1146 l 740 1042 q 705 1021 719 1026 q 675 1015 690 1015 l 519 1015 q 490 1021 504 1015 q 454 1042 475 1026 l 339 1139 q 328 1158 328 1146 q 334 1174 328 1168 q 350 1181 340 1181 l 463 1181 q 518 1171 488 1181 l 597 1140 l 676 1171 m 1038 285 q 1064 274 1053 285 q 1075 247 1075 263 l 1075 38 q 1064 11 1075 22 q 1038 0 1053 0 l 146 0 q 119 11 131 0 q 108 38 108 22 l 108 238 q 115 268 108 256 q 129 286 122 281 l 568 688 l 175 688 q 149 699 160 688 q 138 725 138 710 l 138 935 q 149 961 138 950 q 175 972 160 972 l 1008 972 q 1035 961 1024 972 q 1046 935 1046 950 l 1046 736 q 1028 690 1046 707 l 594 285 l 1038 285 z "},"Ż":{"ha":1181,"x_min":108,"x_max":1075,"o":"m 685 1181 q 708 1172 699 1181 q 717 1149 717 1163 l 717 1047 q 708 1024 717 1033 q 685 1015 699 1015 l 496 1015 q 473 1024 482 1015 q 464 1047 464 1033 l 464 1149 q 473 1172 464 1163 q 496 1181 482 1181 l 685 1181 m 1038 285 q 1064 274 1053 285 q 1075 247 1075 263 l 1075 38 q 1064 11 1075 22 q 1038 0 1053 0 l 146 0 q 119 11 131 0 q 108 38 108 22 l 108 238 q 115 268 108 256 q 129 286 122 281 l 568 688 l 175 688 q 149 699 160 688 q 138 725 138 710 l 138 935 q 149 961 138 950 q 175 972 160 972 l 1008 972 q 1035 961 1024 972 q 1046 935 1046 950 l 1046 736 q 1028 690 1046 707 l 594 285 l 1038 285 z "},"a":{"ha":1181,"x_min":35,"x_max":1154,"o":"m 390 47 q 328 0 372 0 l 65 0 q 44 9 53 0 q 35 31 35 18 l 36 39 l 339 926 q 360 958 344 944 q 401 972 375 972 l 788 972 q 829 958 814 972 q 850 926 844 944 l 1153 39 l 1154 31 q 1145 9 1154 18 q 1124 0 1136 0 l 861 0 q 799 47 817 0 l 764 144 l 425 144 l 390 47 m 594 704 l 496 415 l 693 415 l 594 704 z "},"á":{"ha":1181,"x_min":35,"x_max":1154,"o":"m 565 1154 q 589 1175 579 1171 q 617 1181 599 1179 l 836 1181 q 856 1173 849 1181 q 863 1153 863 1165 q 856 1136 863 1143 l 724 1025 q 685 1015 711 1015 l 668 1015 l 500 1015 q 478 1038 478 1015 q 485 1056 478 1049 l 565 1154 m 799 47 q 861 0 817 0 l 1124 0 q 1145 9 1136 0 q 1154 31 1154 18 l 1153 39 l 850 926 q 829 958 844 944 q 788 972 814 972 l 401 972 q 360 958 375 972 q 339 926 344 944 l 36 39 l 35 31 q 44 9 35 18 q 65 0 53 0 l 328 0 q 390 47 372 0 l 425 144 l 764 144 l 799 47 m 693 415 l 496 415 l 594 704 l 693 415 z "},"ă":{"ha":1181,"x_min":35,"x_max":1154,"o":"m 651 1169 q 678 1188 661 1188 l 815 1188 q 835 1182 828 1188 q 842 1169 842 1176 q 778 1059 842 1104 q 594 1014 714 1014 q 413 1059 476 1014 q 349 1169 349 1104 q 356 1182 349 1176 q 375 1188 363 1188 l 513 1188 q 539 1169 533 1188 q 554 1146 542 1157 q 594 1135 567 1135 q 633 1144 622 1135 q 651 1169 644 1154 m 390 47 q 328 0 372 0 l 65 0 q 44 9 53 0 q 35 31 35 18 l 36 39 l 339 926 q 360 958 344 944 q 401 972 375 972 l 788 972 q 829 958 814 972 q 850 926 844 944 l 1153 39 l 1154 31 q 1145 9 1154 18 q 1124 0 1136 0 l 861 0 q 799 47 817 0 l 764 144 l 425 144 l 390 47 m 594 704 l 496 415 l 693 415 l 594 704 z "},"â":{"ha":1181,"x_min":35,"x_max":1154,"o":"m 514 1025 q 458 1015 483 1015 l 346 1015 q 330 1022 336 1015 q 324 1038 324 1028 q 335 1057 324 1050 l 450 1154 q 485 1175 471 1169 q 515 1181 500 1181 l 671 1181 q 701 1175 686 1181 q 736 1154 715 1169 l 851 1057 q 863 1038 863 1050 q 856 1022 863 1028 q 840 1015 850 1015 l 728 1015 q 672 1025 703 1015 l 593 1056 l 514 1025 m 799 47 q 861 0 817 0 l 1124 0 q 1145 9 1136 0 q 1154 31 1154 18 l 1153 39 l 850 926 q 829 958 844 944 q 788 972 814 972 l 401 972 q 360 958 375 972 q 339 926 344 944 l 36 39 l 35 31 q 44 9 35 18 q 65 0 53 0 l 328 0 q 390 47 372 0 l 425 144 l 764 144 l 799 47 m 693 415 l 496 415 l 594 704 l 693 415 z "},"ä":{"ha":1181,"x_min":35,"x_max":1154,"o":"m 501 1181 q 524 1172 515 1181 q 533 1149 533 1163 l 533 1047 q 524 1024 533 1033 q 501 1015 515 1015 l 340 1015 q 317 1024 326 1015 q 308 1047 308 1033 l 308 1149 q 317 1172 308 1163 q 340 1181 326 1181 l 501 1181 m 850 1181 q 873 1172 864 1181 q 882 1149 882 1163 l 882 1047 q 873 1024 882 1033 q 850 1015 864 1015 l 689 1015 q 666 1024 675 1015 q 657 1047 657 1033 l 657 1149 q 666 1172 657 1163 q 689 1181 675 1181 l 850 1181 m 799 47 q 861 0 817 0 l 1124 0 q 1145 9 1136 0 q 1154 31 1154 18 l 1153 39 l 850 926 q 829 958 844 944 q 788 972 814 972 l 401 972 q 360 958 375 972 q 339 926 344 944 l 36 39 l 35 31 q 44 9 35 18 q 65 0 53 0 l 328 0 q 390 47 372 0 l 425 144 l 764 144 l 799 47 m 693 415 l 496 415 l 594 704 l 693 415 z "},"à":{"ha":1181,"x_min":35,"x_max":1154,"o":"m 699 1056 q 706 1038 706 1049 q 683 1015 706 1015 l 515 1015 l 499 1015 q 460 1025 472 1015 l 328 1136 q 321 1153 321 1143 q 328 1173 321 1165 q 347 1181 335 1181 l 567 1181 q 594 1175 585 1179 q 618 1154 604 1171 l 699 1056 m 390 47 q 328 0 372 0 l 65 0 q 44 9 53 0 q 35 31 35 18 l 36 39 l 339 926 q 360 958 344 944 q 401 972 375 972 l 788 972 q 829 958 814 972 q 850 926 844 944 l 1153 39 l 1154 31 q 1145 9 1154 18 q 1124 0 1136 0 l 861 0 q 799 47 817 0 l 764 144 l 425 144 l 390 47 m 594 704 l 496 415 l 693 415 l 594 704 z "},"ā":{"ha":1181,"x_min":35,"x_max":1154,"o":"m 846 1181 q 869 1172 860 1181 q 878 1149 878 1163 l 878 1047 q 869 1024 878 1033 q 846 1015 860 1015 l 336 1015 q 313 1024 322 1015 q 304 1047 304 1033 l 304 1149 q 313 1172 304 1163 q 336 1181 322 1181 l 846 1181 m 799 47 q 861 0 817 0 l 1124 0 q 1145 9 1136 0 q 1154 31 1154 18 l 1153 39 l 850 926 q 829 958 844 944 q 788 972 814 972 l 401 972 q 360 958 375 972 q 339 926 344 944 l 36 39 l 35 31 q 44 9 35 18 q 65 0 53 0 l 328 0 q 390 47 372 0 l 425 144 l 764 144 l 799 47 m 693 415 l 496 415 l 594 704 l 693 415 z "},"ą":{"ha":1181,"x_min":35,"x_max":1161,"o":"m 390 47 q 328 0 372 0 l 65 0 q 44 9 53 0 q 35 31 35 18 l 36 39 l 339 926 q 360 958 344 944 q 401 972 375 972 l 788 972 q 829 958 814 972 q 850 926 844 944 l 1153 39 l 1154 31 q 1145 9 1154 18 q 1124 0 1136 0 l 1104 0 q 1054 -36 1054 -1 q 1114 -72 1054 -72 l 1124 -72 q 1151 -81 1140 -72 q 1161 -107 1161 -90 l 1161 -164 q 1151 -188 1161 -179 q 1124 -197 1140 -197 l 1104 -197 q 943 -156 993 -197 q 893 -36 893 -115 q 896 0 893 -11 l 861 0 q 799 47 817 0 l 764 144 l 425 144 l 390 47 m 594 704 l 496 415 l 693 415 l 594 704 z "},"å":{"ha":1181,"x_min":35,"x_max":1154,"o":"m 449 1093 q 489 1162 449 1136 q 589 1188 529 1188 q 689 1162 649 1188 q 729 1093 729 1136 q 689 1024 729 1050 q 589 999 649 999 q 489 1024 529 999 q 449 1093 449 1050 m 546 1093 q 558 1073 546 1081 q 589 1065 571 1065 q 619 1073 607 1065 q 631 1093 631 1081 q 619 1113 631 1106 q 589 1121 607 1121 q 558 1113 571 1121 q 546 1093 546 1106 m 799 47 q 861 0 817 0 l 1124 0 q 1145 9 1136 0 q 1154 31 1154 18 l 1153 39 l 850 926 q 829 958 844 944 q 788 972 814 972 l 401 972 q 360 958 375 972 q 339 926 344 944 l 36 39 l 35 31 q 44 9 35 18 q 65 0 53 0 l 328 0 q 390 47 372 0 l 425 144 l 764 144 l 799 47 m 693 415 l 496 415 l 594 704 l 693 415 z "},"ã":{"ha":1181,"x_min":35,"x_max":1154,"o":"m 676 1014 q 583 1033 633 1014 q 563 1041 581 1035 q 526 1047 544 1047 q 486 1033 503 1047 q 457 1021 474 1021 l 340 1021 q 322 1028 329 1021 q 314 1046 314 1036 q 331 1103 314 1069 q 391 1162 349 1136 q 503 1188 433 1188 q 596 1168 546 1188 q 617 1160 599 1167 q 653 1154 635 1154 q 692 1168 675 1154 q 706 1178 700 1175 q 722 1181 713 1181 l 839 1181 q 858 1173 851 1181 q 865 1154 865 1165 q 848 1098 865 1131 q 788 1040 831 1065 q 676 1014 746 1014 m 799 47 q 861 0 817 0 l 1124 0 q 1145 9 1136 0 q 1154 31 1154 18 l 1153 39 l 850 926 q 829 958 844 944 q 788 972 814 972 l 401 972 q 360 958 375 972 q 339 926 344 944 l 36 39 l 35 31 q 44 9 35 18 q 65 0 53 0 l 328 0 q 390 47 372 0 l 425 144 l 764 144 l 799 47 m 693 415 l 496 415 l 594 704 l 693 415 z "},"æ":{"ha":1181,"x_min":13,"x_max":1168,"o":"m 354 47 q 292 0 336 0 l 43 0 q 22 9 31 0 q 13 31 13 18 l 14 39 l 331 926 q 353 959 338 946 q 393 972 368 972 l 1117 972 q 1143 961 1132 972 q 1154 935 1154 950 l 1154 739 q 1143 713 1154 724 q 1117 701 1132 701 l 933 701 l 933 614 l 1083 614 q 1110 603 1099 614 q 1121 576 1121 592 l 1121 396 q 1110 369 1121 381 q 1083 358 1099 358 l 933 358 l 933 271 l 1131 271 q 1157 260 1146 271 q 1168 233 1168 249 l 1168 38 q 1157 11 1168 22 q 1131 0 1146 0 l 624 0 q 597 11 608 0 q 586 38 586 22 l 586 144 l 389 144 l 354 47 m 586 704 l 558 704 l 460 415 l 586 415 l 586 704 z "},"ǽ":{"ha":1181,"x_min":13,"x_max":1168,"o":"m 638 1154 q 661 1175 651 1171 q 689 1181 671 1179 l 908 1181 q 928 1173 921 1181 q 935 1153 935 1165 q 928 1136 935 1143 l 796 1025 q 757 1015 783 1015 l 740 1015 l 572 1015 q 550 1038 550 1015 q 557 1056 550 1049 l 638 1154 m 354 47 q 292 0 336 0 l 43 0 q 22 9 31 0 q 13 31 13 18 l 14 39 l 331 926 q 353 959 338 946 q 393 972 368 972 l 1117 972 q 1143 961 1132 972 q 1154 935 1154 950 l 1154 739 q 1143 713 1154 724 q 1117 701 1132 701 l 933 701 l 933 614 l 1083 614 q 1110 603 1099 614 q 1121 576 1121 592 l 1121 396 q 1110 369 1121 381 q 1083 358 1099 358 l 933 358 l 933 271 l 1131 271 q 1157 260 1146 271 q 1168 233 1168 249 l 1168 38 q 1157 11 1168 22 q 1131 0 1146 0 l 624 0 q 597 11 608 0 q 586 38 586 22 l 586 144 l 389 144 l 354 47 m 586 704 l 558 704 l 460 415 l 586 415 l 586 704 z "},"b":{"ha":1181,"x_min":118,"x_max":1119,"o":"m 988 507 q 1081 434 1042 490 q 1119 306 1119 378 q 1019 76 1119 151 q 728 0 919 0 l 156 0 q 129 11 140 0 q 118 38 118 22 l 118 935 q 129 961 118 950 q 156 972 140 972 l 714 972 q 1005 901 911 972 q 1099 685 1099 829 l 1099 681 q 1063 567 1099 614 q 988 507 1026 519 m 722 672 q 708 715 722 697 q 665 733 693 733 l 479 733 l 479 607 l 665 607 q 708 627 693 607 q 722 672 722 647 m 681 239 q 728 260 713 239 q 744 308 744 282 l 744 310 q 727 356 744 336 q 681 375 710 375 l 479 375 l 479 239 l 681 239 z "},"c":{"ha":1181,"x_min":88,"x_max":1117,"o":"m 463 375 q 501 288 463 318 q 604 257 539 257 q 690 276 663 257 q 738 335 718 296 q 786 371 756 371 l 1086 371 q 1108 362 1099 371 q 1117 340 1117 353 q 1060 174 1117 256 q 887 40 1003 93 q 604 -14 771 -14 q 340 31 456 -14 q 156 170 224 76 q 88 404 88 264 l 88 568 q 156 802 88 708 q 340 941 224 896 q 604 986 456 986 q 887 933 771 986 q 1060 798 1003 879 q 1117 632 1117 717 q 1108 610 1117 619 q 1086 601 1099 601 l 786 601 q 738 638 756 601 q 690 696 718 676 q 604 715 663 715 q 501 685 539 715 q 463 597 463 654 l 463 375 z "},"ć":{"ha":1181,"x_min":88,"x_max":1117,"o":"m 551 1154 q 575 1175 565 1171 q 603 1181 585 1179 l 822 1181 q 842 1173 835 1181 q 849 1153 849 1165 q 842 1136 849 1143 l 710 1025 q 671 1015 697 1015 l 654 1015 l 486 1015 q 464 1038 464 1015 q 471 1056 464 1049 l 551 1154 m 463 375 q 501 288 463 318 q 604 257 539 257 q 690 276 663 257 q 738 335 718 296 q 786 371 756 371 l 1086 371 q 1108 362 1099 371 q 1117 340 1117 353 q 1060 174 1117 256 q 887 40 1003 93 q 604 -14 771 -14 q 340 31 456 -14 q 156 170 224 76 q 88 404 88 264 l 88 568 q 156 802 88 708 q 340 941 224 896 q 604 986 456 986 q 887 933 771 986 q 1060 798 1003 879 q 1117 632 1117 717 q 1108 610 1117 619 q 1086 601 1099 601 l 786 601 q 738 638 756 601 q 690 696 718 676 q 604 715 663 715 q 501 685 539 715 q 463 597 463 654 l 463 375 z "},"č":{"ha":1181,"x_min":88,"x_max":1117,"o":"m 675 1171 q 731 1181 706 1181 l 843 1181 q 859 1174 853 1181 q 865 1158 865 1168 q 854 1139 865 1146 l 739 1042 q 703 1021 718 1026 q 674 1015 689 1015 l 518 1015 q 488 1021 503 1015 q 453 1042 474 1026 l 338 1139 q 326 1158 326 1146 q 333 1174 326 1168 q 349 1181 339 1181 l 461 1181 q 517 1171 486 1181 l 596 1140 l 675 1171 m 463 375 q 501 288 463 318 q 604 257 539 257 q 690 276 663 257 q 738 335 718 296 q 786 371 756 371 l 1086 371 q 1108 362 1099 371 q 1117 340 1117 353 q 1060 174 1117 256 q 887 40 1003 93 q 604 -14 771 -14 q 340 31 456 -14 q 156 170 224 76 q 88 404 88 264 l 88 568 q 156 802 88 708 q 340 941 224 896 q 604 986 456 986 q 887 933 771 986 q 1060 798 1003 879 q 1117 632 1117 717 q 1108 610 1117 619 q 1086 601 1099 601 l 786 601 q 738 638 756 601 q 690 696 718 676 q 604 715 663 715 q 501 685 539 715 q 463 597 463 654 l 463 375 z "},"ç":{"ha":1181,"x_min":88,"x_max":1117,"o":"m 463 375 q 501 288 463 318 q 604 257 539 257 q 690 276 663 257 q 738 335 718 296 q 786 371 756 371 l 1086 371 q 1108 362 1099 371 q 1117 340 1117 353 q 1064 181 1117 260 q 903 47 1011 101 q 640 -12 796 -7 l 632 -36 q 683 -31 644 -31 q 774 -53 739 -31 q 810 -115 810 -75 q 760 -185 810 -162 q 649 -208 711 -208 q 526 -190 579 -208 q 474 -139 474 -172 q 492 -124 474 -124 l 576 -124 q 606 -132 592 -124 q 622 -139 613 -136 q 649 -142 632 -142 q 679 -134 669 -142 q 689 -115 689 -126 q 650 -92 689 -92 q 613 -98 629 -92 q 583 -104 596 -104 l 522 -104 q 501 -86 501 -104 q 504 -74 501 -82 l 525 -10 q 208 111 328 7 q 88 404 88 215 l 88 568 q 156 802 88 708 q 340 941 224 896 q 604 986 456 986 q 887 933 771 986 q 1060 798 1003 879 q 1117 632 1117 717 q 1108 610 1117 619 q 1086 601 1099 601 l 786 601 q 738 638 756 601 q 690 696 718 676 q 604 715 663 715 q 501 685 539 715 q 463 597 463 654 l 463 375 z "},"ĉ":{"ha":1181,"x_min":88,"x_max":1117,"o":"m 521 1025 q 465 1015 490 1015 l 353 1015 q 337 1022 343 1015 q 331 1038 331 1028 q 342 1057 331 1050 l 457 1154 q 492 1175 478 1169 q 522 1181 507 1181 l 678 1181 q 708 1175 693 1181 q 743 1154 722 1169 l 858 1057 q 869 1038 869 1050 q 863 1022 869 1028 q 847 1015 857 1015 l 735 1015 q 679 1025 710 1015 l 600 1056 l 521 1025 m 463 375 q 501 288 463 318 q 604 257 539 257 q 690 276 663 257 q 738 335 718 296 q 786 371 756 371 l 1086 371 q 1108 362 1099 371 q 1117 340 1117 353 q 1060 174 1117 256 q 887 40 1003 93 q 604 -14 771 -14 q 340 31 456 -14 q 156 170 224 76 q 88 404 88 264 l 88 568 q 156 802 88 708 q 340 941 224 896 q 604 986 456 986 q 887 933 771 986 q 1060 798 1003 879 q 1117 632 1117 717 q 1108 610 1117 619 q 1086 601 1099 601 l 786 601 q 738 638 756 601 q 690 696 718 676 q 604 715 663 715 q 501 685 539 715 q 463 597 463 654 l 463 375 z "},"ċ":{"ha":1181,"x_min":88,"x_max":1117,"o":"m 688 1181 q 710 1172 701 1181 q 719 1149 719 1163 l 719 1047 q 710 1024 719 1033 q 688 1015 701 1015 l 499 1015 q 476 1024 485 1015 q 467 1047 467 1033 l 467 1149 q 476 1172 467 1163 q 499 1181 485 1181 l 688 1181 m 463 375 q 501 288 463 318 q 604 257 539 257 q 690 276 663 257 q 738 335 718 296 q 786 371 756 371 l 1086 371 q 1108 362 1099 371 q 1117 340 1117 353 q 1060 174 1117 256 q 887 40 1003 93 q 604 -14 771 -14 q 340 31 456 -14 q 156 170 224 76 q 88 404 88 264 l 88 568 q 156 802 88 708 q 340 941 224 896 q 604 986 456 986 q 887 933 771 986 q 1060 798 1003 879 q 1117 632 1117 717 q 1108 610 1117 619 q 1086 601 1099 601 l 786 601 q 738 638 756 601 q 690 696 718 676 q 604 715 663 715 q 501 685 539 715 q 463 597 463 654 l 463 375 z "},"d":{"ha":1181,"x_min":106,"x_max":1103,"o":"m 586 972 q 962 871 821 972 q 1103 557 1103 769 l 1103 415 q 963 99 1103 199 q 586 0 824 0 l 143 0 q 117 11 128 0 q 106 38 106 22 l 106 935 q 117 961 106 950 q 143 972 128 972 l 586 972 m 593 271 q 697 302 658 271 q 735 390 735 333 l 735 582 q 697 670 735 639 q 593 701 658 701 l 467 701 l 467 271 l 593 271 z "},"ð":{"ha":1181,"x_min":0,"x_max":1103,"o":"m 586 972 q 962 871 821 972 q 1103 557 1103 769 l 1103 415 q 963 99 1103 199 q 586 0 824 0 l 143 0 q 117 11 128 0 q 106 38 106 22 l 106 381 l 38 381 q 11 392 22 381 q 0 418 0 403 l 0 558 q 11 585 0 574 q 38 596 22 596 l 106 596 l 106 935 q 117 961 106 950 q 143 972 128 972 l 586 972 m 585 596 q 611 585 600 596 q 622 558 622 574 l 622 418 q 611 392 622 403 q 585 381 600 381 l 467 381 l 467 271 l 593 271 q 697 302 658 271 q 735 390 735 333 l 735 582 q 697 670 735 639 q 593 701 658 701 l 467 701 l 467 596 l 585 596 z "},"ď":{"ha":1181,"x_min":106,"x_max":1103,"o":"m 614 1171 q 669 1181 644 1181 l 782 1181 q 798 1174 792 1181 q 804 1158 804 1168 q 793 1139 804 1146 l 678 1042 q 642 1021 657 1026 q 613 1015 628 1015 l 457 1015 q 427 1021 442 1015 q 392 1042 413 1026 l 276 1139 q 265 1158 265 1146 q 272 1174 265 1168 q 288 1181 278 1181 l 400 1181 q 456 1171 425 1181 l 535 1140 l 614 1171 m 586 972 q 962 871 821 972 q 1103 557 1103 769 l 1103 415 q 963 99 1103 199 q 586 0 824 0 l 143 0 q 117 11 128 0 q 106 38 106 22 l 106 935 q 117 961 106 950 q 143 972 128 972 l 586 972 m 593 271 q 697 302 658 271 q 735 390 735 333 l 735 582 q 697 670 735 639 q 593 701 658 701 l 467 701 l 467 271 l 593 271 z "},"đ":{"ha":1181,"x_min":0,"x_max":1103,"o":"m 586 972 q 962 871 821 972 q 1103 557 1103 769 l 1103 415 q 963 99 1103 199 q 586 0 824 0 l 143 0 q 117 11 128 0 q 106 38 106 22 l 106 381 l 38 381 q 11 392 22 381 q 0 418 0 403 l 0 558 q 11 585 0 574 q 38 596 22 596 l 106 596 l 106 935 q 117 961 106 950 q 143 972 128 972 l 586 972 m 515 596 q 542 585 531 596 q 553 558 553 574 l 553 418 q 542 392 553 403 q 515 381 531 381 l 467 381 l 467 271 l 593 271 q 697 302 658 271 q 735 390 735 333 l 735 582 q 697 670 735 639 q 593 701 658 701 l 467 701 l 467 596 l 515 596 z "},"e":{"ha":1181,"x_min":125,"x_max":1078,"o":"m 1040 271 q 1067 260 1056 271 q 1078 233 1078 249 l 1078 38 q 1067 11 1078 22 q 1040 0 1056 0 l 163 0 q 136 11 147 0 q 125 38 125 22 l 125 935 q 136 961 125 950 q 163 972 147 972 l 1026 972 q 1053 961 1042 972 q 1064 935 1064 950 l 1064 739 q 1053 713 1064 724 q 1026 701 1042 701 l 486 701 l 486 614 l 950 614 q 976 603 965 614 q 988 576 988 592 l 988 396 q 976 369 988 381 q 950 358 965 358 l 486 358 l 486 271 l 1040 271 z "},"é":{"ha":1181,"x_min":139,"x_max":1092,"o":"m 564 1160 q 588 1181 578 1176 q 615 1186 597 1185 l 835 1186 q 854 1178 847 1186 q 861 1158 861 1171 q 854 1142 861 1149 l 722 1031 q 683 1021 710 1021 l 667 1021 l 499 1021 q 476 1043 476 1021 q 483 1061 476 1054 l 564 1160 m 1054 271 q 1081 260 1069 271 q 1092 233 1092 249 l 1092 38 q 1081 11 1092 22 q 1054 0 1069 0 l 176 0 q 150 11 161 0 q 139 38 139 22 l 139 935 q 150 961 139 950 q 176 972 161 972 l 1040 972 q 1067 961 1056 972 q 1078 935 1078 950 l 1078 739 q 1067 713 1078 724 q 1040 701 1056 701 l 500 701 l 500 614 l 964 614 q 990 603 979 614 q 1001 576 1001 592 l 1001 396 q 990 369 1001 381 q 964 358 979 358 l 500 358 l 500 271 l 1054 271 z "},"ĕ":{"ha":1181,"x_min":125,"x_max":1078,"o":"m 660 1169 q 686 1188 669 1188 l 824 1188 q 843 1182 836 1188 q 850 1169 850 1176 q 786 1059 850 1104 q 603 1014 722 1014 q 421 1059 485 1014 q 357 1169 357 1104 q 364 1182 357 1176 q 383 1188 371 1188 l 521 1188 q 547 1169 542 1188 q 563 1146 550 1157 q 603 1135 575 1135 q 642 1144 631 1135 q 660 1169 653 1154 m 1040 271 q 1067 260 1056 271 q 1078 233 1078 249 l 1078 38 q 1067 11 1078 22 q 1040 0 1056 0 l 163 0 q 136 11 147 0 q 125 38 125 22 l 125 935 q 136 961 125 950 q 163 972 147 972 l 1026 972 q 1053 961 1042 972 q 1064 935 1064 950 l 1064 739 q 1053 713 1064 724 q 1026 701 1042 701 l 486 701 l 486 614 l 950 614 q 976 603 965 614 q 988 576 988 592 l 988 396 q 976 369 988 381 q 950 358 965 358 l 486 358 l 486 271 l 1040 271 z "},"ě":{"ha":1181,"x_min":125,"x_max":1078,"o":"m 669 1171 q 725 1181 700 1181 l 838 1181 q 853 1174 847 1181 q 860 1158 860 1168 q 849 1139 860 1146 l 733 1042 q 698 1021 713 1026 q 668 1015 683 1015 l 513 1015 q 483 1021 497 1015 q 447 1042 468 1026 l 332 1139 q 321 1158 321 1146 q 327 1174 321 1168 q 343 1181 333 1181 l 456 1181 q 511 1171 481 1181 l 590 1140 l 669 1171 m 1040 271 q 1067 260 1056 271 q 1078 233 1078 249 l 1078 38 q 1067 11 1078 22 q 1040 0 1056 0 l 163 0 q 136 11 147 0 q 125 38 125 22 l 125 935 q 136 961 125 950 q 163 972 147 972 l 1026 972 q 1053 961 1042 972 q 1064 935 1064 950 l 1064 739 q 1053 713 1064 724 q 1026 701 1042 701 l 486 701 l 486 614 l 950 614 q 976 603 965 614 q 988 576 988 592 l 988 396 q 976 369 988 381 q 950 358 965 358 l 486 358 l 486 271 l 1040 271 z "},"ê":{"ha":1181,"x_min":139,"x_max":1092,"o":"m 510 1025 q 454 1015 479 1015 l 342 1015 q 326 1022 332 1015 q 319 1038 319 1028 q 331 1057 319 1050 l 446 1154 q 481 1175 467 1169 q 511 1181 496 1181 l 667 1181 q 697 1175 682 1181 q 732 1154 711 1169 l 847 1057 q 858 1038 858 1050 q 852 1022 858 1028 q 836 1015 846 1015 l 724 1015 q 668 1025 699 1015 l 589 1056 l 510 1025 m 1054 271 q 1081 260 1069 271 q 1092 233 1092 249 l 1092 38 q 1081 11 1092 22 q 1054 0 1069 0 l 176 0 q 150 11 161 0 q 139 38 139 22 l 139 935 q 150 961 139 950 q 176 972 161 972 l 1040 972 q 1067 961 1056 972 q 1078 935 1078 950 l 1078 739 q 1067 713 1078 724 q 1040 701 1056 701 l 500 701 l 500 614 l 964 614 q 990 603 979 614 q 1001 576 1001 592 l 1001 396 q 990 369 1001 381 q 964 358 979 358 l 500 358 l 500 271 l 1054 271 z "},"ë":{"ha":1181,"x_min":139,"x_max":1092,"o":"m 507 1181 q 530 1172 521 1181 q 539 1149 539 1163 l 539 1047 q 530 1024 539 1033 q 507 1015 521 1015 l 346 1015 q 323 1024 332 1015 q 314 1047 314 1033 l 314 1149 q 323 1172 314 1163 q 346 1181 332 1181 l 507 1181 m 856 1181 q 878 1172 869 1181 q 888 1149 888 1163 l 888 1047 q 878 1024 888 1033 q 856 1015 869 1015 l 694 1015 q 672 1024 681 1015 q 663 1047 663 1033 l 663 1149 q 672 1172 663 1163 q 694 1181 681 1181 l 856 1181 m 1054 271 q 1081 260 1069 271 q 1092 233 1092 249 l 1092 38 q 1081 11 1092 22 q 1054 0 1069 0 l 176 0 q 150 11 161 0 q 139 38 139 22 l 139 935 q 150 961 139 950 q 176 972 161 972 l 1040 972 q 1067 961 1056 972 q 1078 935 1078 950 l 1078 739 q 1067 713 1078 724 q 1040 701 1056 701 l 500 701 l 500 614 l 964 614 q 990 603 979 614 q 1001 576 1001 592 l 1001 396 q 990 369 1001 381 q 964 358 979 358 l 500 358 l 500 271 l 1054 271 z "},"ė":{"ha":1181,"x_min":125,"x_max":1078,"o":"m 685 1181 q 708 1172 699 1181 q 717 1149 717 1163 l 717 1047 q 708 1024 717 1033 q 685 1015 699 1015 l 496 1015 q 473 1024 482 1015 q 464 1047 464 1033 l 464 1149 q 473 1172 464 1163 q 496 1181 482 1181 l 685 1181 m 1040 271 q 1067 260 1056 271 q 1078 233 1078 249 l 1078 38 q 1067 11 1078 22 q 1040 0 1056 0 l 163 0 q 136 11 147 0 q 125 38 125 22 l 125 935 q 136 961 125 950 q 163 972 147 972 l 1026 972 q 1053 961 1042 972 q 1064 935 1064 950 l 1064 739 q 1053 713 1064 724 q 1026 701 1042 701 l 486 701 l 486 614 l 950 614 q 976 603 965 614 q 988 576 988 592 l 988 396 q 976 369 988 381 q 950 358 965 358 l 486 358 l 486 271 l 1040 271 z "},"è":{"ha":1181,"x_min":139,"x_max":1092,"o":"m 758 1056 q 765 1038 765 1049 q 743 1015 765 1015 l 575 1015 l 558 1015 q 519 1025 532 1015 l 388 1136 q 381 1153 381 1143 q 388 1173 381 1165 q 407 1181 394 1181 l 626 1181 q 654 1175 644 1179 q 678 1154 664 1171 l 758 1056 m 1054 271 q 1081 260 1069 271 q 1092 233 1092 249 l 1092 38 q 1081 11 1092 22 q 1054 0 1069 0 l 176 0 q 150 11 161 0 q 139 38 139 22 l 139 935 q 150 961 139 950 q 176 972 161 972 l 1040 972 q 1067 961 1056 972 q 1078 935 1078 950 l 1078 739 q 1067 713 1078 724 q 1040 701 1056 701 l 500 701 l 500 614 l 964 614 q 990 603 979 614 q 1001 576 1001 592 l 1001 396 q 990 369 1001 381 q 964 358 979 358 l 500 358 l 500 271 l 1054 271 z "},"ē":{"ha":1181,"x_min":125,"x_max":1078,"o":"m 832 1181 q 855 1172 846 1181 q 864 1149 864 1163 l 864 1047 q 855 1024 864 1033 q 832 1015 846 1015 l 322 1015 q 299 1024 308 1015 q 290 1047 290 1033 l 290 1149 q 299 1172 290 1163 q 322 1181 308 1181 l 832 1181 m 1040 271 q 1067 260 1056 271 q 1078 233 1078 249 l 1078 38 q 1067 11 1078 22 q 1040 0 1056 0 l 163 0 q 136 11 147 0 q 125 38 125 22 l 125 935 q 136 961 125 950 q 163 972 147 972 l 1026 972 q 1053 961 1042 972 q 1064 935 1064 950 l 1064 739 q 1053 713 1064 724 q 1026 701 1042 701 l 486 701 l 486 614 l 950 614 q 976 603 965 614 q 988 576 988 592 l 988 396 q 976 369 988 381 q 950 358 965 358 l 486 358 l 486 271 l 1040 271 z "},"ę":{"ha":1181,"x_min":125,"x_max":1078,"o":"m 1040 271 q 1067 260 1056 271 q 1078 233 1078 249 l 1078 38 q 1067 11 1078 22 q 1040 0 1056 0 l 1031 0 q 971 -36 971 0 q 1031 -72 971 -72 l 1040 -72 q 1067 -81 1057 -72 q 1078 -107 1078 -90 l 1078 -164 q 1067 -188 1078 -179 q 1040 -197 1057 -197 l 1021 -197 q 860 -156 910 -197 q 810 -36 810 -115 q 813 0 810 -11 l 163 0 q 136 11 147 0 q 125 38 125 22 l 125 935 q 136 961 125 950 q 163 972 147 972 l 1026 972 q 1053 961 1042 972 q 1064 935 1064 950 l 1064 739 q 1053 713 1064 724 q 1026 701 1042 701 l 486 701 l 486 614 l 950 614 q 976 603 965 614 q 988 576 988 592 l 988 396 q 976 369 988 381 q 950 358 965 358 l 486 358 l 486 271 l 1040 271 z "},"f":{"ha":1181,"x_min":139,"x_max":1097,"o":"m 1060 972 q 1086 961 1075 972 q 1097 935 1097 950 l 1097 724 q 1086 697 1097 708 q 1060 686 1075 686 l 514 686 l 514 597 l 969 597 q 996 586 985 597 q 1007 560 1007 575 l 1007 350 q 996 324 1007 335 q 969 313 985 313 l 514 313 l 514 38 q 503 11 514 22 q 476 0 492 0 l 176 0 q 150 11 161 0 q 139 38 139 22 l 139 935 q 150 961 139 950 q 176 972 161 972 l 1060 972 z "},"g":{"ha":1181,"x_min":81,"x_max":1128,"o":"m 1090 586 q 1117 575 1106 586 q 1128 549 1128 564 l 1128 401 q 984 88 1128 190 q 604 -14 840 -14 q 224 88 368 -14 q 81 404 81 190 l 81 568 q 150 803 81 710 q 338 942 219 897 q 604 986 456 986 q 897 928 782 986 q 1065 796 1013 869 q 1117 676 1117 722 q 1108 655 1117 664 q 1086 646 1099 646 l 772 646 q 732 661 744 646 q 604 715 689 715 q 498 686 540 715 q 456 611 456 657 l 456 375 q 497 288 456 319 q 604 257 539 257 q 731 287 690 257 q 774 357 772 317 l 688 357 q 661 368 672 357 q 650 394 650 379 l 650 549 q 661 575 650 564 q 688 586 672 586 l 1090 586 z "},"ğ":{"ha":1181,"x_min":81,"x_max":1128,"o":"m 646 1169 q 672 1188 656 1188 l 810 1188 q 829 1182 822 1188 q 836 1169 836 1176 q 772 1059 836 1104 q 589 1014 708 1014 q 407 1059 471 1014 q 343 1169 343 1104 q 350 1182 343 1176 q 369 1188 357 1188 l 507 1188 q 533 1169 528 1188 q 549 1146 536 1157 q 589 1135 561 1135 q 628 1144 617 1135 q 646 1169 639 1154 m 1090 586 q 1117 575 1106 586 q 1128 549 1128 564 l 1128 401 q 984 88 1128 190 q 604 -14 840 -14 q 224 88 368 -14 q 81 404 81 190 l 81 568 q 150 803 81 710 q 338 942 219 897 q 604 986 456 986 q 897 928 782 986 q 1065 796 1013 869 q 1117 676 1117 722 q 1108 655 1117 664 q 1086 646 1099 646 l 772 646 q 732 661 744 646 q 604 715 689 715 q 498 686 540 715 q 456 611 456 657 l 456 375 q 497 288 456 319 q 604 257 539 257 q 731 287 690 257 q 774 357 772 317 l 688 357 q 661 368 672 357 q 650 394 650 379 l 650 549 q 661 575 650 564 q 688 586 672 586 l 1090 586 z "},"ĝ":{"ha":1181,"x_min":81,"x_max":1128,"o":"m 521 1025 q 465 1015 490 1015 l 353 1015 q 337 1022 343 1015 q 331 1038 331 1028 q 342 1057 331 1050 l 457 1154 q 492 1175 478 1169 q 522 1181 507 1181 l 678 1181 q 708 1175 693 1181 q 743 1154 722 1169 l 858 1057 q 869 1038 869 1050 q 863 1022 869 1028 q 847 1015 857 1015 l 735 1015 q 679 1025 710 1015 l 600 1056 l 521 1025 m 1090 586 q 1117 575 1106 586 q 1128 549 1128 564 l 1128 401 q 984 88 1128 190 q 604 -14 840 -14 q 224 88 368 -14 q 81 404 81 190 l 81 568 q 150 803 81 710 q 338 942 219 897 q 604 986 456 986 q 897 928 782 986 q 1065 796 1013 869 q 1117 676 1117 722 q 1108 655 1117 664 q 1086 646 1099 646 l 772 646 q 732 661 744 646 q 604 715 689 715 q 498 686 540 715 q 456 611 456 657 l 456 375 q 497 288 456 319 q 604 257 539 257 q 731 287 690 257 q 774 357 772 317 l 688 357 q 661 368 672 357 q 650 394 650 379 l 650 549 q 661 575 650 564 q 688 586 672 586 l 1090 586 z "},"ģ":{"ha":1181,"x_min":81,"x_max":1128,"o":"m 1090 586 q 1117 575 1106 586 q 1128 549 1128 564 l 1128 401 q 984 88 1128 190 q 604 -14 840 -14 q 224 88 368 -14 q 81 404 81 190 l 81 568 q 150 803 81 710 q 338 942 219 897 q 604 986 456 986 q 897 928 782 986 q 1065 796 1013 869 q 1117 676 1117 722 q 1108 655 1117 664 q 1086 646 1099 646 l 772 646 q 732 661 744 646 q 604 715 689 715 q 498 686 540 715 q 456 611 456 657 l 456 375 q 497 288 456 319 q 604 257 539 257 q 731 287 690 257 q 774 357 772 317 l 688 357 q 661 368 672 357 q 650 394 650 379 l 650 549 q 661 575 650 564 q 688 586 672 586 l 1090 586 m 449 -69 q 472 -49 463 -53 q 500 -43 482 -44 l 719 -43 q 739 -51 732 -43 q 746 -71 746 -58 q 739 -87 746 -81 l 607 -199 q 568 -208 594 -208 l 551 -208 l 383 -208 q 361 -186 361 -208 q 368 -168 361 -175 l 449 -69 z "},"ġ":{"ha":1181,"x_min":81,"x_max":1128,"o":"m 685 1181 q 708 1172 699 1181 q 717 1149 717 1163 l 717 1047 q 708 1024 717 1033 q 685 1015 699 1015 l 496 1015 q 473 1024 482 1015 q 464 1047 464 1033 l 464 1149 q 473 1172 464 1163 q 496 1181 482 1181 l 685 1181 m 1090 586 q 1117 575 1106 586 q 1128 549 1128 564 l 1128 401 q 984 88 1128 190 q 604 -14 840 -14 q 224 88 368 -14 q 81 404 81 190 l 81 568 q 150 803 81 710 q 338 942 219 897 q 604 986 456 986 q 897 928 782 986 q 1065 796 1013 869 q 1117 676 1117 722 q 1108 655 1117 664 q 1086 646 1099 646 l 772 646 q 732 661 744 646 q 604 715 689 715 q 498 686 540 715 q 456 611 456 657 l 456 375 q 497 288 456 319 q 604 257 539 257 q 731 287 690 257 q 774 357 772 317 l 688 357 q 661 368 672 357 q 650 394 650 379 l 650 549 q 661 575 650 564 q 688 586 672 586 l 1090 586 z "},"h":{"ha":1181,"x_min":90,"x_max":1090,"o":"m 1053 972 q 1079 961 1068 972 q 1090 935 1090 950 l 1090 38 q 1079 11 1090 22 q 1053 0 1068 0 l 767 0 q 740 11 751 0 q 729 38 729 22 l 729 333 l 451 333 l 451 38 q 440 11 451 22 q 414 0 429 0 l 128 0 q 101 10 113 0 q 90 38 90 21 l 90 935 q 101 961 90 950 q 128 972 113 972 l 414 972 q 440 961 429 972 q 451 935 451 950 l 451 650 l 729 650 l 729 935 q 740 961 729 950 q 767 972 751 972 l 1053 972 z "},"ħ":{"ha":1181,"x_min":90,"x_max":1090,"o":"m 1053 972 q 1079 961 1068 972 q 1090 935 1090 950 l 1090 38 q 1079 11 1090 22 q 1053 0 1068 0 l 767 0 q 740 11 751 0 q 729 38 729 22 l 729 333 l 451 333 l 451 38 q 440 11 451 22 q 414 0 429 0 l 128 0 q 101 10 113 0 q 90 38 90 21 l 90 935 q 101 961 90 950 q 128 972 113 972 l 414 972 q 440 961 429 972 q 451 935 451 950 l 451 885 l 729 885 l 729 935 q 740 961 729 950 q 767 972 751 972 l 1053 972 m 729 650 l 729 711 l 451 711 l 451 650 l 729 650 z "},"ĥ":{"ha":1181,"x_min":90,"x_max":1090,"o":"m 507 1025 q 451 1015 476 1015 l 339 1015 q 323 1022 329 1015 q 317 1038 317 1028 q 328 1057 317 1050 l 443 1154 q 478 1175 464 1169 q 508 1181 493 1181 l 664 1181 q 694 1175 679 1181 q 729 1154 708 1169 l 844 1057 q 856 1038 856 1050 q 849 1022 856 1028 q 833 1015 843 1015 l 721 1015 q 665 1025 696 1015 l 586 1056 l 507 1025 m 1053 972 q 1079 961 1068 972 q 1090 935 1090 950 l 1090 38 q 1079 11 1090 22 q 1053 0 1068 0 l 767 0 q 740 11 751 0 q 729 38 729 22 l 729 333 l 451 333 l 451 38 q 440 11 451 22 q 414 0 429 0 l 128 0 q 101 10 113 0 q 90 38 90 21 l 90 935 q 101 961 90 950 q 128 972 113 972 l 414 972 q 440 961 429 972 q 451 935 451 950 l 451 650 l 729 650 l 729 935 q 740 961 729 950 q 767 972 751 972 l 1053 972 z "},"i":{"ha":1181,"x_min":113,"x_max":1068,"o":"m 779 285 l 1031 285 q 1057 274 1046 285 q 1068 247 1068 263 l 1068 38 q 1057 11 1068 22 q 1031 0 1046 0 l 150 0 q 124 11 135 0 q 113 38 113 22 l 113 247 q 124 274 113 263 q 150 285 135 285 l 404 285 l 404 688 l 150 688 q 124 699 135 688 q 113 725 113 710 l 113 935 q 124 961 113 950 q 150 972 135 972 l 1031 972 q 1057 961 1046 972 q 1068 935 1068 950 l 1068 725 q 1057 699 1068 710 q 1031 688 1046 688 l 779 688 l 779 285 z "},"ı":{"ha":1181,"x_min":113,"x_max":1068,"o":"m 779 285 l 1031 285 q 1057 274 1046 285 q 1068 247 1068 263 l 1068 38 q 1057 11 1068 22 q 1031 0 1046 0 l 150 0 q 124 11 135 0 q 113 38 113 22 l 113 247 q 124 274 113 263 q 150 285 135 285 l 404 285 l 404 688 l 150 688 q 124 699 135 688 q 113 725 113 710 l 113 935 q 124 961 113 950 q 150 972 135 972 l 1031 972 q 1057 961 1046 972 q 1068 935 1068 950 l 1068 725 q 1057 699 1068 710 q 1031 688 1046 688 l 779 688 l 779 285 z "},"í":{"ha":1181,"x_min":113,"x_max":1068,"o":"m 565 1154 q 589 1175 579 1171 q 617 1181 599 1179 l 836 1181 q 856 1173 849 1181 q 863 1153 863 1165 q 856 1136 863 1143 l 724 1025 q 685 1015 711 1015 l 668 1015 l 500 1015 q 478 1038 478 1015 q 485 1056 478 1049 l 565 1154 m 779 285 l 1031 285 q 1057 274 1046 285 q 1068 247 1068 263 l 1068 38 q 1057 11 1068 22 q 1031 0 1046 0 l 150 0 q 124 11 135 0 q 113 38 113 22 l 113 247 q 124 274 113 263 q 150 285 135 285 l 404 285 l 404 688 l 150 688 q 124 699 135 688 q 113 725 113 710 l 113 935 q 124 961 113 950 q 150 972 135 972 l 1031 972 q 1057 961 1046 972 q 1068 935 1068 950 l 1068 725 q 1057 699 1068 710 q 1031 688 1046 688 l 779 688 l 779 285 z "},"ĭ":{"ha":1181,"x_min":113,"x_max":1068,"o":"m 647 1169 q 674 1188 657 1188 l 811 1188 q 831 1182 824 1188 q 838 1169 838 1176 q 774 1059 838 1104 q 590 1014 710 1014 q 408 1059 472 1014 q 344 1169 344 1104 q 351 1182 344 1176 q 371 1188 358 1188 l 508 1188 q 535 1169 529 1188 q 550 1146 538 1157 q 590 1135 563 1135 q 629 1144 618 1135 q 647 1169 640 1154 m 779 285 l 1031 285 q 1057 274 1046 285 q 1068 247 1068 263 l 1068 38 q 1057 11 1068 22 q 1031 0 1046 0 l 150 0 q 124 11 135 0 q 113 38 113 22 l 113 247 q 124 274 113 263 q 150 285 135 285 l 404 285 l 404 688 l 150 688 q 124 699 135 688 q 113 725 113 710 l 113 935 q 124 961 113 950 q 150 972 135 972 l 1031 972 q 1057 961 1046 972 q 1068 935 1068 950 l 1068 725 q 1057 699 1068 710 q 1031 688 1046 688 l 779 688 l 779 285 z "},"î":{"ha":1181,"x_min":113,"x_max":1068,"o":"m 511 1025 q 456 1015 481 1015 l 343 1015 q 327 1022 333 1015 q 321 1038 321 1028 q 332 1057 321 1050 l 447 1154 q 483 1175 468 1169 q 513 1181 497 1181 l 668 1181 q 698 1175 683 1181 q 733 1154 713 1169 l 849 1057 q 860 1038 860 1050 q 853 1022 860 1028 q 838 1015 847 1015 l 725 1015 q 669 1025 700 1015 l 590 1056 l 511 1025 m 779 285 l 1031 285 q 1057 274 1046 285 q 1068 247 1068 263 l 1068 38 q 1057 11 1068 22 q 1031 0 1046 0 l 150 0 q 124 11 135 0 q 113 38 113 22 l 113 247 q 124 274 113 263 q 150 285 135 285 l 404 285 l 404 688 l 150 688 q 124 699 135 688 q 113 725 113 710 l 113 935 q 124 961 113 950 q 150 972 135 972 l 1031 972 q 1057 961 1046 972 q 1068 935 1068 950 l 1068 725 q 1057 699 1068 710 q 1031 688 1046 688 l 779 688 l 779 285 z "},"ï":{"ha":1181,"x_min":113,"x_max":1068,"o":"m 496 1181 q 519 1172 510 1181 q 528 1149 528 1163 l 528 1047 q 519 1024 528 1033 q 496 1015 510 1015 l 335 1015 q 312 1024 321 1015 q 303 1047 303 1033 l 303 1149 q 312 1172 303 1163 q 335 1181 321 1181 l 496 1181 m 844 1181 q 867 1172 858 1181 q 876 1149 876 1163 l 876 1047 q 867 1024 876 1033 q 844 1015 858 1015 l 683 1015 q 660 1024 669 1015 q 651 1047 651 1033 l 651 1149 q 660 1172 651 1163 q 683 1181 669 1181 l 844 1181 m 779 285 l 1031 285 q 1057 274 1046 285 q 1068 247 1068 263 l 1068 38 q 1057 11 1068 22 q 1031 0 1046 0 l 150 0 q 124 11 135 0 q 113 38 113 22 l 113 247 q 124 274 113 263 q 150 285 135 285 l 404 285 l 404 688 l 150 688 q 124 699 135 688 q 113 725 113 710 l 113 935 q 124 961 113 950 q 150 972 135 972 l 1031 972 q 1057 961 1046 972 q 1068 935 1068 950 l 1068 725 q 1057 699 1068 710 q 1031 688 1046 688 l 779 688 l 779 285 z "},"ì":{"ha":1181,"x_min":113,"x_max":1068,"o":"m 739 1056 q 746 1038 746 1049 q 724 1015 746 1015 l 556 1015 l 539 1015 q 500 1025 513 1015 l 368 1136 q 361 1153 361 1143 q 368 1173 361 1165 q 388 1181 375 1181 l 607 1181 q 635 1175 625 1179 q 658 1154 644 1171 l 739 1056 m 779 285 l 1031 285 q 1057 274 1046 285 q 1068 247 1068 263 l 1068 38 q 1057 11 1068 22 q 1031 0 1046 0 l 150 0 q 124 11 135 0 q 113 38 113 22 l 113 247 q 124 274 113 263 q 150 285 135 285 l 404 285 l 404 688 l 150 688 q 124 699 135 688 q 113 725 113 710 l 113 935 q 124 961 113 950 q 150 972 135 972 l 1031 972 q 1057 961 1046 972 q 1068 935 1068 950 l 1068 725 q 1057 699 1068 710 q 1031 688 1046 688 l 779 688 l 779 285 z "},"ī":{"ha":1181,"x_min":113,"x_max":1068,"o":"m 846 1181 q 869 1172 860 1181 q 878 1149 878 1163 l 878 1047 q 869 1024 878 1033 q 846 1015 860 1015 l 336 1015 q 313 1024 322 1015 q 304 1047 304 1033 l 304 1149 q 313 1172 304 1163 q 336 1181 322 1181 l 846 1181 m 779 285 l 1031 285 q 1057 274 1046 285 q 1068 247 1068 263 l 1068 38 q 1057 11 1068 22 q 1031 0 1046 0 l 150 0 q 124 11 135 0 q 113 38 113 22 l 113 247 q 124 274 113 263 q 150 285 135 285 l 404 285 l 404 688 l 150 688 q 124 699 135 688 q 113 725 113 710 l 113 935 q 124 961 113 950 q 150 972 135 972 l 1031 972 q 1057 961 1046 972 q 1068 935 1068 950 l 1068 725 q 1057 699 1068 710 q 1031 688 1046 688 l 779 688 l 779 285 z "},"į":{"ha":1181,"x_min":113,"x_max":1068,"o":"m 779 285 l 1031 285 q 1057 274 1046 285 q 1068 247 1068 263 l 1068 38 q 1057 11 1068 22 q 1031 0 1046 0 l 1021 0 q 961 -36 961 0 q 1021 -72 961 -72 l 1031 -72 q 1058 -81 1047 -72 q 1068 -107 1068 -90 l 1068 -164 q 1058 -188 1068 -179 q 1031 -197 1047 -197 l 1011 -197 q 850 -156 900 -197 q 800 -36 800 -115 q 803 0 800 -11 l 150 0 q 124 11 135 0 q 113 38 113 22 l 113 247 q 124 274 113 263 q 150 285 135 285 l 404 285 l 404 688 l 150 688 q 124 699 135 688 q 113 725 113 710 l 113 935 q 124 961 113 950 q 150 972 135 972 l 1031 972 q 1057 961 1046 972 q 1068 935 1068 950 l 1068 725 q 1057 699 1068 710 q 1031 688 1046 688 l 779 688 l 779 285 z "},"ĩ":{"ha":1181,"x_min":113,"x_max":1068,"o":"m 676 1014 q 583 1033 633 1014 q 563 1041 581 1035 q 526 1047 544 1047 q 486 1033 503 1047 q 457 1021 474 1021 l 340 1021 q 322 1028 329 1021 q 314 1046 314 1036 q 331 1103 314 1069 q 391 1162 349 1136 q 503 1188 433 1188 q 596 1168 546 1188 q 617 1160 599 1167 q 653 1154 635 1154 q 692 1168 675 1154 q 706 1178 700 1175 q 722 1181 713 1181 l 839 1181 q 858 1173 851 1181 q 865 1154 865 1165 q 848 1098 865 1131 q 788 1040 831 1065 q 676 1014 746 1014 m 779 285 l 1031 285 q 1057 274 1046 285 q 1068 247 1068 263 l 1068 38 q 1057 11 1068 22 q 1031 0 1046 0 l 150 0 q 124 11 135 0 q 113 38 113 22 l 113 247 q 124 274 113 263 q 150 285 135 285 l 404 285 l 404 688 l 150 688 q 124 699 135 688 q 113 725 113 710 l 113 935 q 124 961 113 950 q 150 972 135 972 l 1031 972 q 1057 961 1046 972 q 1068 935 1068 950 l 1068 725 q 1057 699 1068 710 q 1031 688 1046 688 l 779 688 l 779 285 z "},"j":{"ha":1181,"x_min":38,"x_max":1067,"o":"m 1067 404 q 928 90 1067 193 q 557 -14 789 -14 q 273 40 390 -14 q 97 175 156 93 q 38 340 38 257 q 47 362 38 353 q 68 371 56 371 l 382 371 q 403 363 394 371 q 417 340 413 354 q 550 257 443 257 q 653 288 615 257 q 692 375 692 318 l 692 688 l 185 688 q 158 699 169 688 q 147 725 147 710 l 147 935 q 158 961 147 950 q 185 972 169 972 l 1029 972 q 1056 961 1044 972 q 1067 935 1067 950 l 1067 404 z "},"ĵ":{"ha":1181,"x_min":38,"x_max":1067,"o":"m 525 1025 q 469 1015 494 1015 l 357 1015 q 341 1022 347 1015 q 335 1038 335 1028 q 346 1057 335 1050 l 461 1154 q 497 1175 482 1169 q 526 1181 511 1181 l 682 1181 q 712 1175 697 1181 q 747 1154 726 1169 l 863 1057 q 874 1038 874 1050 q 867 1022 874 1028 q 851 1015 861 1015 l 739 1015 q 683 1025 714 1015 l 604 1056 l 525 1025 m 1067 404 q 928 90 1067 193 q 557 -14 789 -14 q 273 40 390 -14 q 97 175 156 93 q 38 340 38 257 q 47 362 38 353 q 68 371 56 371 l 382 371 q 403 363 394 371 q 417 340 413 354 q 550 257 443 257 q 653 288 615 257 q 692 375 692 318 l 692 688 l 185 688 q 158 699 169 688 q 147 725 147 710 l 147 935 q 158 961 147 950 q 185 972 169 972 l 1029 972 q 1056 961 1044 972 q 1067 935 1067 950 l 1067 404 z "},"k":{"ha":1181,"x_min":128,"x_max":1169,"o":"m 1164 49 q 1169 31 1169 40 q 1160 9 1169 18 q 1139 0 1151 0 l 781 0 q 731 22 749 0 l 489 321 l 489 38 q 478 11 489 22 q 451 0 467 0 l 165 0 q 139 11 150 0 q 128 38 128 22 l 128 935 q 139 961 128 950 q 165 972 150 972 l 451 972 q 478 961 467 972 q 489 935 489 950 l 489 674 l 708 949 q 760 972 729 972 l 1094 972 q 1116 963 1107 972 q 1125 942 1125 954 q 1118 922 1125 931 l 789 521 l 1164 49 z "},"ķ":{"ha":1181,"x_min":128,"x_max":1169,"o":"m 1164 49 q 1169 31 1169 40 q 1160 9 1169 18 q 1139 0 1151 0 l 781 0 q 731 22 749 0 l 489 321 l 489 38 q 478 11 489 22 q 451 0 467 0 l 165 0 q 139 11 150 0 q 128 38 128 22 l 128 935 q 139 961 128 950 q 165 972 150 972 l 451 972 q 478 961 467 972 q 489 935 489 950 l 489 674 l 708 949 q 760 972 729 972 l 1094 972 q 1116 963 1107 972 q 1125 942 1125 954 q 1118 922 1125 931 l 789 521 l 1164 49 m 443 -69 q 467 -49 457 -53 q 494 -43 476 -44 l 714 -43 q 733 -51 726 -43 q 740 -71 740 -58 q 733 -87 740 -81 l 601 -199 q 563 -208 589 -208 l 546 -208 l 378 -208 q 356 -186 356 -208 q 363 -168 356 -175 l 443 -69 z "},"l":{"ha":1181,"x_min":194,"x_max":1081,"o":"m 1043 285 q 1069 274 1058 285 q 1081 247 1081 263 l 1081 38 q 1069 11 1081 22 q 1043 0 1058 0 l 232 0 q 206 11 217 0 q 194 38 194 22 l 194 935 q 206 961 194 950 q 232 972 217 972 l 532 972 q 558 961 547 972 q 569 935 569 950 l 569 285 l 1043 285 z "},"ĺ":{"ha":1181,"x_min":194,"x_max":1081,"o":"m 333 1154 q 357 1175 347 1171 q 385 1181 367 1179 l 604 1181 q 624 1173 617 1181 q 631 1153 631 1165 q 624 1136 631 1143 l 492 1025 q 453 1015 479 1015 l 436 1015 l 268 1015 q 246 1038 246 1015 q 253 1056 246 1049 l 333 1154 m 1043 285 q 1069 274 1058 285 q 1081 247 1081 263 l 1081 38 q 1069 11 1081 22 q 1043 0 1058 0 l 232 0 q 206 11 217 0 q 194 38 194 22 l 194 935 q 206 961 194 950 q 232 972 217 972 l 532 972 q 558 961 547 972 q 569 935 569 950 l 569 285 l 1043 285 z "},"ľ":{"ha":1181,"x_min":194,"x_max":1081,"o":"m 706 933 q 727 971 708 954 q 772 988 746 988 l 960 988 q 981 978 972 988 q 990 957 990 969 q 989 947 990 951 l 876 753 q 813 708 850 708 l 704 708 q 683 717 692 708 q 674 739 674 726 l 674 742 l 706 933 m 1043 285 q 1069 274 1058 285 q 1081 247 1081 263 l 1081 38 q 1069 11 1081 22 q 1043 0 1058 0 l 232 0 q 206 11 217 0 q 194 38 194 22 l 194 935 q 206 961 194 950 q 232 972 217 972 l 532 972 q 558 961 547 972 q 569 935 569 950 l 569 285 l 1043 285 z "},"ļ":{"ha":1181,"x_min":194,"x_max":1081,"o":"m 1043 285 q 1069 274 1058 285 q 1081 247 1081 263 l 1081 38 q 1069 11 1081 22 q 1043 0 1058 0 l 232 0 q 206 11 217 0 q 194 38 194 22 l 194 935 q 206 961 194 950 q 232 972 217 972 l 532 972 q 558 961 547 972 q 569 935 569 950 l 569 285 l 1043 285 m 474 -69 q 497 -49 488 -53 q 525 -43 507 -44 l 744 -43 q 764 -51 757 -43 q 771 -71 771 -58 q 764 -87 771 -81 l 632 -199 q 593 -208 619 -208 l 576 -208 l 408 -208 q 386 -186 386 -208 q 393 -168 386 -175 l 474 -69 z "},"ŀ":{"ha":1181,"x_min":194,"x_max":1081,"o":"m 1043 285 q 1069 274 1058 285 q 1081 247 1081 263 l 1081 38 q 1069 11 1081 22 q 1043 0 1058 0 l 232 0 q 206 11 217 0 q 194 38 194 22 l 194 935 q 206 961 194 950 q 232 972 217 972 l 532 972 q 558 961 547 972 q 569 935 569 950 l 569 285 l 1043 285 m 894 689 q 917 680 908 689 q 926 657 926 671 l 926 468 q 917 445 926 454 q 894 436 908 436 l 706 436 q 683 445 692 436 q 674 468 674 454 l 674 657 q 683 680 674 671 q 706 689 692 689 l 894 689 z "},"ł":{"ha":1181,"x_min":118,"x_max":1081,"o":"m 1043 285 q 1069 274 1058 285 q 1081 247 1081 263 l 1081 38 q 1069 11 1081 22 q 1043 0 1058 0 l 232 0 q 206 11 217 0 q 194 38 194 22 l 194 301 l 163 289 q 147 285 153 285 q 126 293 135 285 q 118 314 118 301 l 118 464 q 125 494 118 483 q 149 510 132 504 l 194 528 l 194 935 q 206 961 194 950 q 232 972 217 972 l 532 972 q 558 961 547 972 q 569 935 569 950 l 569 676 l 811 774 q 826 778 822 778 q 847 769 839 778 q 856 749 856 761 l 856 599 q 849 570 856 581 q 825 553 842 560 l 569 450 l 569 285 l 1043 285 z "},"m":{"ha":1181,"x_min":57,"x_max":1124,"o":"m 772 935 q 832 972 793 972 l 1086 972 q 1113 961 1101 972 q 1124 935 1124 950 l 1124 38 q 1113 11 1124 22 q 1086 0 1101 0 l 835 0 q 808 11 819 0 q 797 38 797 22 l 797 468 l 696 268 q 676 246 692 258 q 638 233 661 233 l 543 233 q 504 246 519 233 q 485 268 489 258 l 383 468 l 383 38 q 372 11 383 22 q 346 0 361 0 l 94 0 q 68 11 79 0 q 57 38 57 22 l 57 935 q 68 961 57 950 q 94 972 79 972 l 349 972 q 408 935 388 972 l 590 601 l 772 935 z "},"n":{"ha":1181,"x_min":110,"x_max":1063,"o":"m 1025 972 q 1051 961 1040 972 q 1063 935 1063 950 l 1063 38 q 1051 11 1063 22 q 1025 0 1040 0 l 801 0 q 746 29 768 0 l 443 415 l 443 38 q 432 11 443 22 q 406 0 421 0 l 147 0 q 121 11 132 0 q 110 38 110 22 l 110 935 q 121 961 110 950 q 147 972 132 972 l 372 972 q 426 944 406 972 l 729 526 l 729 935 q 740 961 729 950 q 767 972 751 972 l 1025 972 z "},"ń":{"ha":1181,"x_min":110,"x_max":1063,"o":"m 540 1154 q 564 1175 554 1171 q 592 1181 574 1179 l 811 1181 q 831 1173 824 1181 q 838 1153 838 1165 q 831 1136 838 1143 l 699 1025 q 660 1015 686 1015 l 643 1015 l 475 1015 q 453 1038 453 1015 q 460 1056 453 1049 l 540 1154 m 1025 972 q 1051 961 1040 972 q 1063 935 1063 950 l 1063 38 q 1051 11 1063 22 q 1025 0 1040 0 l 801 0 q 746 29 768 0 l 443 415 l 443 38 q 432 11 443 22 q 406 0 421 0 l 147 0 q 121 11 132 0 q 110 38 110 22 l 110 935 q 121 961 110 950 q 147 972 132 972 l 372 972 q 426 944 406 972 l 729 526 l 729 935 q 740 961 729 950 q 767 972 751 972 l 1025 972 z "},"ň":{"ha":1181,"x_min":110,"x_max":1063,"o":"m 669 1171 q 725 1181 700 1181 l 838 1181 q 853 1174 847 1181 q 860 1158 860 1168 q 849 1139 860 1146 l 733 1042 q 698 1021 713 1026 q 668 1015 683 1015 l 513 1015 q 483 1021 497 1015 q 447 1042 468 1026 l 332 1139 q 321 1158 321 1146 q 327 1174 321 1168 q 343 1181 333 1181 l 456 1181 q 511 1171 481 1181 l 590 1140 l 669 1171 m 1025 972 q 1051 961 1040 972 q 1063 935 1063 950 l 1063 38 q 1051 11 1063 22 q 1025 0 1040 0 l 801 0 q 746 29 768 0 l 443 415 l 443 38 q 432 11 443 22 q 406 0 421 0 l 147 0 q 121 11 132 0 q 110 38 110 22 l 110 935 q 121 961 110 950 q 147 972 132 972 l 372 972 q 426 944 406 972 l 729 526 l 729 935 q 740 961 729 950 q 767 972 751 972 l 1025 972 z "},"ņ":{"ha":1181,"x_min":110,"x_max":1063,"o":"m 1025 972 q 1051 961 1040 972 q 1063 935 1063 950 l 1063 38 q 1051 11 1063 22 q 1025 0 1040 0 l 801 0 q 746 29 768 0 l 443 415 l 443 38 q 432 11 443 22 q 406 0 421 0 l 147 0 q 121 11 132 0 q 110 38 110 22 l 110 935 q 121 961 110 950 q 147 972 132 972 l 372 972 q 426 944 406 972 l 729 526 l 729 935 q 740 961 729 950 q 767 972 751 972 l 1025 972 m 443 -69 q 467 -49 457 -53 q 494 -43 476 -44 l 714 -43 q 733 -51 726 -43 q 740 -71 740 -58 q 733 -87 740 -81 l 601 -199 q 563 -208 589 -208 l 546 -208 l 378 -208 q 356 -186 356 -208 q 363 -168 356 -175 l 443 -69 z "},"ŋ":{"ha":1181,"x_min":110,"x_max":1063,"o":"m 618 -54 q 696 -21 667 -47 q 728 50 725 6 l 443 415 l 443 38 q 432 11 443 22 q 406 0 421 0 l 147 0 q 121 11 132 0 q 110 38 110 22 l 110 935 q 121 961 110 950 q 147 972 132 972 l 372 972 q 426 944 406 972 l 729 526 l 729 935 q 740 961 729 950 q 767 972 751 972 l 1025 972 q 1051 961 1040 972 q 1063 935 1063 950 l 1063 150 q 961 -131 1063 -53 q 685 -208 860 -208 l 588 -208 q 561 -197 572 -208 q 550 -171 550 -186 l 550 -93 q 561 -67 550 -78 q 588 -56 572 -56 l 618 -54 z "},"ñ":{"ha":1181,"x_min":110,"x_max":1063,"o":"m 681 1018 q 588 1038 638 1018 q 567 1045 585 1039 q 531 1051 549 1051 q 482 1035 494 1051 q 461 1022 475 1022 l 344 1022 q 326 1030 333 1022 q 318 1047 318 1038 q 335 1105 318 1071 q 395 1165 353 1139 q 507 1192 438 1192 q 600 1172 550 1192 q 621 1165 603 1171 q 657 1158 639 1158 q 706 1175 694 1158 q 726 1188 713 1188 l 843 1188 q 863 1180 856 1188 q 869 1161 869 1172 q 852 1104 869 1138 q 792 1044 835 1071 q 681 1018 750 1018 m 1025 972 q 1051 961 1040 972 q 1063 935 1063 950 l 1063 38 q 1051 11 1063 22 q 1025 0 1040 0 l 801 0 q 746 29 768 0 l 443 415 l 443 38 q 432 11 443 22 q 406 0 421 0 l 147 0 q 121 11 132 0 q 110 38 110 22 l 110 935 q 121 961 110 950 q 147 972 132 972 l 372 972 q 426 944 406 972 l 729 526 l 729 935 q 740 961 729 950 q 767 972 751 972 l 1025 972 z "},"o":{"ha":1181,"x_min":74,"x_max":1107,"o":"m 1107 401 q 966 88 1107 189 q 590 -14 825 -14 q 215 88 356 -14 q 74 404 74 189 l 74 568 q 141 803 74 710 q 325 942 208 897 q 590 986 442 986 q 855 942 739 986 q 1039 804 971 897 q 1107 571 1107 711 l 1107 401 m 449 375 q 487 288 449 318 q 590 257 525 257 q 694 288 656 257 q 732 376 732 319 l 732 596 q 694 684 732 653 q 590 715 656 715 q 487 685 525 715 q 449 597 449 654 l 449 375 z "},"ó":{"ha":1181,"x_min":74,"x_max":1107,"o":"m 538 1154 q 561 1175 551 1171 q 589 1181 571 1179 l 808 1181 q 828 1173 821 1181 q 835 1153 835 1165 q 828 1136 835 1143 l 696 1025 q 657 1015 683 1015 l 640 1015 l 472 1015 q 450 1038 450 1015 q 457 1056 450 1049 l 538 1154 m 1107 401 q 966 88 1107 189 q 590 -14 825 -14 q 215 88 356 -14 q 74 404 74 189 l 74 568 q 141 803 74 710 q 325 942 208 897 q 590 986 442 986 q 855 942 739 986 q 1039 804 971 897 q 1107 571 1107 711 l 1107 401 m 449 375 q 487 288 449 318 q 590 257 525 257 q 694 288 656 257 q 732 376 732 319 l 732 596 q 694 684 732 653 q 590 715 656 715 q 487 685 525 715 q 449 597 449 654 l 449 375 z "},"ŏ":{"ha":1181,"x_min":74,"x_max":1107,"o":"m 644 1169 q 671 1188 654 1188 l 808 1188 q 828 1182 821 1188 q 835 1169 835 1176 q 771 1059 835 1104 q 588 1014 707 1014 q 406 1059 469 1014 q 342 1169 342 1104 q 349 1182 342 1176 q 368 1188 356 1188 l 506 1188 q 532 1169 526 1188 q 547 1146 535 1157 q 588 1135 560 1135 q 626 1144 615 1135 q 644 1169 638 1154 m 1107 401 q 966 88 1107 189 q 590 -14 825 -14 q 215 88 356 -14 q 74 404 74 189 l 74 568 q 141 803 74 710 q 325 942 208 897 q 590 986 442 986 q 855 942 739 986 q 1039 804 971 897 q 1107 571 1107 711 l 1107 401 m 449 375 q 487 288 449 318 q 590 257 525 257 q 694 288 656 257 q 732 376 732 319 l 732 596 q 694 684 732 653 q 590 715 656 715 q 487 685 525 715 q 449 597 449 654 l 449 375 z "},"ô":{"ha":1181,"x_min":74,"x_max":1107,"o":"m 513 1025 q 457 1015 482 1015 l 344 1015 q 328 1022 335 1015 q 322 1038 322 1028 q 333 1057 322 1050 l 449 1154 q 484 1175 469 1169 q 514 1181 499 1181 l 669 1181 q 699 1175 685 1181 q 735 1154 714 1169 l 850 1057 q 861 1038 861 1050 q 855 1022 861 1028 q 839 1015 849 1015 l 726 1015 q 671 1025 701 1015 l 592 1056 l 513 1025 m 1107 401 q 966 88 1107 189 q 590 -14 825 -14 q 215 88 356 -14 q 74 404 74 189 l 74 568 q 141 803 74 710 q 325 942 208 897 q 590 986 442 986 q 855 942 739 986 q 1039 804 971 897 q 1107 571 1107 711 l 1107 401 m 449 375 q 487 288 449 318 q 590 257 525 257 q 694 288 656 257 q 732 376 732 319 l 732 596 q 694 684 732 653 q 590 715 656 715 q 487 685 525 715 q 449 597 449 654 l 449 375 z "},"ö":{"ha":1181,"x_min":74,"x_max":1107,"o":"m 497 1186 q 520 1177 511 1186 q 529 1154 529 1168 l 529 1053 q 520 1030 529 1039 q 497 1021 511 1021 l 336 1021 q 313 1030 322 1021 q 304 1053 304 1039 l 304 1154 q 313 1177 304 1168 q 336 1186 322 1186 l 497 1186 m 846 1186 q 869 1177 860 1186 q 878 1154 878 1168 l 878 1053 q 869 1030 878 1039 q 846 1021 860 1021 l 685 1021 q 662 1030 671 1021 q 653 1053 653 1039 l 653 1154 q 662 1177 653 1168 q 685 1186 671 1186 l 846 1186 m 1107 401 q 966 88 1107 189 q 590 -14 825 -14 q 215 88 356 -14 q 74 404 74 189 l 74 568 q 141 803 74 710 q 325 942 208 897 q 590 986 442 986 q 855 942 739 986 q 1039 804 971 897 q 1107 571 1107 711 l 1107 401 m 449 375 q 487 288 449 318 q 590 257 525 257 q 694 288 656 257 q 732 376 732 319 l 732 596 q 694 684 732 653 q 590 715 656 715 q 487 685 525 715 q 449 597 449 654 l 449 375 z "},"ò":{"ha":1181,"x_min":74,"x_max":1107,"o":"m 718 1056 q 725 1038 725 1049 q 703 1015 725 1015 l 535 1015 l 518 1015 q 479 1025 492 1015 l 347 1136 q 340 1153 340 1143 q 347 1173 340 1165 q 367 1181 354 1181 l 586 1181 q 614 1175 604 1179 q 638 1154 624 1171 l 718 1056 m 1107 401 q 966 88 1107 189 q 590 -14 825 -14 q 215 88 356 -14 q 74 404 74 189 l 74 568 q 141 803 74 710 q 325 942 208 897 q 590 986 442 986 q 855 942 739 986 q 1039 804 971 897 q 1107 571 1107 711 l 1107 401 m 449 375 q 487 288 449 318 q 590 257 525 257 q 694 288 656 257 q 732 376 732 319 l 732 596 q 694 684 732 653 q 590 715 656 715 q 487 685 525 715 q 449 597 449 654 l 449 375 z "},"ő":{"ha":1181,"x_min":74,"x_max":1107,"o":"m 401 1154 q 425 1175 415 1171 q 453 1181 435 1179 l 644 1181 q 664 1173 657 1181 q 671 1153 671 1165 q 664 1136 671 1143 l 560 1025 q 521 1015 547 1015 l 504 1015 l 364 1015 q 342 1038 342 1015 q 349 1056 342 1042 l 401 1154 m 725 1154 q 749 1175 739 1171 q 776 1181 758 1179 l 968 1181 q 988 1173 981 1181 q 994 1153 994 1165 q 988 1136 994 1143 l 883 1025 q 844 1015 871 1015 l 828 1015 l 688 1015 q 665 1038 665 1015 q 672 1056 665 1042 l 725 1154 m 1107 401 q 966 88 1107 189 q 590 -14 825 -14 q 215 88 356 -14 q 74 404 74 189 l 74 568 q 141 803 74 710 q 325 942 208 897 q 590 986 442 986 q 855 942 739 986 q 1039 804 971 897 q 1107 571 1107 711 l 1107 401 m 449 375 q 487 288 449 318 q 590 257 525 257 q 694 288 656 257 q 732 376 732 319 l 732 596 q 694 684 732 653 q 590 715 656 715 q 487 685 525 715 q 449 597 449 654 l 449 375 z "},"ō":{"ha":1181,"x_min":74,"x_max":1107,"o":"m 846 1181 q 869 1172 860 1181 q 878 1149 878 1163 l 878 1047 q 869 1024 878 1033 q 846 1015 860 1015 l 336 1015 q 313 1024 322 1015 q 304 1047 304 1033 l 304 1149 q 313 1172 304 1163 q 336 1181 322 1181 l 846 1181 m 1107 401 q 966 88 1107 189 q 590 -14 825 -14 q 215 88 356 -14 q 74 404 74 189 l 74 568 q 141 803 74 710 q 325 942 208 897 q 590 986 442 986 q 855 942 739 986 q 1039 804 971 897 q 1107 571 1107 711 l 1107 401 m 449 375 q 487 288 449 318 q 590 257 525 257 q 694 288 656 257 q 732 376 732 319 l 732 596 q 694 684 732 653 q 590 715 656 715 q 487 685 525 715 q 449 597 449 654 l 449 375 z "},"ø":{"ha":1181,"x_min":0,"x_max":1181,"o":"m 1107 401 q 966 88 1107 189 q 590 -14 825 -14 q 304 36 425 -14 q 124 192 183 86 l 44 161 q 29 157 33 157 q 8 165 17 157 q 0 186 0 174 l 0 336 q 7 366 0 356 q 31 382 14 376 l 74 399 l 74 569 q 141 805 74 711 q 325 943 208 899 q 590 988 442 988 q 871 936 749 988 q 1054 782 993 885 l 1136 814 q 1151 818 1147 818 q 1172 810 1164 818 q 1181 789 1181 801 l 1181 639 q 1174 610 1181 621 q 1150 593 1167 600 l 1107 576 l 1107 401 m 719 651 q 671 700 704 683 q 590 717 638 717 q 487 686 525 717 q 449 599 449 656 l 449 544 l 719 651 m 590 257 q 694 288 656 257 q 732 376 732 319 l 732 429 l 460 322 q 508 274 474 290 q 590 257 543 257 z "},"ǿ":{"ha":1181,"x_min":0,"x_max":1181,"o":"m 540 1154 q 564 1175 554 1171 q 592 1181 574 1179 l 811 1181 q 831 1173 824 1181 q 838 1153 838 1165 q 831 1136 838 1143 l 699 1025 q 660 1015 686 1015 l 643 1015 l 475 1015 q 453 1038 453 1015 q 460 1056 453 1049 l 540 1154 m 1107 401 q 966 88 1107 189 q 590 -14 825 -14 q 304 36 425 -14 q 124 192 183 86 l 44 161 q 29 157 33 157 q 8 165 17 157 q 0 186 0 174 l 0 336 q 7 366 0 356 q 31 382 14 376 l 74 399 l 74 569 q 141 805 74 711 q 325 943 208 899 q 590 988 442 988 q 871 936 749 988 q 1054 782 993 885 l 1136 814 q 1151 818 1147 818 q 1172 810 1164 818 q 1181 789 1181 801 l 1181 639 q 1174 610 1181 621 q 1150 593 1167 600 l 1107 576 l 1107 401 m 719 651 q 671 700 704 683 q 590 717 638 717 q 487 686 525 717 q 449 599 449 656 l 449 544 l 719 651 m 590 257 q 694 288 656 257 q 732 376 732 319 l 732 429 l 460 322 q 508 274 474 290 q 590 257 543 257 z "},"õ":{"ha":1181,"x_min":74,"x_max":1107,"o":"m 686 1018 q 593 1038 643 1018 q 572 1045 590 1039 q 536 1051 554 1051 q 488 1035 500 1051 q 467 1022 481 1022 l 350 1022 q 331 1030 339 1022 q 324 1047 324 1038 q 341 1105 324 1071 q 401 1165 358 1139 q 513 1192 443 1192 q 606 1172 556 1192 q 626 1165 608 1171 q 663 1158 644 1158 q 711 1175 700 1158 q 732 1188 718 1188 l 849 1188 q 868 1180 861 1188 q 875 1161 875 1172 q 858 1104 875 1138 q 798 1044 840 1071 q 686 1018 756 1018 m 1107 401 q 966 88 1107 189 q 590 -14 825 -14 q 215 88 356 -14 q 74 404 74 189 l 74 568 q 141 803 74 710 q 325 942 208 897 q 590 986 442 986 q 855 942 739 986 q 1039 804 971 897 q 1107 571 1107 711 l 1107 401 m 449 375 q 487 288 449 318 q 590 257 525 257 q 694 288 656 257 q 732 376 732 319 l 732 596 q 694 684 732 653 q 590 715 656 715 q 487 685 525 715 q 449 597 449 654 l 449 375 z "},"œ":{"ha":1181,"x_min":75,"x_max":1118,"o":"m 550 0 q 198 99 321 0 q 75 417 75 199 l 75 554 q 201 870 75 768 q 550 972 326 972 l 1067 972 q 1093 961 1082 972 q 1104 935 1104 950 l 1104 739 q 1093 713 1104 724 q 1067 701 1082 701 l 883 701 l 883 614 l 1033 614 q 1060 603 1049 614 q 1071 576 1071 592 l 1071 396 q 1060 369 1071 381 q 1033 358 1049 358 l 883 358 l 883 271 l 1081 271 q 1107 260 1096 271 q 1118 233 1118 249 l 1118 38 q 1107 11 1118 22 q 1081 0 1096 0 l 550 0 m 408 388 q 447 301 408 332 q 550 271 485 271 l 550 701 q 447 671 485 701 q 408 583 408 640 l 408 388 z "},"p":{"ha":1181,"x_min":175,"x_max":1160,"o":"m 732 972 q 960 928 863 972 q 1108 807 1057 883 q 1160 636 1160 731 q 1063 392 1160 481 q 732 304 965 304 l 549 304 l 549 38 q 538 11 549 22 q 511 0 526 0 l 213 0 q 186 11 197 0 q 175 38 175 22 l 175 935 q 186 961 175 950 q 213 972 197 972 l 732 972 m 726 561 q 779 581 760 561 q 799 635 799 601 q 779 692 799 669 q 726 714 760 714 l 550 714 l 550 561 l 726 561 z "},"þ":{"ha":1181,"x_min":113,"x_max":1097,"o":"m 449 974 q 475 963 464 974 q 486 936 486 951 l 486 847 l 669 847 q 897 803 800 847 q 1046 682 994 758 q 1097 511 1097 606 q 1000 267 1097 356 q 669 179 903 179 l 486 179 l 486 38 q 475 11 486 22 q 449 0 464 0 l 150 0 q 124 11 135 0 q 113 38 113 22 l 113 936 q 124 963 113 951 q 150 974 135 974 l 449 974 m 664 436 q 717 456 697 436 q 736 510 736 476 q 717 567 736 544 q 664 589 697 589 l 488 589 l 488 436 l 664 436 z "},"q":{"ha":1181,"x_min":72,"x_max":1106,"o":"m 1106 401 q 971 92 1106 197 l 1074 -47 q 1078 -60 1078 -56 l 1078 -64 q 1069 -83 1078 -75 q 1050 -90 1061 -90 l 785 -90 q 742 -78 760 -90 q 717 -56 724 -67 l 681 -10 q 589 -14 638 -14 q 213 88 354 -14 q 72 404 72 189 l 72 568 q 213 885 72 783 q 589 986 354 986 q 965 885 824 986 q 1106 571 1106 783 l 1106 401 m 447 375 q 485 288 447 318 q 589 257 524 257 q 692 288 654 257 q 731 376 731 319 l 731 596 q 692 684 731 653 q 589 715 654 715 q 485 685 524 715 q 447 597 447 654 l 447 375 z "},"r":{"ha":1181,"x_min":126,"x_max":1144,"o":"m 1142 43 q 1144 31 1144 38 q 1135 9 1144 18 q 1114 0 1126 0 l 799 0 q 763 10 779 0 q 740 35 747 19 l 618 310 l 501 310 l 501 38 q 490 11 501 22 q 464 0 479 0 l 164 0 q 138 11 149 0 q 126 38 126 22 l 126 935 q 138 961 126 950 q 164 972 149 972 l 704 972 q 923 932 829 972 q 1067 815 1017 892 q 1117 636 1117 739 q 971 363 1117 447 l 1142 43 m 675 567 q 722 587 706 567 q 739 638 739 607 q 723 691 739 668 q 675 714 707 714 l 501 714 l 501 567 l 675 567 z "},"ŕ":{"ha":1181,"x_min":126,"x_max":1144,"o":"m 526 1154 q 550 1175 540 1171 q 578 1181 560 1179 l 797 1181 q 817 1173 810 1181 q 824 1153 824 1165 q 817 1136 824 1143 l 685 1025 q 646 1015 672 1015 l 629 1015 l 461 1015 q 439 1038 439 1015 q 446 1056 439 1049 l 526 1154 m 1142 43 q 1144 31 1144 38 q 1135 9 1144 18 q 1114 0 1126 0 l 799 0 q 763 10 779 0 q 740 35 747 19 l 618 310 l 501 310 l 501 38 q 490 11 501 22 q 464 0 479 0 l 164 0 q 138 11 149 0 q 126 38 126 22 l 126 935 q 138 961 126 950 q 164 972 149 972 l 704 972 q 923 932 829 972 q 1067 815 1017 892 q 1117 636 1117 739 q 971 363 1117 447 l 1142 43 m 675 567 q 722 587 706 567 q 739 638 739 607 q 723 691 739 668 q 675 714 707 714 l 501 714 l 501 567 l 675 567 z "},"ř":{"ha":1181,"x_min":126,"x_max":1144,"o":"m 656 1171 q 711 1181 686 1181 l 824 1181 q 840 1174 833 1181 q 846 1158 846 1168 q 835 1139 846 1146 l 719 1042 q 684 1021 699 1026 q 654 1015 669 1015 l 499 1015 q 469 1021 483 1015 q 433 1042 454 1026 l 318 1139 q 307 1158 307 1146 q 313 1174 307 1168 q 329 1181 319 1181 l 442 1181 q 497 1171 467 1181 l 576 1140 l 656 1171 m 1142 43 q 1144 31 1144 38 q 1135 9 1144 18 q 1114 0 1126 0 l 799 0 q 763 10 779 0 q 740 35 747 19 l 618 310 l 501 310 l 501 38 q 490 11 501 22 q 464 0 479 0 l 164 0 q 138 11 149 0 q 126 38 126 22 l 126 935 q 138 961 126 950 q 164 972 149 972 l 704 972 q 923 932 829 972 q 1067 815 1017 892 q 1117 636 1117 739 q 971 363 1117 447 l 1142 43 m 675 567 q 722 587 706 567 q 739 638 739 607 q 723 691 739 668 q 675 714 707 714 l 501 714 l 501 567 l 675 567 z "},"ŗ":{"ha":1181,"x_min":126,"x_max":1144,"o":"m 1142 43 q 1144 31 1144 38 q 1135 9 1144 18 q 1114 0 1126 0 l 799 0 q 763 10 779 0 q 740 35 747 19 l 618 310 l 501 310 l 501 38 q 490 11 501 22 q 464 0 479 0 l 164 0 q 138 11 149 0 q 126 38 126 22 l 126 935 q 138 961 126 950 q 164 972 149 972 l 704 972 q 923 932 829 972 q 1067 815 1017 892 q 1117 636 1117 739 q 971 363 1117 447 l 1142 43 m 675 567 q 722 587 706 567 q 739 638 739 607 q 723 691 739 668 q 675 714 707 714 l 501 714 l 501 567 l 675 567 m 471 -69 q 494 -49 485 -53 q 522 -43 504 -44 l 742 -43 q 761 -51 754 -43 q 768 -71 768 -58 q 761 -87 768 -81 l 629 -199 q 590 -208 617 -208 l 574 -208 l 406 -208 q 383 -186 383 -208 q 390 -168 383 -175 l 471 -69 z "},"s":{"ha":1181,"x_min":86,"x_max":1088,"o":"m 667 619 q 912 565 819 603 q 1046 467 1004 528 q 1088 314 1088 406 q 1023 140 1088 214 q 844 26 958 65 q 585 -14 731 -14 q 310 26 422 -14 q 142 134 197 67 q 86 282 86 201 q 95 304 86 296 q 118 313 104 313 l 403 313 q 450 294 432 313 q 503 265 474 272 q 585 257 532 257 q 717 297 717 257 q 699 326 717 314 q 638 347 682 338 q 510 365 594 356 q 218 460 319 388 q 117 667 117 533 q 174 833 117 761 q 335 946 231 906 q 579 986 440 986 q 832 941 724 986 q 997 829 940 896 q 1054 699 1054 763 q 1045 676 1054 685 q 1021 668 1036 668 l 722 668 q 679 685 699 668 q 643 707 664 699 q 579 715 622 715 q 486 676 486 715 q 522 644 486 656 q 667 619 558 632 z "},"ś":{"ha":1181,"x_min":86,"x_max":1088,"o":"m 513 1154 q 536 1175 526 1171 q 564 1181 546 1179 l 783 1181 q 803 1173 796 1181 q 810 1153 810 1165 q 803 1136 810 1143 l 671 1025 q 632 1015 658 1015 l 615 1015 l 447 1015 q 425 1038 425 1015 q 432 1056 425 1049 l 513 1154 m 667 619 q 912 565 819 603 q 1046 467 1004 528 q 1088 314 1088 406 q 1023 140 1088 214 q 844 26 958 65 q 585 -14 731 -14 q 310 26 422 -14 q 142 134 197 67 q 86 282 86 201 q 95 304 86 296 q 118 313 104 313 l 403 313 q 450 294 432 313 q 503 265 474 272 q 585 257 532 257 q 717 297 717 257 q 699 326 717 314 q 638 347 682 338 q 510 365 594 356 q 218 460 319 388 q 117 667 117 533 q 174 833 117 761 q 335 946 231 906 q 579 986 440 986 q 832 941 724 986 q 997 829 940 896 q 1054 699 1054 763 q 1045 676 1054 685 q 1021 668 1036 668 l 722 668 q 679 685 699 668 q 643 707 664 699 q 579 715 622 715 q 486 676 486 715 q 522 644 486 656 q 667 619 558 632 z "},"š":{"ha":1181,"x_min":86,"x_max":1088,"o":"m 664 1171 q 719 1181 694 1181 l 832 1181 q 848 1174 842 1181 q 854 1158 854 1168 q 843 1139 854 1146 l 728 1042 q 692 1021 707 1026 q 663 1015 678 1015 l 507 1015 q 477 1021 492 1015 q 442 1042 463 1026 l 326 1139 q 315 1158 315 1146 q 322 1174 315 1168 q 338 1181 328 1181 l 450 1181 q 506 1171 475 1181 l 585 1140 l 664 1171 m 667 619 q 912 565 819 603 q 1046 467 1004 528 q 1088 314 1088 406 q 1023 140 1088 214 q 844 26 958 65 q 585 -14 731 -14 q 310 26 422 -14 q 142 134 197 67 q 86 282 86 201 q 95 304 86 296 q 118 313 104 313 l 403 313 q 450 294 432 313 q 503 265 474 272 q 585 257 532 257 q 717 297 717 257 q 699 326 717 314 q 638 347 682 338 q 510 365 594 356 q 218 460 319 388 q 117 667 117 533 q 174 833 117 761 q 335 946 231 906 q 579 986 440 986 q 832 941 724 986 q 997 829 940 896 q 1054 699 1054 763 q 1045 676 1054 685 q 1021 668 1036 668 l 722 668 q 679 685 699 668 q 643 707 664 699 q 579 715 622 715 q 486 676 486 715 q 522 644 486 656 q 667 619 558 632 z "},"ş":{"ha":1181,"x_min":86,"x_max":1088,"o":"m 667 619 q 912 565 819 603 q 1046 467 1004 528 q 1088 314 1088 406 q 1028 146 1088 218 q 863 33 968 74 q 619 -12 757 -7 l 611 -36 q 663 -31 624 -31 q 753 -53 718 -31 q 789 -115 789 -75 q 740 -185 789 -162 q 628 -208 690 -208 q 506 -190 558 -208 q 453 -139 453 -172 q 471 -124 453 -124 l 556 -124 q 585 -132 571 -124 q 601 -139 592 -136 q 628 -142 611 -142 q 658 -134 649 -142 q 668 -115 668 -126 q 629 -92 668 -92 q 592 -98 608 -92 q 563 -104 575 -104 l 501 -104 q 481 -86 481 -104 q 483 -74 481 -82 l 503 -11 q 273 41 367 -1 q 133 146 179 83 q 86 282 86 208 q 95 304 86 296 q 118 313 104 313 l 403 313 q 450 294 432 313 q 503 265 474 272 q 585 257 532 257 q 717 297 717 257 q 699 326 717 314 q 638 347 682 338 q 510 365 594 356 q 218 460 319 388 q 117 667 117 533 q 174 833 117 761 q 335 946 231 906 q 579 986 440 986 q 832 941 724 986 q 997 829 940 896 q 1054 699 1054 763 q 1045 676 1054 685 q 1021 668 1036 668 l 722 668 q 679 685 699 668 q 643 707 664 699 q 579 715 622 715 q 486 676 486 715 q 522 644 486 656 q 667 619 558 632 z "},"ŝ":{"ha":1181,"x_min":86,"x_max":1088,"o":"m 506 1025 q 450 1015 475 1015 l 338 1015 q 322 1022 328 1015 q 315 1038 315 1028 q 326 1057 315 1050 l 442 1154 q 477 1175 463 1169 q 507 1181 492 1181 l 663 1181 q 692 1175 678 1181 q 728 1154 707 1169 l 843 1057 q 854 1038 854 1050 q 848 1022 854 1028 q 832 1015 842 1015 l 719 1015 q 664 1025 694 1015 l 585 1056 l 506 1025 m 667 619 q 912 565 819 603 q 1046 467 1004 528 q 1088 314 1088 406 q 1023 140 1088 214 q 844 26 958 65 q 585 -14 731 -14 q 310 26 422 -14 q 142 134 197 67 q 86 282 86 201 q 95 304 86 296 q 118 313 104 313 l 403 313 q 450 294 432 313 q 503 265 474 272 q 585 257 532 257 q 717 297 717 257 q 699 326 717 314 q 638 347 682 338 q 510 365 594 356 q 218 460 319 388 q 117 667 117 533 q 174 833 117 761 q 335 946 231 906 q 579 986 440 986 q 832 941 724 986 q 997 829 940 896 q 1054 699 1054 763 q 1045 676 1054 685 q 1021 668 1036 668 l 722 668 q 679 685 699 668 q 643 707 664 699 q 579 715 622 715 q 486 676 486 715 q 522 644 486 656 q 667 619 558 632 z "},"ș":{"ha":1181,"x_min":86,"x_max":1088,"o":"m 667 619 q 912 565 819 603 q 1046 467 1004 528 q 1088 314 1088 406 q 1023 140 1088 214 q 844 26 958 65 q 585 -14 731 -14 q 310 26 422 -14 q 142 134 197 67 q 86 282 86 201 q 95 304 86 296 q 118 313 104 313 l 403 313 q 450 294 432 313 q 503 265 474 272 q 585 257 532 257 q 717 297 717 257 q 699 326 717 314 q 638 347 682 338 q 510 365 594 356 q 218 460 319 388 q 117 667 117 533 q 174 833 117 761 q 335 946 231 906 q 579 986 440 986 q 832 941 724 986 q 997 829 940 896 q 1054 699 1054 763 q 1045 676 1054 685 q 1021 668 1036 668 l 722 668 q 679 685 699 668 q 643 707 664 699 q 579 715 622 715 q 486 676 486 715 q 522 644 486 656 q 667 619 558 632 m 432 -69 q 456 -49 446 -53 q 483 -43 465 -44 l 703 -43 q 722 -51 715 -43 q 729 -71 729 -58 q 722 -87 729 -81 l 590 -199 q 551 -208 578 -208 l 535 -208 l 367 -208 q 344 -186 344 -208 q 351 -168 344 -175 l 432 -69 z "},"ß":{"ha":1181,"x_min":138,"x_max":1057,"o":"m 175 0 q 149 11 160 0 q 138 38 138 22 l 138 628 q 248 888 138 789 q 582 986 358 986 q 826 947 729 986 q 969 841 924 907 q 1015 697 1015 775 q 996 597 1015 640 q 933 521 976 554 q 1025 438 993 490 q 1057 300 1057 386 q 1010 156 1057 225 q 867 44 963 88 q 635 0 772 0 l 586 0 q 553 10 565 0 q 540 38 540 21 l 540 196 q 553 224 540 213 q 586 233 565 235 l 589 233 q 656 256 629 233 q 682 315 682 278 q 656 375 682 353 q 583 397 631 397 l 581 397 q 540 435 540 397 l 540 535 q 549 563 540 553 q 581 572 557 572 l 585 572 q 649 592 624 572 q 674 643 674 613 q 651 694 674 674 q 596 715 629 715 q 523 688 547 715 q 499 601 499 661 l 499 38 q 488 11 499 22 q 461 0 476 0 l 175 0 z "},"t":{"ha":1181,"x_min":74,"x_max":1107,"o":"m 1069 972 q 1096 961 1085 972 q 1107 935 1107 950 l 1107 711 q 1096 685 1107 696 q 1069 674 1085 674 l 771 674 l 771 38 q 760 11 771 22 q 733 0 749 0 l 447 0 q 421 11 432 0 q 410 38 410 22 l 410 674 l 111 674 q 85 685 96 674 q 74 711 74 696 l 74 935 q 85 961 74 950 q 111 972 96 972 l 1069 972 z "},"ŧ":{"ha":1181,"x_min":74,"x_max":1107,"o":"m 410 674 l 111 674 q 85 685 96 674 q 74 711 74 696 l 74 935 q 85 961 74 950 q 111 972 96 972 l 1069 972 q 1096 961 1085 972 q 1107 935 1107 950 l 1107 711 q 1096 685 1107 696 q 1069 674 1085 674 l 771 674 l 771 528 l 892 528 q 918 517 907 528 q 929 490 929 506 l 929 392 q 918 365 929 376 q 892 354 907 354 l 771 354 l 771 38 q 760 11 771 22 q 733 0 749 0 l 447 0 q 421 11 432 0 q 410 38 410 22 l 410 354 l 289 354 q 263 365 274 354 q 251 392 251 376 l 251 490 q 263 517 251 506 q 289 528 274 528 l 410 528 l 410 674 z "},"ť":{"ha":1181,"x_min":74,"x_max":1107,"o":"m 669 1171 q 725 1181 700 1181 l 838 1181 q 853 1174 847 1181 q 860 1158 860 1168 q 849 1139 860 1146 l 733 1042 q 698 1021 713 1026 q 668 1015 683 1015 l 513 1015 q 483 1021 497 1015 q 447 1042 468 1026 l 332 1139 q 321 1158 321 1146 q 327 1174 321 1168 q 343 1181 333 1181 l 456 1181 q 511 1171 481 1181 l 590 1140 l 669 1171 m 1069 972 q 1096 961 1085 972 q 1107 935 1107 950 l 1107 711 q 1096 685 1107 696 q 1069 674 1085 674 l 771 674 l 771 38 q 760 11 771 22 q 733 0 749 0 l 447 0 q 421 11 432 0 q 410 38 410 22 l 410 674 l 111 674 q 85 685 96 674 q 74 711 74 696 l 74 935 q 85 961 74 950 q 111 972 96 972 l 1069 972 z "},"ț":{"ha":1181,"x_min":74,"x_max":1107,"o":"m 1069 972 q 1096 961 1085 972 q 1107 935 1107 950 l 1107 711 q 1096 685 1107 696 q 1069 674 1085 674 l 771 674 l 771 38 q 760 11 771 22 q 733 0 749 0 l 447 0 q 421 11 432 0 q 410 38 410 22 l 410 674 l 111 674 q 85 685 96 674 q 74 711 74 696 l 74 935 q 85 961 74 950 q 111 972 96 972 l 1069 972 m 429 -69 q 453 -49 443 -53 q 481 -43 463 -44 l 700 -43 q 719 -51 713 -43 q 726 -71 726 -58 q 719 -87 726 -81 l 588 -199 q 549 -208 575 -208 l 532 -208 l 364 -208 q 342 -186 342 -208 q 349 -168 342 -175 l 429 -69 z "},"u":{"ha":1181,"x_min":83,"x_max":1097,"o":"m 590 -14 q 220 88 357 -14 q 83 404 83 189 l 83 935 q 94 961 83 950 q 121 972 106 972 l 411 972 q 438 961 426 972 q 449 935 449 950 l 449 382 q 487 294 449 325 q 590 264 525 264 q 694 294 656 264 q 732 382 732 325 l 732 935 q 743 961 732 950 q 769 972 754 972 l 1060 972 q 1086 961 1075 972 q 1097 935 1097 950 l 1097 404 q 960 88 1097 189 q 590 -14 824 -14 z "},"ú":{"ha":1181,"x_min":83,"x_max":1097,"o":"m 551 1154 q 575 1175 565 1171 q 603 1181 585 1179 l 822 1181 q 842 1173 835 1181 q 849 1153 849 1165 q 842 1136 849 1143 l 710 1025 q 671 1015 697 1015 l 654 1015 l 486 1015 q 464 1038 464 1015 q 471 1056 464 1049 l 551 1154 m 590 -14 q 960 88 824 -14 q 1097 404 1097 189 l 1097 935 q 1086 961 1097 950 q 1060 972 1075 972 l 769 972 q 743 961 754 972 q 732 935 732 950 l 732 382 q 694 294 732 325 q 590 264 656 264 q 487 294 525 264 q 449 382 449 325 l 449 935 q 438 961 449 950 q 411 972 426 972 l 121 972 q 94 961 106 972 q 83 935 83 950 l 83 404 q 220 88 83 189 q 590 -14 357 -14 z "},"ŭ":{"ha":1181,"x_min":83,"x_max":1097,"o":"m 646 1169 q 672 1188 656 1188 l 810 1188 q 829 1182 822 1188 q 836 1169 836 1176 q 772 1059 836 1104 q 589 1014 708 1014 q 407 1059 471 1014 q 343 1169 343 1104 q 350 1182 343 1176 q 369 1188 357 1188 l 507 1188 q 533 1169 528 1188 q 549 1146 536 1157 q 589 1135 561 1135 q 628 1144 617 1135 q 646 1169 639 1154 m 590 -14 q 220 88 357 -14 q 83 404 83 189 l 83 935 q 94 961 83 950 q 121 972 106 972 l 411 972 q 438 961 426 972 q 449 935 449 950 l 449 382 q 487 294 449 325 q 590 264 525 264 q 694 294 656 264 q 732 382 732 325 l 732 935 q 743 961 732 950 q 769 972 754 972 l 1060 972 q 1086 961 1075 972 q 1097 935 1097 950 l 1097 404 q 960 88 1097 189 q 590 -14 824 -14 z "},"û":{"ha":1181,"x_min":83,"x_max":1097,"o":"m 511 1025 q 456 1015 481 1015 l 343 1015 q 327 1022 333 1015 q 321 1038 321 1028 q 332 1057 321 1050 l 447 1154 q 483 1175 468 1169 q 513 1181 497 1181 l 668 1181 q 698 1175 683 1181 q 733 1154 713 1169 l 849 1057 q 860 1038 860 1050 q 853 1022 860 1028 q 838 1015 847 1015 l 725 1015 q 669 1025 700 1015 l 590 1056 l 511 1025 m 590 -14 q 960 88 824 -14 q 1097 404 1097 189 l 1097 935 q 1086 961 1097 950 q 1060 972 1075 972 l 769 972 q 743 961 754 972 q 732 935 732 950 l 732 382 q 694 294 732 325 q 590 264 656 264 q 487 294 525 264 q 449 382 449 325 l 449 935 q 438 961 449 950 q 411 972 426 972 l 121 972 q 94 961 106 972 q 83 935 83 950 l 83 404 q 220 88 83 189 q 590 -14 357 -14 z "},"ü":{"ha":1181,"x_min":83,"x_max":1097,"o":"m 496 1186 q 519 1177 510 1186 q 528 1154 528 1168 l 528 1053 q 519 1030 528 1039 q 496 1021 510 1021 l 335 1021 q 312 1030 321 1021 q 303 1053 303 1039 l 303 1154 q 312 1177 303 1168 q 335 1186 321 1186 l 496 1186 m 844 1186 q 867 1177 858 1186 q 876 1154 876 1168 l 876 1053 q 867 1030 876 1039 q 844 1021 858 1021 l 683 1021 q 660 1030 669 1021 q 651 1053 651 1039 l 651 1154 q 660 1177 651 1168 q 683 1186 669 1186 l 844 1186 m 590 -14 q 960 88 824 -14 q 1097 404 1097 189 l 1097 935 q 1086 961 1097 950 q 1060 972 1075 972 l 769 972 q 743 961 754 972 q 732 935 732 950 l 732 382 q 694 294 732 325 q 590 264 656 264 q 487 294 525 264 q 449 382 449 325 l 449 935 q 438 961 449 950 q 411 972 426 972 l 121 972 q 94 961 106 972 q 83 935 83 950 l 83 404 q 220 88 83 189 q 590 -14 357 -14 z "},"ù":{"ha":1181,"x_min":83,"x_max":1097,"o":"m 711 1056 q 718 1038 718 1049 q 696 1015 718 1015 l 528 1015 l 511 1015 q 472 1025 485 1015 l 340 1136 q 333 1153 333 1143 q 340 1173 333 1165 q 360 1181 347 1181 l 579 1181 q 607 1175 597 1179 q 631 1154 617 1171 l 711 1056 m 590 -14 q 220 88 357 -14 q 83 404 83 189 l 83 935 q 94 961 83 950 q 121 972 106 972 l 411 972 q 438 961 426 972 q 449 935 449 950 l 449 382 q 487 294 449 325 q 590 264 525 264 q 694 294 656 264 q 732 382 732 325 l 732 935 q 743 961 732 950 q 769 972 754 972 l 1060 972 q 1086 961 1075 972 q 1097 935 1097 950 l 1097 404 q 960 88 1097 189 q 590 -14 824 -14 z "},"ű":{"ha":1181,"x_min":83,"x_max":1097,"o":"m 381 1154 q 404 1175 394 1171 q 432 1181 414 1179 l 624 1181 q 643 1173 636 1181 q 650 1153 650 1165 q 643 1136 650 1143 l 539 1025 q 500 1015 526 1015 l 483 1015 l 343 1015 q 321 1038 321 1015 q 328 1056 321 1042 l 381 1154 m 704 1154 q 728 1175 718 1171 q 756 1181 738 1179 l 947 1181 q 967 1173 960 1181 q 974 1153 974 1165 q 967 1136 974 1143 l 863 1025 q 824 1015 850 1015 l 807 1015 l 667 1015 q 644 1038 644 1015 q 651 1056 644 1042 l 704 1154 m 590 -14 q 960 88 824 -14 q 1097 404 1097 189 l 1097 935 q 1086 961 1097 950 q 1060 972 1075 972 l 769 972 q 743 961 754 972 q 732 935 732 950 l 732 382 q 694 294 732 325 q 590 264 656 264 q 487 294 525 264 q 449 382 449 325 l 449 935 q 438 961 449 950 q 411 972 426 972 l 121 972 q 94 961 106 972 q 83 935 83 950 l 83 404 q 220 88 83 189 q 590 -14 357 -14 z "},"ū":{"ha":1181,"x_min":83,"x_max":1097,"o":"m 846 1181 q 869 1172 860 1181 q 878 1149 878 1163 l 878 1047 q 869 1024 878 1033 q 846 1015 860 1015 l 336 1015 q 313 1024 322 1015 q 304 1047 304 1033 l 304 1149 q 313 1172 304 1163 q 336 1181 322 1181 l 846 1181 m 590 -14 q 960 88 824 -14 q 1097 404 1097 189 l 1097 935 q 1086 961 1097 950 q 1060 972 1075 972 l 769 972 q 743 961 754 972 q 732 935 732 950 l 732 382 q 694 294 732 325 q 590 264 656 264 q 487 294 525 264 q 449 382 449 325 l 449 935 q 438 961 449 950 q 411 972 426 972 l 121 972 q 94 961 106 972 q 83 935 83 950 l 83 404 q 220 88 83 189 q 590 -14 357 -14 z "},"ų":{"ha":1181,"x_min":83,"x_max":1097,"o":"m 694 -83 q 722 -92 711 -83 q 732 -118 732 -101 l 732 -175 q 722 -199 732 -190 q 694 -208 711 -208 l 675 -208 q 514 -167 564 -208 q 464 -47 464 -126 q 468 -6 464 -25 q 185 118 288 18 q 83 404 83 218 l 83 935 q 94 961 83 950 q 121 972 106 972 l 411 972 q 438 961 426 972 q 449 935 449 950 l 449 382 q 487 294 449 325 q 590 264 525 264 q 694 294 656 264 q 732 382 732 325 l 732 935 q 743 961 732 950 q 769 972 754 972 l 1060 972 q 1086 961 1075 972 q 1097 935 1097 950 l 1097 404 q 997 120 1097 221 q 721 -4 897 19 l 710 -7 l 685 -11 q 638 -25 650 -18 q 625 -47 625 -32 q 685 -83 625 -83 l 694 -83 z "},"ů":{"ha":1181,"x_min":83,"x_max":1097,"o":"m 450 1093 q 490 1162 450 1136 q 590 1188 531 1188 q 690 1162 650 1188 q 731 1093 731 1136 q 690 1024 731 1050 q 590 999 650 999 q 490 1024 531 999 q 450 1093 450 1050 m 547 1093 q 560 1073 547 1081 q 590 1065 572 1065 q 620 1073 608 1065 q 632 1093 632 1081 q 620 1113 632 1106 q 590 1121 608 1121 q 560 1113 572 1121 q 547 1093 547 1106 m 590 -14 q 960 88 824 -14 q 1097 404 1097 189 l 1097 935 q 1086 961 1097 950 q 1060 972 1075 972 l 769 972 q 743 961 754 972 q 732 935 732 950 l 732 382 q 694 294 732 325 q 590 264 656 264 q 487 294 525 264 q 449 382 449 325 l 449 935 q 438 961 449 950 q 411 972 426 972 l 121 972 q 94 961 106 972 q 83 935 83 950 l 83 404 q 220 88 83 189 q 590 -14 357 -14 z "},"ũ":{"ha":1181,"x_min":83,"x_max":1097,"o":"m 676 1014 q 583 1033 633 1014 q 563 1041 581 1035 q 526 1047 544 1047 q 486 1033 503 1047 q 457 1021 474 1021 l 340 1021 q 322 1028 329 1021 q 314 1046 314 1036 q 331 1103 314 1069 q 391 1162 349 1136 q 503 1188 433 1188 q 596 1168 546 1188 q 617 1160 599 1167 q 653 1154 635 1154 q 692 1168 675 1154 q 706 1178 700 1175 q 722 1181 713 1181 l 839 1181 q 858 1173 851 1181 q 865 1154 865 1165 q 848 1098 865 1131 q 788 1040 831 1065 q 676 1014 746 1014 m 590 -14 q 960 88 824 -14 q 1097 404 1097 189 l 1097 935 q 1086 961 1097 950 q 1060 972 1075 972 l 769 972 q 743 961 754 972 q 732 935 732 950 l 732 382 q 694 294 732 325 q 590 264 656 264 q 487 294 525 264 q 449 382 449 325 l 449 935 q 438 961 449 950 q 411 972 426 972 l 121 972 q 94 961 106 972 q 83 935 83 950 l 83 404 q 220 88 83 189 q 590 -14 357 -14 z "},"v":{"ha":1181,"x_min":44,"x_max":1136,"o":"m 1106 972 q 1127 963 1118 972 q 1136 942 1136 954 l 1135 932 l 815 46 q 793 13 808 26 q 753 0 778 0 l 429 0 q 389 13 404 0 q 368 42 374 26 l 46 932 l 44 942 q 53 963 44 954 q 75 972 63 972 l 368 972 q 409 958 393 972 q 431 926 425 943 l 590 394 l 750 926 q 771 958 756 944 q 813 972 786 972 l 1106 972 z "},"w":{"ha":1181,"x_min":28,"x_max":1164,"o":"m 468 38 q 448 13 464 25 q 407 0 432 0 l 213 0 q 169 16 186 0 q 149 53 151 32 l 28 938 l 28 942 q 37 963 28 954 q 58 972 46 972 l 297 972 q 342 956 325 972 q 363 914 360 939 l 407 489 l 488 710 q 508 737 492 724 q 549 750 524 750 l 643 750 q 684 737 668 750 q 704 710 700 724 l 785 489 l 829 914 q 849 956 832 939 q 894 972 867 972 l 1133 972 q 1155 963 1146 972 q 1164 942 1164 954 l 1164 938 l 1043 53 q 1023 16 1040 32 q 979 0 1006 0 l 785 0 q 744 13 760 0 q 724 38 728 25 l 596 331 l 468 38 z "},"ẃ":{"ha":1181,"x_min":28,"x_max":1164,"o":"m 543 1154 q 567 1175 557 1171 q 594 1181 576 1179 l 814 1181 q 833 1173 826 1181 q 840 1153 840 1165 q 833 1136 840 1143 l 701 1025 q 663 1015 689 1015 l 646 1015 l 478 1015 q 456 1038 456 1015 q 463 1056 456 1049 l 543 1154 m 468 38 q 448 13 464 25 q 407 0 432 0 l 213 0 q 169 16 186 0 q 149 53 151 32 l 28 938 l 28 942 q 37 963 28 954 q 58 972 46 972 l 297 972 q 342 956 325 972 q 363 914 360 939 l 407 489 l 488 710 q 508 737 492 724 q 549 750 524 750 l 643 750 q 684 737 668 750 q 704 710 700 724 l 785 489 l 829 914 q 849 956 832 939 q 894 972 867 972 l 1133 972 q 1155 963 1146 972 q 1164 942 1164 954 l 1164 938 l 1043 53 q 1023 16 1040 32 q 979 0 1006 0 l 785 0 q 744 13 760 0 q 724 38 728 25 l 596 331 l 468 38 z "},"ŵ":{"ha":1181,"x_min":28,"x_max":1164,"o":"m 514 1025 q 458 1015 483 1015 l 346 1015 q 330 1022 336 1015 q 324 1038 324 1028 q 335 1057 324 1050 l 450 1154 q 485 1175 471 1169 q 515 1181 500 1181 l 671 1181 q 701 1175 686 1181 q 736 1154 715 1169 l 851 1057 q 863 1038 863 1050 q 856 1022 863 1028 q 840 1015 850 1015 l 728 1015 q 672 1025 703 1015 l 593 1056 l 514 1025 m 468 38 q 448 13 464 25 q 407 0 432 0 l 213 0 q 169 16 186 0 q 149 53 151 32 l 28 938 l 28 942 q 37 963 28 954 q 58 972 46 972 l 297 972 q 342 956 325 972 q 363 914 360 939 l 407 489 l 488 710 q 508 737 492 724 q 549 750 524 750 l 643 750 q 684 737 668 750 q 704 710 700 724 l 785 489 l 829 914 q 849 956 832 939 q 894 972 867 972 l 1133 972 q 1155 963 1146 972 q 1164 942 1164 954 l 1164 938 l 1043 53 q 1023 16 1040 32 q 979 0 1006 0 l 785 0 q 744 13 760 0 q 724 38 728 25 l 596 331 l 468 38 z "},"ẅ":{"ha":1181,"x_min":28,"x_max":1164,"o":"m 500 1181 q 523 1172 514 1181 q 532 1149 532 1163 l 532 1047 q 523 1024 532 1033 q 500 1015 514 1015 l 339 1015 q 316 1024 325 1015 q 307 1047 307 1033 l 307 1149 q 316 1172 307 1163 q 339 1181 325 1181 l 500 1181 m 849 1181 q 872 1172 863 1181 q 881 1149 881 1163 l 881 1047 q 872 1024 881 1033 q 849 1015 863 1015 l 688 1015 q 665 1024 674 1015 q 656 1047 656 1033 l 656 1149 q 665 1172 656 1163 q 688 1181 674 1181 l 849 1181 m 468 38 q 448 13 464 25 q 407 0 432 0 l 213 0 q 169 16 186 0 q 149 53 151 32 l 28 938 l 28 942 q 37 963 28 954 q 58 972 46 972 l 297 972 q 342 956 325 972 q 363 914 360 939 l 407 489 l 488 710 q 508 737 492 724 q 549 750 524 750 l 643 750 q 684 737 668 750 q 704 710 700 724 l 785 489 l 829 914 q 849 956 832 939 q 894 972 867 972 l 1133 972 q 1155 963 1146 972 q 1164 942 1164 954 l 1164 938 l 1043 53 q 1023 16 1040 32 q 979 0 1006 0 l 785 0 q 744 13 760 0 q 724 38 728 25 l 596 331 l 468 38 z "},"ẁ":{"ha":1181,"x_min":28,"x_max":1164,"o":"m 707 1056 q 714 1038 714 1049 q 692 1015 714 1015 l 524 1015 l 507 1015 q 468 1025 481 1015 l 336 1136 q 329 1153 329 1143 q 336 1173 329 1165 q 356 1181 343 1181 l 575 1181 q 603 1175 593 1179 q 626 1154 613 1171 l 707 1056 m 468 38 q 448 13 464 25 q 407 0 432 0 l 213 0 q 169 16 186 0 q 149 53 151 32 l 28 938 l 28 942 q 37 963 28 954 q 58 972 46 972 l 297 972 q 342 956 325 972 q 363 914 360 939 l 407 489 l 488 710 q 508 737 492 724 q 549 750 524 750 l 643 750 q 684 737 668 750 q 704 710 700 724 l 785 489 l 829 914 q 849 956 832 939 q 894 972 867 972 l 1133 972 q 1155 963 1146 972 q 1164 942 1164 954 l 1164 938 l 1043 53 q 1023 16 1040 32 q 979 0 1006 0 l 785 0 q 744 13 760 0 q 724 38 728 25 l 596 331 l 468 38 z "},"x":{"ha":1181,"x_min":69,"x_max":1110,"o":"m 1106 46 q 1110 35 1110 42 q 1101 10 1110 21 q 1079 0 1092 0 l 781 0 q 724 32 743 0 l 589 239 l 457 32 q 400 0 436 0 l 100 0 q 78 9 88 0 q 69 31 69 18 l 69 35 q 74 46 69 42 l 381 515 l 107 926 q 103 942 103 932 q 112 963 103 954 q 133 972 121 972 l 433 972 q 492 938 469 972 l 600 760 l 717 940 q 738 963 726 953 q 774 972 750 972 l 1072 972 q 1094 963 1085 972 q 1103 942 1103 954 l 1103 938 q 1099 926 1103 931 l 808 497 l 1106 46 z "},"y":{"ha":1181,"x_min":51,"x_max":1129,"o":"m 1099 972 q 1120 963 1111 972 q 1129 943 1129 954 q 1125 926 1129 935 l 775 347 l 775 38 q 764 11 775 22 q 738 0 753 0 l 442 0 q 415 11 426 0 q 404 38 404 22 l 404 347 l 56 926 q 51 942 51 935 q 60 963 51 954 q 82 972 69 972 l 375 972 q 432 940 414 972 l 589 665 l 750 938 q 808 972 771 972 l 1099 972 z "},"ý":{"ha":1181,"x_min":51,"x_max":1129,"o":"m 540 1154 q 564 1175 554 1171 q 592 1181 574 1179 l 811 1181 q 831 1173 824 1181 q 838 1153 838 1165 q 831 1136 838 1143 l 699 1025 q 660 1015 686 1015 l 643 1015 l 475 1015 q 453 1038 453 1015 q 460 1056 453 1049 l 540 1154 m 1099 972 q 1120 963 1111 972 q 1129 943 1129 954 q 1125 926 1129 935 l 775 347 l 775 38 q 764 11 775 22 q 738 0 753 0 l 442 0 q 415 11 426 0 q 404 38 404 22 l 404 347 l 56 926 q 51 942 51 935 q 60 963 51 954 q 82 972 69 972 l 375 972 q 432 940 414 972 l 589 665 l 750 938 q 808 972 771 972 l 1099 972 z "},"ŷ":{"ha":1181,"x_min":51,"x_max":1129,"o":"m 510 1025 q 454 1015 479 1015 l 342 1015 q 326 1022 332 1015 q 319 1038 319 1028 q 331 1057 319 1050 l 446 1154 q 481 1175 467 1169 q 511 1181 496 1181 l 667 1181 q 697 1175 682 1181 q 732 1154 711 1169 l 847 1057 q 858 1038 858 1050 q 852 1022 858 1028 q 836 1015 846 1015 l 724 1015 q 668 1025 699 1015 l 589 1056 l 510 1025 m 1099 972 q 1120 963 1111 972 q 1129 943 1129 954 q 1125 926 1129 935 l 775 347 l 775 38 q 764 11 775 22 q 738 0 753 0 l 442 0 q 415 11 426 0 q 404 38 404 22 l 404 347 l 56 926 q 51 942 51 935 q 60 963 51 954 q 82 972 69 972 l 375 972 q 432 940 414 972 l 589 665 l 750 938 q 808 972 771 972 l 1099 972 z "},"ÿ":{"ha":1181,"x_min":51,"x_max":1129,"o":"m 496 1188 q 519 1178 510 1188 q 528 1156 528 1169 l 528 1054 q 519 1031 528 1040 q 496 1022 510 1022 l 335 1022 q 312 1031 321 1022 q 303 1054 303 1040 l 303 1156 q 312 1178 303 1169 q 335 1188 321 1188 l 496 1188 m 844 1188 q 867 1178 858 1188 q 876 1156 876 1169 l 876 1054 q 867 1031 876 1040 q 844 1022 858 1022 l 683 1022 q 660 1031 669 1022 q 651 1054 651 1040 l 651 1156 q 660 1178 651 1169 q 683 1188 669 1188 l 844 1188 m 1099 972 q 1120 963 1111 972 q 1129 943 1129 954 q 1125 926 1129 935 l 775 347 l 775 38 q 764 11 775 22 q 738 0 753 0 l 442 0 q 415 11 426 0 q 404 38 404 22 l 404 347 l 56 926 q 51 942 51 935 q 60 963 51 954 q 82 972 69 972 l 375 972 q 432 940 414 972 l 589 665 l 750 938 q 808 972 771 972 l 1099 972 z "},"ỳ":{"ha":1181,"x_min":51,"x_max":1129,"o":"m 704 1056 q 711 1038 711 1049 q 689 1015 711 1015 l 521 1015 l 504 1015 q 465 1025 478 1015 l 333 1136 q 326 1153 326 1143 q 333 1173 326 1165 q 353 1181 340 1181 l 572 1181 q 600 1175 590 1179 q 624 1154 610 1171 l 704 1056 m 1099 972 q 1120 963 1111 972 q 1129 943 1129 954 q 1125 926 1129 935 l 775 347 l 775 38 q 764 11 775 22 q 738 0 753 0 l 442 0 q 415 11 426 0 q 404 38 404 22 l 404 347 l 56 926 q 51 942 51 935 q 60 963 51 954 q 82 972 69 972 l 375 972 q 432 940 414 972 l 589 665 l 750 938 q 808 972 771 972 l 1099 972 z "},"z":{"ha":1181,"x_min":108,"x_max":1075,"o":"m 1038 285 q 1064 274 1053 285 q 1075 247 1075 263 l 1075 38 q 1064 11 1075 22 q 1038 0 1053 0 l 146 0 q 119 11 131 0 q 108 38 108 22 l 108 238 q 115 268 108 256 q 129 286 122 281 l 568 688 l 175 688 q 149 699 160 688 q 138 725 138 710 l 138 935 q 149 961 138 950 q 175 972 160 972 l 1008 972 q 1035 961 1024 972 q 1046 935 1046 950 l 1046 736 q 1028 690 1046 707 l 594 285 l 1038 285 z "},"ź":{"ha":1181,"x_min":108,"x_max":1075,"o":"m 528 1154 q 551 1175 542 1171 q 579 1181 561 1179 l 799 1181 q 818 1173 811 1181 q 825 1153 825 1165 q 818 1136 825 1143 l 686 1025 q 647 1015 674 1015 l 631 1015 l 463 1015 q 440 1038 440 1015 q 447 1056 440 1049 l 528 1154 m 1038 285 q 1064 274 1053 285 q 1075 247 1075 263 l 1075 38 q 1064 11 1075 22 q 1038 0 1053 0 l 146 0 q 119 11 131 0 q 108 38 108 22 l 108 238 q 115 268 108 256 q 129 286 122 281 l 568 688 l 175 688 q 149 699 160 688 q 138 725 138 710 l 138 935 q 149 961 138 950 q 175 972 160 972 l 1008 972 q 1035 961 1024 972 q 1046 935 1046 950 l 1046 736 q 1028 690 1046 707 l 594 285 l 1038 285 z "},"ž":{"ha":1181,"x_min":108,"x_max":1075,"o":"m 676 1171 q 732 1181 707 1181 l 844 1181 q 860 1174 854 1181 q 867 1158 867 1168 q 856 1139 867 1146 l 740 1042 q 705 1021 719 1026 q 675 1015 690 1015 l 519 1015 q 490 1021 504 1015 q 454 1042 475 1026 l 339 1139 q 328 1158 328 1146 q 334 1174 328 1168 q 350 1181 340 1181 l 463 1181 q 518 1171 488 1181 l 597 1140 l 676 1171 m 1038 285 q 1064 274 1053 285 q 1075 247 1075 263 l 1075 38 q 1064 11 1075 22 q 1038 0 1053 0 l 146 0 q 119 11 131 0 q 108 38 108 22 l 108 238 q 115 268 108 256 q 129 286 122 281 l 568 688 l 175 688 q 149 699 160 688 q 138 725 138 710 l 138 935 q 149 961 138 950 q 175 972 160 972 l 1008 972 q 1035 961 1024 972 q 1046 935 1046 950 l 1046 736 q 1028 690 1046 707 l 594 285 l 1038 285 z "},"ż":{"ha":1181,"x_min":108,"x_max":1075,"o":"m 685 1181 q 708 1172 699 1181 q 717 1149 717 1163 l 717 1047 q 708 1024 717 1033 q 685 1015 699 1015 l 496 1015 q 473 1024 482 1015 q 464 1047 464 1033 l 464 1149 q 473 1172 464 1163 q 496 1181 482 1181 l 685 1181 m 1038 285 q 1064 274 1053 285 q 1075 247 1075 263 l 1075 38 q 1064 11 1075 22 q 1038 0 1053 0 l 146 0 q 119 11 131 0 q 108 38 108 22 l 108 238 q 115 268 108 256 q 129 286 122 281 l 568 688 l 175 688 q 149 699 160 688 q 138 725 138 710 l 138 935 q 149 961 138 950 q 175 972 160 972 l 1008 972 q 1035 961 1024 972 q 1046 935 1046 950 l 1046 736 q 1028 690 1046 707 l 594 285 l 1038 285 z "},"ª":{"ha":1181,"x_min":375,"x_max":806,"o":"m 375 715 q 422 794 375 764 q 546 839 468 825 l 621 850 q 617 879 621 872 q 599 886 614 886 q 575 875 588 886 q 550 864 563 864 l 415 864 q 406 869 410 864 q 401 881 401 874 q 424 926 401 901 q 491 968 446 950 q 601 986 536 986 q 754 947 703 986 q 806 832 806 907 l 806 629 q 800 616 806 622 q 786 610 794 610 l 649 610 q 634 616 640 610 q 628 629 628 622 l 628 649 q 587 615 614 626 q 528 603 560 603 q 418 635 461 603 q 375 715 375 667 m 576 708 q 611 722 599 708 q 624 764 624 736 l 582 753 q 549 728 549 746 q 556 714 549 719 q 576 708 564 708 z "},"º":{"ha":1181,"x_min":369,"x_max":811,"o":"m 369 819 q 430 943 369 900 q 590 986 490 986 q 751 943 690 986 q 811 819 811 900 l 811 769 q 753 645 811 688 q 590 603 696 603 q 427 645 485 603 q 369 769 369 688 l 369 819 m 622 825 q 615 862 622 851 q 590 872 608 872 q 565 862 572 872 q 558 825 558 851 l 558 764 q 565 726 558 736 q 590 717 572 717 q 615 727 608 717 q 622 764 622 738 l 622 825 z "},"А":{"ha":1181,"x_min":35,"x_max":1154,"o":"m 390 47 q 328 0 372 0 l 65 0 q 44 9 53 0 q 35 31 35 18 l 36 39 l 339 926 q 360 958 344 944 q 401 972 375 972 l 788 972 q 829 958 814 972 q 850 926 844 944 l 1153 39 l 1154 31 q 1145 9 1154 18 q 1124 0 1136 0 l 861 0 q 799 47 817 0 l 764 144 l 425 144 l 390 47 m 594 704 l 496 415 l 693 415 l 594 704 z "},"Б":{"ha":1181,"x_min":118,"x_max":1119,"o":"m 729 607 q 1017 527 915 607 q 1119 306 1119 447 q 1017 82 1119 164 q 728 0 914 0 l 156 0 q 129 11 140 0 q 118 38 118 22 l 118 935 q 129 961 118 950 q 156 972 140 972 l 972 972 q 999 961 988 972 q 1010 935 1010 950 l 1010 740 q 999 714 1010 725 q 972 703 988 703 l 479 703 l 479 607 l 729 607 m 681 239 q 728 261 713 239 q 744 310 744 283 q 727 356 744 336 q 681 375 710 375 l 479 375 l 479 239 l 681 239 z "},"В":{"ha":1181,"x_min":118,"x_max":1119,"o":"m 988 507 q 1081 434 1042 490 q 1119 306 1119 378 q 1019 76 1119 151 q 728 0 919 0 l 156 0 q 129 11 140 0 q 118 38 118 22 l 118 935 q 129 961 118 950 q 156 972 140 972 l 714 972 q 1005 901 911 972 q 1099 685 1099 829 l 1099 681 q 1063 567 1099 614 q 988 507 1026 519 m 722 672 q 708 715 722 697 q 665 733 693 733 l 479 733 l 479 607 l 665 607 q 708 627 693 607 q 722 672 722 647 m 681 239 q 728 260 713 239 q 744 308 744 282 l 744 310 q 727 356 744 336 q 681 375 710 375 l 479 375 l 479 239 l 681 239 z "},"Г":{"ha":1181,"x_min":268,"x_max":1097,"o":"m 629 38 q 618 11 629 22 q 592 0 607 0 l 306 0 q 279 11 290 0 q 268 38 268 22 l 268 935 q 279 961 268 950 q 306 972 290 972 l 1060 972 q 1086 961 1075 972 q 1097 935 1097 950 l 1097 711 q 1086 685 1097 696 q 1060 674 1075 674 l 628 674 l 629 38 z "},"Ѓ":{"ha":1181,"x_min":268,"x_max":1097,"o":"m 610 1154 q 633 1175 624 1171 q 661 1181 643 1179 l 881 1181 q 900 1173 893 1181 q 907 1153 907 1165 q 900 1136 907 1143 l 768 1025 q 729 1015 756 1015 l 713 1015 l 544 1015 q 522 1038 522 1015 q 529 1056 522 1049 l 610 1154 m 1060 674 q 1086 685 1075 674 q 1097 711 1097 696 l 1097 935 q 1086 961 1097 950 q 1060 972 1075 972 l 306 972 q 279 961 290 972 q 268 935 268 950 l 268 38 q 279 11 268 22 q 306 0 290 0 l 592 0 q 618 11 607 0 q 629 38 629 22 l 628 674 l 1060 674 z "},"Ґ":{"ha":1181,"x_min":282,"x_max":1153,"o":"m 643 38 q 632 11 643 22 q 606 0 621 0 l 319 0 q 293 11 304 0 q 282 38 282 22 l 282 935 q 293 961 282 950 q 319 972 304 972 l 832 972 l 832 1143 q 843 1169 832 1158 q 869 1181 854 1181 l 1115 1181 q 1142 1169 1131 1181 q 1153 1143 1153 1158 l 1153 711 q 1142 684 1153 694 q 1115 674 1132 674 l 642 674 l 643 38 z "},"Д":{"ha":1181,"x_min":54,"x_max":1126,"o":"m 981 972 q 1007 961 996 972 q 1018 935 1018 950 l 1018 299 l 1089 299 q 1115 288 1104 299 q 1126 261 1126 276 l 1126 -135 q 1115 -161 1126 -150 q 1089 -172 1104 -172 l 864 -172 q 838 -161 849 -172 q 826 -135 826 -150 l 826 0 l 353 0 l 353 -135 q 342 -161 353 -150 q 315 -172 331 -172 l 92 -172 q 65 -162 76 -172 q 54 -135 54 -151 l 54 261 q 65 288 54 276 q 92 299 76 299 l 114 299 q 185 378 160 299 q 210 668 210 457 l 210 935 q 221 961 210 950 q 247 972 232 972 l 981 972 m 543 640 q 531 445 543 526 q 489 299 518 364 l 685 299 l 685 688 l 543 688 l 543 640 z "},"Е":{"ha":1181,"x_min":125,"x_max":1078,"o":"m 1040 271 q 1067 260 1056 271 q 1078 233 1078 249 l 1078 38 q 1067 11 1078 22 q 1040 0 1056 0 l 163 0 q 136 11 147 0 q 125 38 125 22 l 125 935 q 136 961 125 950 q 163 972 147 972 l 1026 972 q 1053 961 1042 972 q 1064 935 1064 950 l 1064 739 q 1053 713 1064 724 q 1026 701 1042 701 l 486 701 l 486 614 l 950 614 q 976 603 965 614 q 988 576 988 592 l 988 396 q 976 369 988 381 q 950 358 965 358 l 486 358 l 486 271 l 1040 271 z "},"Ѐ":{"ha":1181,"x_min":125,"x_max":1078,"o":"m 1040 271 q 1067 260 1056 271 q 1078 233 1078 249 l 1078 38 q 1067 11 1078 22 q 1040 0 1056 0 l 163 0 q 136 11 147 0 q 125 38 125 22 l 125 935 q 136 961 125 950 q 163 972 147 972 l 1026 972 q 1053 961 1042 972 q 1064 935 1064 950 l 1064 739 q 1053 713 1064 724 q 1026 701 1042 701 l 486 701 l 486 614 l 950 614 q 976 603 965 614 q 988 576 988 592 l 988 396 q 976 369 988 381 q 950 358 965 358 l 486 358 l 486 271 l 1040 271 m 733 1056 q 740 1038 740 1049 q 718 1015 740 1015 l 550 1015 l 533 1015 q 494 1025 507 1015 l 363 1136 q 356 1153 356 1143 q 363 1173 356 1165 q 382 1181 369 1181 l 601 1181 q 629 1175 619 1179 q 653 1154 639 1171 l 733 1056 z "},"Ё":{"ha":1181,"x_min":125,"x_max":1078,"o":"m 507 1181 q 530 1172 521 1181 q 539 1149 539 1163 l 539 1047 q 530 1024 539 1033 q 507 1015 521 1015 l 346 1015 q 323 1024 332 1015 q 314 1047 314 1033 l 314 1149 q 323 1172 314 1163 q 346 1181 332 1181 l 507 1181 m 856 1181 q 878 1172 869 1181 q 888 1149 888 1163 l 888 1047 q 878 1024 888 1033 q 856 1015 869 1015 l 694 1015 q 672 1024 681 1015 q 663 1047 663 1033 l 663 1149 q 672 1172 663 1163 q 694 1181 681 1181 l 856 1181 m 1040 271 q 1067 260 1056 271 q 1078 233 1078 249 l 1078 38 q 1067 11 1078 22 q 1040 0 1056 0 l 163 0 q 136 11 147 0 q 125 38 125 22 l 125 935 q 136 961 125 950 q 163 972 147 972 l 1026 972 q 1053 961 1042 972 q 1064 935 1064 950 l 1064 739 q 1053 713 1064 724 q 1026 701 1042 701 l 486 701 l 486 614 l 950 614 q 976 603 965 614 q 988 576 988 592 l 988 396 q 976 369 988 381 q 950 358 965 358 l 486 358 l 486 271 l 1040 271 z "},"Ж":{"ha":1181,"x_min":-18,"x_max":1196,"o":"m 1190 46 q 1196 28 1196 29 q 1169 0 1196 0 l 939 0 q 889 28 903 0 l 750 375 l 718 375 l 718 38 q 707 11 718 22 q 681 0 696 0 l 497 0 q 471 11 482 0 q 460 38 460 22 l 460 375 l 428 375 l 289 28 q 239 0 275 0 l 8 0 q -18 28 -18 0 q -12 46 -18 29 l 185 507 l 11 926 q 6 946 6 943 q 13 965 6 958 q 31 972 19 972 l 264 972 q 303 942 292 972 l 432 608 l 460 608 l 460 935 q 471 961 460 950 q 497 972 482 972 l 681 972 q 707 961 696 972 q 718 935 718 950 l 718 608 l 746 608 l 875 942 q 914 972 886 972 l 1147 972 q 1165 965 1158 972 q 1172 946 1172 958 q 1167 926 1172 943 l 993 507 l 1190 46 z "},"З":{"ha":1181,"x_min":118,"x_max":1079,"o":"m 942 486 q 998 453 965 479 q 1055 384 1031 426 q 1079 292 1079 342 q 1017 128 1079 197 q 846 23 956 60 q 597 -14 736 -14 q 324 33 432 -14 q 167 146 217 79 q 118 275 118 213 q 127 297 118 289 q 149 306 136 306 l 453 306 q 485 289 468 306 q 524 263 504 269 q 599 256 543 256 q 675 271 646 256 q 704 315 704 286 q 676 349 704 336 q 597 363 649 363 l 451 363 q 425 374 436 363 q 414 400 414 385 l 414 571 q 425 597 414 586 q 451 608 436 608 l 597 608 q 676 622 649 608 q 704 656 704 635 q 675 700 704 685 q 599 715 646 715 q 524 708 543 715 q 485 682 504 701 q 453 665 468 665 l 149 665 q 127 674 136 665 q 118 696 118 682 q 167 826 118 758 q 324 940 217 893 q 597 986 432 986 q 846 949 736 986 q 1017 842 956 913 q 1079 678 1079 772 q 1056 586 1079 628 q 999 519 1032 544 q 942 486 967 493 z "},"И":{"ha":1181,"x_min":110,"x_max":1063,"o":"m 406 972 q 432 961 421 972 q 443 935 443 950 l 443 485 l 746 944 q 800 972 767 972 l 1025 972 q 1051 961 1040 972 q 1063 935 1063 950 l 1063 38 q 1051 11 1063 22 q 1025 0 1040 0 l 767 0 q 740 11 751 0 q 729 38 729 22 l 729 457 l 426 29 q 371 0 404 0 l 147 0 q 121 11 132 0 q 110 38 110 22 l 110 935 q 121 961 110 950 q 147 972 132 972 l 406 972 z "},"Й":{"ha":1181,"x_min":110,"x_max":1063,"o":"m 406 972 q 432 961 421 972 q 443 935 443 950 l 443 485 l 746 944 q 800 972 767 972 l 1025 972 q 1051 961 1040 972 q 1063 935 1063 950 l 1063 38 q 1051 11 1063 22 q 1025 0 1040 0 l 767 0 q 740 11 751 0 q 729 38 729 22 l 729 457 l 426 29 q 371 0 404 0 l 147 0 q 121 11 132 0 q 110 38 110 22 l 110 935 q 121 961 110 950 q 147 972 132 972 l 406 972 m 646 1169 q 672 1188 651 1188 l 810 1188 q 829 1182 822 1188 q 836 1169 836 1176 q 772 1059 836 1104 q 589 1014 708 1014 q 407 1059 471 1014 q 343 1169 343 1104 q 350 1182 343 1176 q 369 1188 357 1188 l 507 1188 q 533 1169 528 1188 q 549 1146 536 1157 q 589 1135 561 1135 q 626 1144 615 1135 q 646 1169 636 1153 z "},"Ѝ":{"ha":1181,"x_min":110,"x_max":1063,"o":"m 406 972 q 432 961 421 972 q 443 935 443 950 l 443 485 l 746 944 q 800 972 767 972 l 1025 972 q 1051 961 1040 972 q 1063 935 1063 950 l 1063 38 q 1051 11 1063 22 q 1025 0 1040 0 l 767 0 q 740 11 751 0 q 729 38 729 22 l 729 457 l 426 29 q 371 0 404 0 l 147 0 q 121 11 132 0 q 110 38 110 22 l 110 935 q 121 961 110 950 q 147 972 132 972 l 406 972 m 692 1056 q 699 1038 699 1049 q 676 1015 699 1015 l 508 1015 l 492 1015 q 453 1025 465 1015 l 321 1136 q 314 1153 314 1143 q 321 1173 314 1165 q 340 1181 328 1181 l 560 1181 q 588 1175 578 1179 q 611 1154 597 1171 l 692 1056 z "},"К":{"ha":1181,"x_min":114,"x_max":1169,"o":"m 1164 49 q 1169 31 1169 40 q 1160 9 1169 18 q 1139 0 1151 0 l 781 0 q 731 22 749 0 l 517 332 l 475 332 l 475 38 q 464 11 475 22 q 438 0 453 0 l 151 0 q 125 11 136 0 q 114 38 114 22 l 114 935 q 125 961 114 950 q 151 972 136 972 l 438 972 q 464 961 453 972 q 475 935 475 950 l 475 649 l 506 649 l 708 949 q 760 972 729 972 l 1094 972 q 1116 963 1107 972 q 1125 942 1125 954 q 1118 922 1125 931 l 789 521 l 1164 49 z "},"Ќ":{"ha":1181,"x_min":114,"x_max":1169,"o":"m 568 1154 q 592 1175 582 1171 q 619 1181 601 1179 l 839 1181 q 858 1173 851 1181 q 865 1153 865 1165 q 858 1136 865 1143 l 726 1025 q 688 1015 714 1015 l 671 1015 l 503 1015 q 481 1038 481 1015 q 488 1056 481 1049 l 568 1154 m 1164 49 q 1169 31 1169 40 q 1160 9 1169 18 q 1139 0 1151 0 l 781 0 q 731 22 749 0 l 517 332 l 475 332 l 475 38 q 464 11 475 22 q 438 0 453 0 l 151 0 q 125 11 136 0 q 114 38 114 22 l 114 935 q 125 961 114 950 q 151 972 136 972 l 438 972 q 464 961 453 972 q 475 935 475 950 l 475 649 l 506 649 l 708 949 q 760 972 729 972 l 1094 972 q 1116 963 1107 972 q 1125 942 1125 954 q 1118 922 1125 931 l 789 521 l 1164 49 z "},"Л":{"ha":1181,"x_min":51,"x_max":1056,"o":"m 90 -14 q 63 -3 75 -14 q 51 24 51 8 l 51 246 q 63 272 51 261 q 89 283 74 283 q 165 400 139 283 q 192 738 192 517 l 192 935 q 203 961 192 950 q 229 972 214 972 l 1018 972 q 1044 961 1033 972 q 1056 935 1056 950 l 1056 38 q 1044 11 1056 22 q 1018 0 1033 0 l 760 0 q 733 11 744 0 q 722 38 722 22 l 722 674 l 511 674 l 511 603 q 404 135 511 283 q 90 -14 297 -14 z "},"М":{"ha":1181,"x_min":57,"x_max":1124,"o":"m 772 935 q 832 972 793 972 l 1086 972 q 1113 961 1101 972 q 1124 935 1124 950 l 1124 38 q 1113 11 1124 22 q 1086 0 1101 0 l 835 0 q 808 11 819 0 q 797 38 797 22 l 797 468 l 696 268 q 676 246 692 258 q 638 233 661 233 l 543 233 q 504 246 519 233 q 485 268 489 258 l 383 468 l 383 38 q 372 11 383 22 q 346 0 361 0 l 94 0 q 68 11 79 0 q 57 38 57 22 l 57 935 q 68 961 57 950 q 94 972 79 972 l 349 972 q 408 935 388 972 l 590 601 l 772 935 z "},"Н":{"ha":1181,"x_min":90,"x_max":1090,"o":"m 1053 972 q 1079 961 1068 972 q 1090 935 1090 950 l 1090 38 q 1079 11 1090 22 q 1053 0 1068 0 l 767 0 q 740 11 751 0 q 729 38 729 22 l 729 333 l 451 333 l 451 38 q 440 11 451 22 q 414 0 429 0 l 128 0 q 101 10 113 0 q 90 38 90 21 l 90 935 q 101 961 90 950 q 128 972 113 972 l 414 972 q 440 961 429 972 q 451 935 451 950 l 451 650 l 729 650 l 729 935 q 740 961 729 950 q 767 972 751 972 l 1053 972 z "},"О":{"ha":1181,"x_min":74,"x_max":1107,"o":"m 1107 401 q 966 88 1107 189 q 590 -14 825 -14 q 215 88 356 -14 q 74 404 74 189 l 74 568 q 141 803 74 710 q 325 942 208 897 q 590 986 442 986 q 855 942 739 986 q 1039 804 971 897 q 1107 571 1107 711 l 1107 401 m 449 375 q 487 288 449 318 q 590 257 525 257 q 694 288 656 257 q 732 376 732 319 l 732 596 q 694 684 732 653 q 590 715 656 715 q 487 685 525 715 q 449 597 449 654 l 449 375 z "},"П":{"ha":1181,"x_min":104,"x_max":1076,"o":"m 1039 972 q 1065 961 1054 972 q 1076 935 1076 950 l 1076 38 q 1065 11 1076 22 q 1039 0 1054 0 l 767 0 q 740 11 751 0 q 729 38 729 22 l 729 672 l 451 672 l 451 38 q 440 11 451 22 q 414 0 429 0 l 142 0 q 115 10 126 0 q 104 38 104 21 l 104 935 q 115 961 104 950 q 142 972 126 972 l 1039 972 z "},"Р":{"ha":1181,"x_min":175,"x_max":1160,"o":"m 732 972 q 960 928 863 972 q 1108 807 1057 883 q 1160 636 1160 731 q 1063 392 1160 481 q 732 304 965 304 l 549 304 l 549 38 q 538 11 549 22 q 511 0 526 0 l 213 0 q 186 11 197 0 q 175 38 175 22 l 175 935 q 186 961 175 950 q 213 972 197 972 l 732 972 m 726 561 q 779 581 760 561 q 799 635 799 601 q 779 692 799 669 q 726 714 760 714 l 550 714 l 550 561 l 726 561 z "},"С":{"ha":1181,"x_min":88,"x_max":1117,"o":"m 463 375 q 501 288 463 318 q 604 257 539 257 q 690 276 663 257 q 738 335 718 296 q 786 371 756 371 l 1086 371 q 1108 362 1099 371 q 1117 340 1117 353 q 1060 174 1117 256 q 887 40 1003 93 q 604 -14 771 -14 q 340 31 456 -14 q 156 170 224 76 q 88 404 88 264 l 88 568 q 156 802 88 708 q 340 941 224 896 q 604 986 456 986 q 887 933 771 986 q 1060 798 1003 879 q 1117 632 1117 717 q 1108 610 1117 619 q 1086 601 1099 601 l 786 601 q 738 638 756 601 q 690 696 718 676 q 604 715 663 715 q 501 685 539 715 q 463 597 463 654 l 463 375 z "},"Т":{"ha":1181,"x_min":74,"x_max":1107,"o":"m 1069 972 q 1096 961 1085 972 q 1107 935 1107 950 l 1107 711 q 1096 685 1107 696 q 1069 674 1085 674 l 771 674 l 771 38 q 760 11 771 22 q 733 0 749 0 l 447 0 q 421 11 432 0 q 410 38 410 22 l 410 674 l 111 674 q 85 685 96 674 q 74 711 74 696 l 74 935 q 85 961 74 950 q 111 972 96 972 l 1069 972 z "},"У":{"ha":1181,"x_min":78,"x_max":1121,"o":"m 1089 972 q 1112 963 1103 972 q 1121 943 1121 954 q 1113 911 1121 931 l 813 283 q 710 108 757 167 q 594 25 663 50 q 406 0 525 0 l 246 0 q 219 11 231 0 q 208 38 208 22 l 208 260 q 219 286 208 275 q 246 297 231 297 l 358 297 q 421 308 394 297 l 82 929 q 78 943 78 936 q 88 964 78 956 q 115 972 99 972 l 419 972 q 446 964 436 972 q 464 939 456 956 l 600 643 l 738 939 q 785 972 753 972 l 1089 972 z "},"Ў":{"ha":1181,"x_min":78,"x_max":1121,"o":"m 1089 972 q 1112 963 1103 972 q 1121 943 1121 954 q 1113 911 1121 931 l 813 283 q 710 108 757 167 q 594 25 663 50 q 406 0 525 0 l 246 0 q 219 11 231 0 q 208 38 208 22 l 208 260 q 219 286 208 275 q 246 297 231 297 l 358 297 q 421 308 394 297 l 82 929 q 78 943 78 936 q 88 964 78 956 q 115 972 99 972 l 419 972 q 446 964 436 972 q 464 939 456 956 l 600 643 l 738 939 q 785 972 753 972 l 1089 972 m 674 1169 q 700 1188 679 1188 l 838 1188 q 857 1182 850 1188 q 864 1169 864 1176 q 800 1059 864 1104 q 617 1014 736 1014 q 435 1059 499 1014 q 371 1169 371 1104 q 378 1182 371 1176 q 397 1188 385 1188 l 535 1188 q 561 1169 556 1188 q 576 1146 564 1157 q 617 1135 589 1135 q 653 1144 643 1135 q 674 1169 664 1153 z "},"Ф":{"ha":1181,"x_min":53,"x_max":1135,"o":"m 1135 492 q 1026 206 1135 315 q 736 65 918 97 l 736 -7 q 725 -33 736 -22 q 699 -44 714 -44 l 482 -44 q 456 -33 467 -44 q 444 -7 444 -22 l 444 67 q 159 211 265 100 q 53 492 53 322 q 160 766 53 661 q 444 903 268 871 l 444 1006 q 456 1032 444 1021 q 482 1043 467 1043 l 699 1043 q 725 1032 714 1043 q 736 1006 736 1021 l 736 903 q 1026 767 917 872 q 1135 492 1135 661 m 338 492 q 451 301 338 349 l 451 668 q 338 492 338 622 m 843 490 q 729 668 843 618 l 729 301 q 813 369 782 321 q 843 490 843 418 z "},"Х":{"ha":1181,"x_min":69,"x_max":1110,"o":"m 1106 46 q 1110 35 1110 42 q 1101 10 1110 21 q 1079 0 1092 0 l 781 0 q 724 32 743 0 l 589 239 l 457 32 q 400 0 436 0 l 100 0 q 78 9 88 0 q 69 31 69 18 l 69 35 q 74 46 69 42 l 381 515 l 107 926 q 103 942 103 932 q 112 963 103 954 q 133 972 121 972 l 433 972 q 492 938 469 972 l 600 760 l 717 940 q 738 963 726 953 q 774 972 750 972 l 1072 972 q 1094 963 1085 972 q 1103 942 1103 954 l 1103 938 q 1099 926 1103 931 l 808 497 l 1106 46 z "},"Ч":{"ha":1181,"x_min":90,"x_max":1069,"o":"m 746 0 q 719 11 731 0 q 708 38 708 22 l 708 286 q 469 244 615 244 q 184 341 278 244 q 90 640 90 438 l 90 935 q 101 961 90 950 q 128 972 113 972 l 414 972 q 440 961 429 972 q 451 935 451 950 l 451 654 q 480 583 451 606 q 572 561 508 561 q 664 572 619 561 q 708 597 708 583 l 708 935 q 719 961 708 950 q 746 972 731 972 l 1032 972 q 1058 961 1047 972 q 1069 935 1069 950 l 1069 38 q 1058 11 1069 22 q 1032 0 1047 0 l 746 0 z "},"Ц":{"ha":1181,"x_min":146,"x_max":1097,"o":"m 660 935 q 671 961 660 950 q 697 972 682 972 l 969 972 q 996 961 985 972 q 1007 935 1007 950 l 1007 299 l 1060 299 q 1086 288 1075 299 q 1097 261 1097 276 l 1097 -135 q 1086 -161 1097 -150 q 1060 -172 1075 -172 l 836 -172 q 810 -161 821 -172 q 799 -135 799 -150 l 799 0 l 183 0 q 157 11 168 0 q 146 38 146 22 l 146 935 q 157 962 146 951 q 183 972 168 972 l 469 972 q 496 961 485 972 q 507 935 507 950 l 507 299 l 660 299 l 660 935 z "},"Ш":{"ha":1181,"x_min":57,"x_max":1124,"o":"m 94 0 q 68 11 79 0 q 57 38 57 22 l 57 935 q 68 961 57 950 q 94 972 79 972 l 317 972 q 343 961 332 972 q 354 935 354 950 l 354 299 l 453 299 l 453 935 q 464 961 453 950 q 490 972 475 972 l 688 972 q 714 961 703 972 q 725 935 725 950 l 725 299 l 825 299 l 825 935 q 836 961 825 950 q 863 972 847 972 l 1086 972 q 1113 962 1101 972 q 1124 935 1124 951 l 1124 38 q 1113 11 1124 22 q 1086 0 1101 0 l 94 0 z "},"Щ":{"ha":1181,"x_min":38,"x_max":1181,"o":"m 75 0 q 49 11 60 0 q 38 38 38 22 l 38 935 q 49 962 38 951 q 75 972 60 972 l 297 972 q 324 961 313 972 q 335 935 335 950 l 335 299 l 426 299 l 426 935 q 438 962 426 951 q 464 972 449 972 l 675 972 q 701 961 690 972 q 713 935 713 950 l 713 299 l 807 299 l 807 935 q 818 961 807 950 q 844 972 829 972 l 1054 972 q 1081 961 1069 972 q 1092 935 1092 950 l 1092 299 l 1143 299 q 1169 288 1158 299 q 1181 261 1181 276 l 1181 -135 q 1169 -161 1181 -150 q 1143 -172 1158 -172 l 919 -172 q 893 -161 904 -172 q 882 -135 882 -150 l 882 0 l 75 0 z "},"Џ":{"ha":1181,"x_min":146,"x_max":1028,"o":"m 739 -135 q 728 -161 739 -150 q 701 -172 717 -172 l 478 -172 q 451 -161 463 -172 q 440 -135 440 -150 l 440 0 l 183 0 q 157 11 168 0 q 146 38 146 22 l 146 935 q 157 962 146 951 q 183 972 168 972 l 442 972 q 468 961 457 972 q 479 935 479 950 l 479 299 l 701 299 l 701 935 q 713 961 701 950 q 739 972 724 972 l 990 972 q 1017 961 1006 972 q 1028 935 1028 950 l 1028 38 q 1017 11 1028 22 q 990 0 1006 0 l 739 0 l 739 -135 z "},"Ь":{"ha":1181,"x_min":194,"x_max":1154,"o":"m 715 663 q 941 624 842 663 q 1097 512 1040 586 q 1154 333 1154 438 q 1098 153 1154 228 q 942 39 1042 78 q 717 0 843 0 l 232 0 q 206 11 217 0 q 194 38 194 22 l 194 935 q 206 961 194 950 q 232 972 217 972 l 518 972 q 544 961 533 972 q 556 935 556 950 l 556 663 l 715 663 m 715 260 q 783 281 760 260 q 807 338 807 301 q 715 410 807 410 l 556 410 l 556 260 l 715 260 z "},"Ъ":{"ha":1181,"x_min":49,"x_max":1175,"o":"m 736 663 q 962 624 863 663 q 1118 512 1061 586 q 1175 333 1175 438 q 1119 153 1175 228 q 963 39 1063 78 q 738 0 864 0 l 253 0 q 226 11 238 0 q 215 38 215 22 l 215 703 l 86 703 q 60 714 71 703 q 49 740 49 725 l 49 935 q 60 961 49 950 q 86 972 71 972 l 539 972 q 565 961 554 972 q 576 935 576 950 l 576 663 l 736 663 m 736 260 q 804 281 781 260 q 828 338 828 301 q 736 410 828 410 l 576 410 l 576 260 l 736 260 z "},"Ы":{"ha":1181,"x_min":24,"x_max":1158,"o":"m 406 663 q 676 574 578 663 q 775 333 775 485 q 731 163 775 239 q 604 44 688 88 q 407 0 521 0 l 61 0 q 35 11 46 0 q 24 38 24 22 l 24 935 q 35 961 24 950 q 61 972 46 972 l 306 972 q 332 961 321 972 q 343 935 343 950 l 343 663 l 406 663 m 893 0 q 867 11 878 0 q 856 38 856 22 l 856 935 q 867 961 856 950 q 893 972 878 972 l 1121 972 q 1147 961 1136 972 q 1158 935 1158 950 l 1158 38 q 1147 11 1158 22 q 1121 0 1136 0 l 893 0 m 406 260 q 474 281 450 260 q 497 338 497 301 q 406 410 497 410 l 343 410 l 343 260 l 406 260 z "},"Љ":{"ha":1181,"x_min":3,"x_max":1181,"o":"m 42 -14 q 15 -3 26 -14 q 3 24 3 8 l 3 246 q 14 272 3 261 q 40 283 25 283 q 129 763 129 283 l 129 935 q 140 961 129 950 q 167 972 151 972 l 739 972 q 767 961 756 972 q 778 935 778 950 l 778 663 l 811 663 q 1005 622 921 663 q 1135 508 1089 582 q 1181 333 1181 433 q 1135 164 1181 240 q 1006 44 1089 88 q 813 0 922 0 l 550 0 q 523 12 533 0 q 513 38 513 24 l 513 674 l 407 674 l 407 589 q 364 271 407 407 q 238 60 321 135 q 42 -14 156 -14 m 778 260 l 811 260 q 879 281 856 260 q 903 338 903 301 q 878 391 903 372 q 811 410 854 410 l 778 410 l 778 260 z "},"Њ":{"ha":1181,"x_min":46,"x_max":1181,"o":"m 811 663 q 1005 622 921 663 q 1135 508 1089 582 q 1181 333 1181 433 q 1135 164 1181 240 q 1006 44 1089 88 q 813 0 922 0 l 536 0 q 510 11 521 0 q 499 38 499 22 l 499 347 l 324 347 l 324 38 q 313 11 324 22 q 286 0 301 0 l 83 0 q 57 10 68 0 q 46 38 46 21 l 46 935 q 57 961 46 950 q 83 972 68 972 l 286 972 q 313 961 301 972 q 324 935 324 950 l 324 636 l 499 636 l 499 935 q 510 961 499 950 q 536 972 521 972 l 739 972 q 765 961 754 972 q 776 935 776 950 l 776 663 l 811 663 m 811 260 q 879 281 856 260 q 903 338 903 301 q 878 391 903 372 q 811 410 854 410 l 776 410 l 776 260 l 811 260 z "},"Ѕ":{"ha":1181,"x_min":86,"x_max":1088,"o":"m 667 619 q 912 565 819 603 q 1046 467 1004 528 q 1088 314 1088 406 q 1023 140 1088 214 q 844 26 958 65 q 585 -14 731 -14 q 310 26 422 -14 q 142 134 197 67 q 86 282 86 201 q 95 304 86 296 q 118 313 104 313 l 403 313 q 450 294 432 313 q 503 265 474 272 q 585 257 532 257 q 717 297 717 257 q 699 326 717 314 q 638 347 682 338 q 510 365 594 356 q 218 460 319 388 q 117 667 117 533 q 174 833 117 761 q 335 946 231 906 q 579 986 440 986 q 832 941 724 986 q 997 829 940 896 q 1054 699 1054 763 q 1045 676 1054 685 q 1021 668 1036 668 l 722 668 q 679 685 699 668 q 643 707 664 699 q 579 715 622 715 q 486 676 486 715 q 522 644 486 656 q 667 619 558 632 z "},"Є":{"ha":1181,"x_min":88,"x_max":1117,"o":"m 463 363 q 506 285 468 313 q 604 257 543 257 q 765 335 718 257 q 788 363 778 354 q 814 371 797 371 l 1086 371 q 1108 362 1099 371 q 1117 340 1117 353 q 1054 176 1117 258 q 875 40 992 93 q 604 -14 758 -14 q 340 31 456 -14 q 156 170 224 76 q 88 404 88 264 l 88 568 q 156 802 88 708 q 340 941 224 896 q 604 986 456 986 q 875 933 758 986 q 1054 797 992 879 q 1117 632 1117 714 q 1108 610 1117 619 q 1086 601 1099 601 l 814 601 q 788 610 797 601 q 765 638 778 618 q 604 715 718 715 q 505 688 543 715 q 463 608 467 660 l 690 608 q 717 597 706 608 q 728 571 728 586 l 728 400 q 717 374 728 385 q 690 363 706 363 l 463 363 z "},"Э":{"ha":1181,"x_min":64,"x_max":1093,"o":"m 490 363 q 464 374 475 363 q 453 400 453 385 l 453 571 q 464 597 453 586 q 490 608 475 608 l 717 608 q 675 688 713 660 q 576 715 638 715 q 415 638 463 715 q 393 610 403 618 q 367 601 383 601 l 94 601 q 73 610 82 601 q 64 632 64 619 q 126 797 64 714 q 306 933 189 879 q 576 986 422 986 q 841 941 725 986 q 1025 802 957 896 q 1093 568 1093 708 l 1093 404 q 1025 170 1093 264 q 841 31 957 76 q 576 -14 725 -14 q 306 40 422 -14 q 126 176 189 93 q 64 340 64 258 q 73 362 64 353 q 94 371 82 371 l 367 371 q 393 363 383 371 q 415 335 403 354 q 576 257 463 257 q 675 285 638 257 q 717 363 713 313 l 490 363 z "},"І":{"ha":1181,"x_min":113,"x_max":1068,"o":"m 779 285 l 1031 285 q 1057 274 1046 285 q 1068 247 1068 263 l 1068 38 q 1057 11 1068 22 q 1031 0 1046 0 l 150 0 q 124 11 135 0 q 113 38 113 22 l 113 247 q 124 274 113 263 q 150 285 135 285 l 404 285 l 404 688 l 150 688 q 124 699 135 688 q 113 725 113 710 l 113 935 q 124 961 113 950 q 150 972 135 972 l 1031 972 q 1057 961 1046 972 q 1068 935 1068 950 l 1068 725 q 1057 699 1068 710 q 1031 688 1046 688 l 779 688 l 779 285 z "},"Ї":{"ha":1181,"x_min":113,"x_max":1068,"o":"m 496 1181 q 519 1172 510 1181 q 528 1149 528 1163 l 528 1047 q 519 1024 528 1033 q 496 1015 510 1015 l 335 1015 q 312 1024 321 1015 q 303 1047 303 1033 l 303 1149 q 312 1172 303 1163 q 335 1181 321 1181 l 496 1181 m 844 1181 q 867 1172 858 1181 q 876 1149 876 1163 l 876 1047 q 867 1024 876 1033 q 844 1015 858 1015 l 683 1015 q 660 1024 669 1015 q 651 1047 651 1033 l 651 1149 q 660 1172 651 1163 q 683 1181 669 1181 l 844 1181 m 779 285 l 1031 285 q 1057 274 1046 285 q 1068 247 1068 263 l 1068 38 q 1057 11 1068 22 q 1031 0 1046 0 l 150 0 q 124 11 135 0 q 113 38 113 22 l 113 247 q 124 274 113 263 q 150 285 135 285 l 404 285 l 404 688 l 150 688 q 124 699 135 688 q 113 725 113 710 l 113 935 q 124 961 113 950 q 150 972 135 972 l 1031 972 q 1057 961 1046 972 q 1068 935 1068 950 l 1068 725 q 1057 699 1068 710 q 1031 688 1046 688 l 779 688 l 779 285 z "},"Ј":{"ha":1181,"x_min":38,"x_max":1067,"o":"m 1067 404 q 928 90 1067 193 q 557 -14 789 -14 q 273 40 390 -14 q 97 175 156 93 q 38 340 38 257 q 47 362 38 353 q 68 371 56 371 l 382 371 q 403 363 394 371 q 417 340 413 354 q 550 257 443 257 q 653 288 615 257 q 692 375 692 318 l 692 688 l 185 688 q 158 699 169 688 q 147 725 147 710 l 147 935 q 158 961 147 950 q 185 972 169 972 l 1029 972 q 1056 961 1044 972 q 1067 935 1067 950 l 1067 404 z "},"Ћ":{"ha":1181,"x_min":42,"x_max":1142,"o":"m 846 604 q 1066 506 990 604 q 1142 208 1142 408 l 1142 38 q 1131 11 1142 22 q 1104 0 1119 0 l 844 0 q 818 11 829 0 q 807 38 807 22 l 807 194 q 785 265 807 243 q 715 288 764 288 q 651 276 682 288 q 621 251 621 265 l 621 38 q 610 11 621 22 q 583 0 599 0 l 324 0 q 297 11 308 0 q 286 38 286 22 l 286 688 l 74 688 q 51 697 60 688 q 42 719 42 706 l 42 940 q 51 963 42 954 q 74 972 60 972 l 854 972 q 877 963 868 972 q 886 940 886 954 l 886 719 q 877 697 886 706 q 854 688 868 688 l 621 688 l 621 563 q 846 604 711 604 z "}}}
